<?xml version="1.0" standalone="no"?>
<!DOCTYPE svg PUBLIC "-//W3C//DTD SVG 20010904//EN"
 "http://www.w3.org/TR/2001/REC-SVG-20010904/DTD/svg10.dtd">
<svg version="1.0" xmlns="http://www.w3.org/2000/svg"
 width="632.000000pt" height="632.000000pt" viewBox="0 0 632.000000 632.000000"
 preserveAspectRatio="xMidYMid meet">
<metadata>
Created by potrace 1.11, written by Peter Selinger 2001-2013
</metadata>
<g transform="translate(0.000000,632.000000) scale(0.100000,-0.100000)"
fill="#000000" stroke="none">
<path d="M10 3141 l0 -1710 390 1 390 0 0 721 0 722 33 -36 c17 -20 70 -80
117 -134 47 -54 148 -171 225 -259 77 -89 183 -211 235 -271 52 -61 109 -126
126 -145 17 -19 96 -109 174 -200 78 -91 157 -181 174 -201 17 -20 63 -72 101
-117 l70 -80 910 1 910 2 1 1360 c1 748 2 1362 3 1365 0 3 181 5 401 5 220 0
401 2 401 5 1 3 2 157 3 343 l1 337 -1360 -1 -1360 0 -100 -121 c-55 -67 -107
-129 -115 -138 -8 -9 -32 -37 -53 -63 -21 -25 -43 -52 -50 -59 -7 -7 -29 -34
-50 -60 -21 -26 -43 -53 -50 -60 -7 -7 -57 -67 -111 -133 -55 -66 -105 -124
-111 -130 -6 -5 -20 -22 -31 -37 -12 -15 -41 -51 -66 -80 -25 -29 -132 -156
-237 -281 l-191 -228 0 695 0 696 -390 0 -390 0 0 -1709z m3071 1019 c5 -21 3
-2670 -3 -2670 -3 0 -77 80 -163 178 -174 196 -210 236 -269 302 -23 25 -68
76 -101 114 -33 38 -65 74 -70 80 -6 6 -62 70 -124 141 -63 72 -119 135 -125
140 -6 6 -40 44 -76 85 -67 77 -300 341 -310 350 -3 3 -32 37 -65 75 -33 39
-62 72 -65 75 -3 3 -45 50 -93 104 l-88 99 28 31 c15 17 30 33 33 36 3 3 30
34 60 70 30 36 57 67 60 70 3 3 41 48 85 100 44 52 145 172 225 265 80 94 154
181 165 194 11 13 48 56 81 95 l61 71 377 0 c207 0 377 -2 377 -5z"/>
<path d="M5399 3616 c-2 -2 -21 -7 -42 -10 -61 -10 -187 -63 -257 -108 -66
-43 -240 -207 -240 -227 0 -6 -4 -11 -9 -11 -4 0 -9 62 -9 138 0 75 -1 142 -1
148 -1 8 -105 11 -366 11 l-365 0 -1 -31 c0 -42 0 -1955 0 -2033 l1 -62 360 1
c243 0 362 3 367 11 3 5 7 269 7 586 1 437 5 587 15 620 48 163 163 286 299
319 15 4 74 6 132 6 121 -1 203 -20 294 -67 34 -18 64 -33 69 -35 11 -5 309
607 301 620 -11 18 -145 76 -230 99 -71 19 -311 38 -325 25z"/>
<path d="M5710 2305 c-197 -52 -337 -231 -346 -442 -13 -319 272 -551 586
-477 316 74 460 444 282 720 -110 169 -324 251 -522 199z"/>
</g>
</svg>
