<svg id="bg" xmlns="http://www.w3.org/2000/svg" viewBox="0 0 1366 896"><defs><style>.cls-1{fill:none;stroke:#f42525;stroke-miterlimit:10;opacity:0.6;}</style></defs><title>personal-website-design</title><path class="cls-1" d="M840.34-47.3c-3.22.39-6.44.86-9.66,1.43A172.48,172.48,0,0,0,784-30.67q-6.6,3.29-12.81,7.15a217.66,217.66,0,0,0-28.24,34.94C734.47,24.23,727,38.05,719,51.9c-14.73,26.62-33.51,52.28-41.48,83.3-1.34,2.7-5.38,4.06-6.73,2.71-6.78-13.45-17.6-25.53-32.42-25.48-44.46.15-102.28,34-92.12,85.94.76,13.24,2.33,26.72.17,39.64-.81,5.92-2,13-4.32,19-17.63,40.34-49.47,84.27-23.25,129.2,14.29,23.64,30.95,47.28,32.94,74.21-1.09,24.2-17.22,34.36-37.41,40s-44.44,6.72-61.94,12.84c-12.11,4.09-20.16,13.55-27,24.95-1.17,14.22,2.93,30.37,13.74,39.77,44.6,41.62,81.11,80.56,96.14,143.84,4.11,18.85,37.7-6.87,62-2.91,9.44,2.67,17.55,10.72,19.51,19.86,7.78,17.71,9,38,12.58,57.34S638.77,833.91,657,848c31.06,22.8,67.39,7.86,101.08,10.44,8.09,1.32,14.85,8,22.94,12.05,8.79,7.72,17.41,17.46,26.2,27.34,26.37,29.66,54.27,60.64,92.6,42.32C923.38,930,948.6,917.07,970.77,901a358.81,358.81,0,0,0,31.65-26.1,109,109,0,0,0,34.89-33.4c8.61-12.94,14.59-27.47,19.06-42.88,15.34-28.82,16.48-90.8,46.15-81.47,86.33,28,145.41-31.48,170.25-102.7a197,197,0,0,0,14.53-44.81,264,264,0,0,0,4.62-42.8,235.65,235.65,0,0,0-2.41-43.05c-5.94-15.16-20.78-23.19-34.28-29.88-41.82-14.68-87.61-10.48-128.1-31.91-14.17-7.36-20.28-20.81-20.5-35.12a62.85,62.85,0,0,1,14.72-40.36c9.72-13.35,19.16-25.23,22.23-41.45,8.68-13.44,21.68-20.59,35.88-26.56,34.31-12,71-7.34,103-27.59,15.36-10.71,10.56-29.65,2.22-43.84-23.81-35.45-55.87-59-74.55-95.72-5.29-9.69-10.09-18.91-13.7-27.43-4.86-10.87-11-20.43-19.05-27.91a62.31,62.31,0,0,0-30.08-15.53c-14.7-3.83-36.24.28-43-10.48C1051.46-41.21,974.57-70.6,891.87-57.63a102.15,102.15,0,0,0-37.59,8.94C849.73-48.3,845.07-47.87,840.34-47.3Z"/><path class="cls-1" d="M641.31,117.39c-43.7.24-97,33-90.54,84.65,1.62,13,2.09,26.26.16,39-.89,5.81-1.84,12.86-4.25,18.65-16.63,40-48.92,83.13-22.83,127.13,13.86,23.38,32,46.46,32.36,73,.35,23.82-16.9,33.82-36.71,39.38S475.91,506,458.71,512c-11.87,4.11-19.85,13.37-26.64,24.6-1.2,14,2.91,29.67,13.3,39.11C458,587.2,469.67,599,480.68,610.94c27.38,29.79,49.25,62,59.48,106.59,4.24,18.52,37.39-8.13,61-2.89C607.13,716,612.37,720,616,724.81a24.1,24.1,0,0,1,4.42,9.37c7.67,17.45,8.85,37.42,12.4,56.49,2.82,15.17,7,29.8,17.62,42.14a60.54,60.54,0,0,0,9.57,9c9.27,7,19.21,10.26,29.31,11.72,22.95,3.31,47.34-4.2,70.27-1.44,8,1,14.63,7.91,22.6,11.86,8.67,7.6,17.17,17.19,25.83,26.92,26,29.19,53.12,58.92,91.24,41.72,23.17-10.46,48.31-22.83,70.24-38.83a346.23,346.23,0,0,0,26.87-21.93c1.48-1.33,3-2.65,4.43-4A107.62,107.62,0,0,0,1035.49,835c8.48-12.73,14.36-27,18.76-42.15,15.1-28.34,16.28-89.38,45.39-80.13,84.92,27,139.42-32.4,167.16-101.15,5.82-14.42,11.33-29,14.24-44.06a259.54,259.54,0,0,0,4.5-42.07,232,232,0,0,0-2.42-42.31c-5.84-14.89-20.06-23.62-33.72-29.37-40.2-16.93-86.21-10.48-126.14-31.43-13.93-7.31-20-20.49-20.19-34.59a59.55,59.55,0,0,1,4.21-22.38A68.7,68.7,0,0,1,1117.57,348c10.07-12.76,18.88-24.81,22-40.76,8.55-13.21,21.18-20.7,35.32-26.16,7.58-2.93,15.46-4.54,23.29-6,26.57-5.05,53.94-5.41,77.79-21.37,15.3-10.24,10.77-29.45,2.15-43.18-22.35-35.61-54.42-58.46-73.36-94.3-5.07-9.6-9.86-18.64-13.51-27-4.7-10.74-10.89-20.1-18.79-27.46s-17.65-12.44-29.63-15.31c-14.54-3.48-35.26,0-42.34-10.36C1051.08-35.89,972.69-63,891.23-50.2A102.31,102.31,0,0,0,879.17-49a101.78,101.78,0,0,0-25,7.55c-4.49.39-9.08.82-13.74,1.39-3.17.38-6.35.85-9.52,1.41a169.74,169.74,0,0,0-46,15.05q-6.5,3.24-12.61,7.06A215.38,215.38,0,0,0,744.51,18c-8.34,12.63-15.81,26.18-23.58,39.91q-4.8,8.51-9.86,17c-12.21,20.32-24.94,40.91-31.16,64.75-1.32,2.65-5.3,4-6.64,2.67C666.56,129.13,655.89,117.29,641.31,117.39Z"/><path class="cls-1" d="M644.26,122.35c-42.94.33-95.3,32.61-89,83.37,1.59,12.73,2.05,25.83.14,38.36-.87,5.72-1.81,12.65-4.17,18.35-16.33,39.35-48,81.78-22.41,125.06,13.61,23,31.4,45.72,31.79,71.85.34,23.42-16.58,33.27-36,38.78s-42.78,6.71-59.65,12.63C453.34,514.83,445.44,524,438.71,535c-1.25,13.75,2.72,29.17,12.85,38.47,12.36,11.33,23.73,22.93,34.64,34.78,27,29.4,48.63,61.13,58.79,105.06,4.21,18.22,36.83-8,60.12-2.89,5.83,1.29,11,5.29,14.59,10a23.78,23.78,0,0,1,4.36,9.22c7.56,17.19,8.73,36.86,12.21,55.64,2.78,14.94,6.89,29.36,17.35,41.51a59.16,59.16,0,0,0,9.42,8.91c9.13,6.87,18.92,10.1,28.86,11.54,22.62,3.21,46.64-4.16,69.21-1.43,7.9,1,14.42,7.79,22.26,11.69,8.55,7.47,16.93,16.91,25.46,26.48,25.62,28.74,52.31,57.94,89.87,41.13,23-10.29,47.86-22.59,69.54-38.52,9.25-6.79,18-14.13,26.57-21.8l4.39-3.94a106,106,0,0,0,34.47-32.31c8.34-12.5,14.13-26.53,18.46-41.42,14.85-27.86,16-87.81,44.62-78.77,83.4,26.36,136.89-32,164.09-99.61,5.7-14.17,11.1-28.54,13.94-43.3a255.31,255.31,0,0,0,4.38-41.35,227.53,227.53,0,0,0-2.43-41.57c-5.75-14.63-19.73-23.2-33.15-28.85-39.57-16.66-84.91-10.34-124.19-31-13.7-7.19-19.67-20.17-19.88-34a58.71,58.71,0,0,1,4.13-22,68,68,0,0,1,10.14-17.09c9.92-12.55,18.62-24.4,21.67-40.07,8.43-13,20.87-20.36,34.77-25.76,7.45-2.89,15.2-4.5,22.88-6,26.07-5,52.92-5.47,76.33-21.22,15-10.1,10.55-29,2.08-42.52-22-35.07-53.5-57.6-72.17-92.87-5-9.45-9.72-18.34-13.33-26.56-4.64-10.56-10.75-19.76-18.53-27s-17.39-12.24-29.17-15.08c-14.32-3.44-34.7-.09-41.68-10.26-48.68-70.83-125.81-97.64-206-85a101.81,101.81,0,0,0-11.89,1.23,100.13,100.13,0,0,0-24.62,7.42c-4.42.39-9,.82-13.54,1.38-3.12.38-6.25.85-9.37,1.41a167.28,167.28,0,0,0-45.28,14.89q-6.39,3.21-12.41,7a211.51,211.51,0,0,0-27.39,34c-8.21,12.45-15.57,25.8-23.21,39.34q-4.74,8.39-9.71,16.79c-12.07,19.9-24.67,40.08-30.86,63.49-1.31,2.6-5.22,3.91-6.54,2.62C669.12,133.79,658.59,122.2,644.26,122.35Z"/><path class="cls-1" d="M647.21,127.3c-42.18.51-93.58,32.2-87.38,82.09,1.55,12.52,2,25.4.12,37.72-.85,5.63-1.77,12.44-4.1,18.05-16,38.7-47.11,80.43-22,123,13.35,22.62,30.82,45,31.2,70.67.35,23-16.25,32.72-35.32,38.16s-42,6.67-58.51,12.53c-11.42,4-19.22,13-25.9,23.91-1.3,13.51,2.52,28.66,12.41,37.81,12,11.16,23.15,22.6,33.95,34.32,26.63,29,48,60.26,58.11,103.53C554,727,586.09,701.16,609,706.2c5.74,1.26,10.83,5.2,14.37,9.85a23.51,23.51,0,0,1,4.3,9.08c7.45,16.92,8.6,36.29,12,54.78,2.73,14.71,6.77,28.91,17.06,40.89a58.52,58.52,0,0,0,9.27,8.76c9,6.77,18.64,10,28.43,11.36,22.29,3.12,45.93-4.1,68.15-1.4,7.77,1,14.2,7.66,21.92,11.5,8.42,7.36,16.67,16.64,25.09,26.06,25.23,28.27,51.49,57,88.5,40.53C921,907.49,945.55,895.26,967,879.4c9.13-6.76,17.82-14,26.25-21.66,1.45-1.31,2.9-2.6,4.36-3.89,14.51-8.64,25.75-19.1,34.27-31.77,8.19-12.29,13.88-26.07,18.15-40.7,14.6-27.37,15.79-86.24,43.86-77.42,81.87,25.74,134.36-31.65,161-98.06,5.59-13.93,10.87-28,13.65-42.55a250.72,250.72,0,0,0,4.26-40.62,223,223,0,0,0-2.44-40.83c-5.66-14.36-19.39-22.79-32.59-28.34-38.93-16.38-83.59-10.19-122.23-30.49-13.48-7.09-19.36-19.85-19.58-33.52a57.89,57.89,0,0,1,4.07-21.68,66.59,66.59,0,0,1,10-16.82c9.77-12.33,18.35-24,21.39-39.38,8.32-12.76,20.55-20,34.22-25.36,7.32-2.86,14.93-4.46,22.48-5.95,25.57-5,51.9-5.53,74.85-21.07,14.71-10,10.33-28.55,2-41.86-21.59-34.53-52.58-56.75-71-91.45-4.93-9.3-9.58-18-13.15-26.11-4.58-10.39-10.59-19.44-18.26-26.56s-17.13-12.05-28.72-14.86c-14.09-3.4-34.12-.14-41-10.15-48-69.66-123.87-96.16-202.85-83.65a100.79,100.79,0,0,0-11.72,1.2A98.83,98.83,0,0,0,854-26.85c-4.35.39-8.8.82-13.32,1.38-3.07.38-6.16.84-9.24,1.4A164.11,164.11,0,0,0,786.85-9.34q-6.3,3.16-12.22,6.89a209.52,209.52,0,0,0-27,33.47c-8.09,12.28-15.33,25.44-22.85,38.77q-4.67,8.26-9.55,16.55c-11.93,19.48-24.39,39.25-30.55,62.22-1.3,2.55-5.15,3.84-6.45,2.58C671.68,138.45,661.3,127.13,647.21,127.3Z"/><path class="cls-1" d="M650.17,132.26c-41.42.63-91.87,31.78-85.81,80.81,1.52,12.31,1.95,25,.11,37.08-.84,5.53-1.75,12.23-4,17.74-15.72,38.05-46.2,79.08-21.55,120.93C552,411.06,569.13,433,569.52,458.31c.34,22.61-15.93,32.18-34.63,37.56s-41.15,6.61-57.37,12.42c-11.19,4-18.9,12.88-25.54,23.56-1.33,13.28,2.34,28.16,12,37.17,11.73,11,22.59,22.26,33.28,33.86,26.25,28.6,47.42,59.39,57.42,102,4.14,17.64,35.7-7.83,58.28-2.88,5.65,1.24,10.66,5.11,14.15,9.69a23.12,23.12,0,0,1,4.24,8.93c7.34,16.66,8.48,35.72,11.85,53.93,2.68,14.48,6.66,28.47,16.77,40.26a57.21,57.21,0,0,0,9.13,8.63c8.84,6.66,18.35,9.79,28,11.17,22,3,45.22-4.05,67.09-1.37,7.66.94,14,7.53,21.58,11.31,8.3,7.24,16.43,16.37,24.72,25.64,24.86,27.81,50.68,56,87.13,39.93,22.64-10,47-22.11,68.15-37.9,9-6.72,17.6-14,25.93-21.53,1.43-1.3,2.88-2.57,4.33-3.84,14.33-8.49,25.6-18.62,34.06-31.22,8.08-12.05,13.65-25.61,17.85-40,14.35-26.89,15.55-84.69,43.09-76.08,80.34,25.12,131.83-31.27,157.93-96.52,5.47-13.68,10.64-27.55,13.35-41.79a246.25,246.25,0,0,0,4.14-39.89,219.45,219.45,0,0,0-2.44-40.09c-5.58-14.09-19.07-22.37-32-27.82-38.3-16.11-82.29-10-120.28-30-13.26-7-19.05-19.53-19.27-33a56.75,56.75,0,0,1,4-21.34,65,65,0,0,1,9.83-16.54c9.61-12.12,18.08-23.56,21.11-38.69,8.19-12.54,20.23-19.69,33.66-25,7.2-2.83,14.67-4.42,22.07-5.91,25.07-5,50.89-5.6,73.38-20.92,14.43-9.82,10.12-28.1,1.94-41.21-21.2-34-51.65-55.89-69.78-90-4.86-9.14-9.45-17.73-13-25.67-4.52-10.21-10.45-19.11-18-26.11s-16.87-11.86-28.27-14.63c-13.85-3.37-33.54-.2-40.35-10-47.29-68.48-121.93-94.67-199.68-82.31a97.67,97.67,0,0,0-11.54,1.17,97,97,0,0,0-23.91,7.19c-4.28.38-8.67.81-13.12,1.36-3,.38-6.06.85-9.09,1.39A162,162,0,0,0,787.8-2.23c-4.12,2.09-8.14,4.35-12,6.8a206.83,206.83,0,0,0-26.55,33c-8,12.1-15.08,25.06-22.48,38.2q-4.59,8.14-9.39,16.31c-11.79,19.05-24.12,38.41-30.25,60.94-1.28,2.51-5.07,3.78-6.36,2.54C674.24,143.11,664,132.05,650.17,132.26Z"/><path class="cls-1" d="M653.12,137.22c-40.66.75-90.15,31.36-84.23,79.52,1.48,12.1,1.9,24.53.09,36.44-.82,5.44-1.71,12-4,17.44-15.42,37.41-45.3,77.73-21.12,118.86,12.85,21.87,29.66,43.47,30,68.31.34,22.21-15.61,31.63-33.93,36.95s-40.35,6.54-56.23,12.32c-11,4-18.59,12.71-25.17,23.22-1.38,13,2.14,27.65,11.52,36.52,11.43,10.8,22,21.92,32.61,33.39,25.87,28.2,46.81,58.52,56.73,100.45,4.11,17.35,35.14-7.73,57.36-2.87,5.56,1.21,10.49,5,13.93,9.52a22.7,22.7,0,0,1,4.18,8.79c7.23,16.39,8.35,35.15,11.67,53.07,2.64,14.26,6.54,28,16.49,39.63a55.84,55.84,0,0,0,9,8.5c8.7,6.55,18.06,9.62,27.54,11,21.62,2.94,44.51-4,66-1.35,7.54.93,13.77,7.41,21.25,11.13,8.17,7.12,16.18,16.1,24.34,25.21,24.48,27.35,49.87,55,85.77,39.34,22.46-9.79,46.5-21.87,67.44-37.6,8.92-6.67,17.4-13.88,25.63-21.39q2.11-1.92,4.29-3.79c14.16-8.33,25.43-18.16,33.85-30.68,8-11.82,13.42-25.14,17.55-39.24,14.1-26.4,15.3-83.12,42.32-74.72,78.82,24.49,129.31-30.91,154.85-95,5.36-13.43,10.42-27.06,13.06-41a240.53,240.53,0,0,0,4-39.16,213.87,213.87,0,0,0-2.44-39.34c-5.49-13.84-18.73-22-31.47-27.32-37.66-15.83-81-9.89-118.32-29.55-13-6.87-18.74-19.21-19-32.44a55.92,55.92,0,0,1,3.92-21,64,64,0,0,1,9.68-16.26c9.46-11.92,17.81-23.15,20.83-38,8.08-12.31,19.92-19.35,33.11-24.56,7.07-2.79,14.4-4.37,21.67-5.87,24.57-5,49.87-5.66,71.91-20.77,14.13-9.68,9.9-27.65,1.87-40.55-20.82-33.43-50.73-55-68.6-88.59-4.78-9-9.31-17.44-12.78-25.24-4.46-10-10.31-18.77-17.74-25.66s-16.6-11.66-27.81-14.4c-13.63-3.33-33-.26-39.69-10-46.6-67.3-120-93.18-196.51-81a96.52,96.52,0,0,0-11.36,1.15,95.67,95.67,0,0,0-23.55,7.06c-4.22.38-8.54.81-12.91,1.36-3,.38-6,.84-9,1.38A158.67,158.67,0,0,0,788.75,4.89c-4,2.05-8,4.29-11.81,6.71a202.51,202.51,0,0,0-26.12,32.5C743,56,736,68.78,728.7,81.72q-4.5,8-9.23,16.07c-11.64,18.63-23.84,37.58-29.94,59.68-1.27,2.46-5,3.7-6.27,2.49C676.8,147.78,666.72,137,653.12,137.22Z"/><path class="cls-1" d="M656.07,142.18c-39.9.87-88.43,30.94-82.65,78.24,1.45,11.88,1.85,24.1.08,35.8-.81,5.34-1.69,11.8-3.88,17.13-15.13,36.76-44.4,76.38-20.7,116.8,12.6,21.49,29.08,42.72,29.46,67.12.34,21.82-15.28,31.09-33.23,36.35s-39.53,6.5-55.08,12.21c-10.75,3.94-18.28,12.55-24.81,22.88-1.42,12.81,1.95,27.14,11.08,35.86,11.11,10.63,21.44,21.59,31.92,32.93,25.5,27.81,46.21,57.65,56.06,98.92,4.07,17.05,34.56-7.64,56.43-2.87,5.47,1.19,10.33,4.92,13.71,9.36a22.46,22.46,0,0,1,4.12,8.64c7.12,16.13,8.23,34.59,11.49,52.22,2.59,14,6.42,27.58,16.2,39a54.82,54.82,0,0,0,8.83,8.36c8.56,6.45,17.79,9.47,27.11,10.8,21.29,2.86,43.8-3.94,64.95-1.32,7.42.92,13.55,7.29,20.91,10.95,8,7,15.94,15.82,24,24.78,24.1,26.88,49.07,54,84.4,38.74,22.29-9.62,46.06-21.63,66.75-37.29,8.8-6.64,17.18-13.8,25.31-21.25,1.4-1.28,2.82-2.52,4.26-3.75,14-8.18,25.27-17.7,33.64-30.13,7.82-11.6,13.19-24.68,17.25-38.52,13.85-25.92,15.06-81.55,41.56-73.37C1162.5,714.64,1212,660.24,1237,597.34c5.24-13.19,10.19-26.56,12.76-40.29a236.06,236.06,0,0,0,3.89-38.43,210.33,210.33,0,0,0-2.45-38.6c-5.39-13.57-18.4-21.55-30.9-26.81-37-15.55-79.66-9.73-116.37-29.08-12.82-6.75-18.43-18.89-18.66-31.9a55.1,55.1,0,0,1,3.86-20.65,62.55,62.55,0,0,1,9.53-16c9.3-11.71,17.54-22.74,20.54-37.32,8-12.09,19.61-19,32.56-24.16,6.94-2.76,14.14-4.33,21.26-5.82,24.07-5,48.85-5.74,70.44-20.63,13.84-9.54,9.68-27.2,1.8-39.89-20.44-32.89-49.8-54.19-67.4-87.17-4.71-8.83-9.17-17.13-12.6-24.8-4.41-9.85-10.16-18.44-17.48-25.2s-16.34-11.47-27.36-14.18c-13.4-3.29-32.4-.31-39-9.84C1035.47.45,963.32-25.12,888-13.07a95.59,95.59,0,0,0-11.18,1.13A94.17,94.17,0,0,0,853.67-5c-4.15.38-8.4.81-12.71,1.36q-4.4.56-8.81,1.37A156.26,156.26,0,0,0,789.7,12q-6,3-11.61,6.62a200.08,200.08,0,0,0-25.69,32C744.69,62.37,737.79,75,730.65,87.69q-4.44,7.91-9.08,15.82c-11.5,18.21-23.56,36.75-29.64,58.41-1.26,2.41-4.91,3.63-6.18,2.44C679.36,152.44,669.43,141.89,656.07,142.18Z"/><path class="cls-1" d="M659,147.14c-39.15,1-86.72,30.51-81.08,77,1.41,11.67,1.8,23.67.06,35.16-.8,5.25-1.65,11.59-3.8,16.83-14.83,36.11-43.5,75-20.28,114.73,12.36,21.11,28.51,42,28.89,65.94.34,21.42-15,30.55-32.54,35.74S511.57,499,496.34,504.6c-10.52,3.91-18,12.38-24.45,22.53-1.46,12.58,1.77,26.64,10.64,35.22,10.8,10.45,20.88,21.24,31.25,32.47,25.12,27.4,45.6,56.78,55.37,97.37,4,16.77,34-7.53,55.5-2.86,5.39,1.17,10.17,4.83,13.5,9.19a22.22,22.22,0,0,1,4.06,8.51c7,15.86,8.1,34,11.3,51.36,2.55,13.8,6.32,27.13,15.93,38.37a53.88,53.88,0,0,0,8.68,8.23c8.42,6.34,17.5,9.31,26.66,10.62,21,2.76,43.1-3.9,63.9-1.3,7.29.91,13.33,7.16,20.56,10.76,7.93,6.88,15.7,15.55,23.6,24.35,23.73,26.43,48.26,53,83,38.15,22.1-9.45,45.6-21.39,66-37,8.7-6.6,17-13.73,25-21.12,1.38-1.27,2.79-2.49,4.22-3.69,13.82-8,25.1-17.25,33.43-29.59,7.69-11.38,13-24.22,17-37.8,13.59-25.43,14.8-80,40.78-72,75.76,23.25,124.24-30.15,148.69-91.88,5.13-12.94,10-26.07,12.47-39.54a231.58,231.58,0,0,0,3.77-37.7,206.73,206.73,0,0,0-2.45-37.86c-5.31-13.31-18.07-21.14-30.35-26.29-36.39-15.27-78.35-9.59-114.41-28.61-12.6-6.65-18.13-18.57-18.35-31.37a54.26,54.26,0,0,1,3.79-20.3,61.37,61.37,0,0,1,9.37-15.72c9.16-11.49,17.27-22.32,20.26-36.63,7.85-11.86,19.29-18.68,32-23.77,6.8-2.72,13.86-4.28,20.84-5.77,23.58-4.94,47.84-5.8,69-20.48,13.55-9.4,9.47-26.75,1.73-39.23-20.05-32.35-48.87-53.34-66.21-85.75-4.64-8.67-9-16.82-12.42-24.36a75.12,75.12,0,0,0-17.21-24.75c-7.21-6.65-16.08-11.27-26.91-14-13.17-3.26-31.83-.37-38.35-9.74C1032.35,7.72,961.45-17.54,887.41-5.64a95,95,0,0,0-11,1.1,93,93,0,0,0-22.82,6.82c-4.09.38-8.27.81-12.51,1.35-2.88.37-5.77.83-8.66,1.36a153.64,153.64,0,0,0-41.74,14.12c-3.92,2-7.74,4.18-11.42,6.54A196.76,196.76,0,0,0,754,57.17c-7.58,11.56-14.37,23.94-21.39,36.48q-4.37,7.78-8.92,15.59c-11.36,17.78-23.29,35.91-29.34,57.14-1.24,2.36-4.83,3.55-6.08,2.39C681.92,157.1,672.14,146.81,659,147.14Z"/><path class="cls-1" d="M662,152.1c-38.38,1.11-85,30.09-79.5,75.66,1.38,11.46,1.75,23.24,0,34.52-.78,5.16-1.62,11.39-3.72,16.53-14.53,35.47-42.6,73.68-19.85,112.66,12.1,20.74,27.92,41.23,28.3,64.76.34,21-14.63,30-31.84,35.14s-37.89,6.43-52.8,12c-10.29,3.88-17.64,12.21-24.08,22.18-1.51,12.34,1.57,26.12,10.19,34.56,10.5,10.27,20.33,20.89,30.57,32,24.81,27,45,55.91,54.69,95.84,4,16.47,33.44-7.43,54.58-2.86,5.3,1.15,10,4.74,13.28,9a21.76,21.76,0,0,1,4,8.36c6.91,15.6,8,33.45,11.12,50.51,2.5,13.58,6.2,26.69,15.64,37.74a52.91,52.91,0,0,0,8.53,8.1,55.41,55.41,0,0,0,26.23,10.43C728,812,749.75,805.44,770.19,808c7.17.9,13.12,7,20.23,10.58,7.8,6.76,15.44,15.28,23.22,23.93,23.35,26,47.46,52,81.67,37.56,21.93-9.29,45.15-21.16,65.35-36.68,8.58-6.57,16.75-13.65,24.69-21q2-1.87,4.19-3.64c13.64-7.88,24.93-16.79,33.23-29,7.55-11.15,12.71-23.74,16.65-37.06,13.34-24.95,14.56-78.43,40-70.67,74.24,22.62,121.72-29.78,145.62-90.34,5-12.7,9.73-25.58,12.17-38.79a226.89,226.89,0,0,0,3.65-37,203.08,203.08,0,0,0-2.46-37.12c-5.22-13-17.74-20.72-29.78-25.78-35.76-15-77-9.44-112.45-28.14-12.39-6.53-17.83-18.25-18-30.83a53.31,53.31,0,0,1,3.71-20,60.73,60.73,0,0,1,9.22-15.44c9-11.28,17-21.9,20-35.94,7.72-11.64,19-18.34,31.46-23.37,6.67-2.68,13.6-4.24,20.44-5.73,23.07-4.92,46.82-5.86,67.5-20.32,13.25-9.27,9.25-26.31,1.66-38.59-19.67-31.8-48-52.48-65-84.32-4.57-8.51-8.9-16.52-12.24-23.92a73.9,73.9,0,0,0-16.95-24.3c-7.1-6.52-15.81-11.08-26.45-13.72-12.94-3.22-31.26-.43-37.69-9.64C1029.22,15,959.57-10,886.77,1.79a94,94,0,0,0-10.84,1.08,91.07,91.07,0,0,0-22.46,6.7c-4,.37-8.13.8-12.3,1.34q-4.26.55-8.52,1.35a151,151,0,0,0-41,14c-3.85,2-7.6,4.13-11.22,6.45a194.46,194.46,0,0,0-24.84,31c-7.45,11.38-14.12,23.57-21,35.91q-4.29,7.66-8.76,15.34c-11.22,17.36-23,35.08-29,55.87-1.23,2.31-4.76,3.49-6,2.35C684.48,161.76,674.85,151.73,662,152.1Z"/><path class="cls-1" d="M664.93,157.06c-37.62,1.23-83.28,29.67-77.92,74.38,1.34,11.25,1.7,22.8,0,33.88-.77,5.06-1.59,11.17-3.66,16.22-14.22,34.82-41.69,72.33-19.42,110.59,11.85,20.36,27.34,40.49,27.72,63.58.34,20.62-14.31,29.46-31.14,34.53s-37.08,6.36-51.66,11.91c-10.07,3.83-17.33,12-23.71,21.83-1.55,12.11,1.38,25.62,9.74,33.92,10.19,10.09,19.77,20.55,29.9,31.54,24.44,26.55,44.39,55,54,94.3,4,16.18,32.87-7.33,53.66-2.85,5.21,1.13,9.84,4.65,13.06,8.87a21.56,21.56,0,0,1,3.94,8.22c6.8,15.33,7.85,32.88,10.94,49.65,2.46,13.35,6.08,26.24,15.35,37.11a52,52,0,0,0,8.39,8A54.48,54.48,0,0,0,709.93,803c20.3,2.58,41.69-3.79,61.77-1.25,7.06.89,12.9,6.91,19.89,10.4,7.68,6.63,15.2,15,22.85,23.5,23,25.5,46.65,51.07,80.31,37,21.75-9.13,44.7-20.92,64.65-36.37,8.47-6.53,16.53-13.57,24.37-20.85,1.35-1.25,2.74-2.44,4.16-3.6,13.47-7.73,24.76-16.33,33-28.5,7.41-10.93,12.48-23.28,16.35-36.34,13.1-24.46,14.31-76.86,39.25-69.32,72.71,22,119.18-29.4,142.53-88.79,4.9-12.45,9.51-25.09,11.89-38a223.51,223.51,0,0,0,3.52-36.24,198.61,198.61,0,0,0-2.47-36.38c-5.13-12.78-17.4-20.31-29.22-25.26-35.12-14.72-75.72-9.29-110.49-27.67-12.17-6.43-17.52-17.93-17.75-30.29a52.5,52.5,0,0,1,3.65-19.62,59,59,0,0,1,9.07-15.17c8.85-11.07,16.73-21.48,19.7-35.25,7.61-11.42,18.66-18,30.91-23,6.55-2.65,13.33-4.2,20-5.69,22.57-4.9,45.81-5.93,66-20.17,13-9.13,9-25.86,1.59-37.93-19.28-31.26-47-51.63-63.83-82.89-4.49-8.36-8.75-16.22-12-23.49a72.71,72.71,0,0,0-16.7-23.84c-7-6.41-15.54-10.89-26-13.5-12.71-3.18-30.69-.48-37-9.53C1026.1,22.26,957.7-2.39,886.13,9.22a88.5,88.5,0,0,0-32.76,7.63c-4,.37-8,.79-12.1,1.33-2.79.37-5.59.82-8.38,1.35a148.21,148.21,0,0,0-40.33,13.8q-5.67,2.93-11,6.37a191.06,191.06,0,0,0-24.41,30.54c-7.32,11.2-13.88,23.2-20.66,35.34-2.8,5-5.66,10.08-8.6,15.1-11.07,16.94-22.74,34.25-28.73,54.61-1.21,2.26-4.68,3.41-5.9,2.3C687,166.43,677.56,156.65,664.93,157.06Z"/><path class="cls-1" d="M667.88,162c-36.85,1.35-81.56,29.25-76.34,73.09,1.31,11,1.65,22.38,0,33.24-.75,5-1.56,11-3.58,15.92-13.93,34.18-40.79,71-19,108.53,11.6,20,26.76,39.73,27.14,62.39.34,20.22-14,28.92-30.45,33.93s-36.27,6.31-50.51,11.8c-9.86,3.8-17,11.88-23.36,21.49-1.59,11.87,1.2,25.11,9.31,33.26,9.87,9.92,19.2,20.21,29.21,31.09,24.08,26.13,43.78,54.17,53.33,92.76,3.93,15.89,32.3-7.23,52.73-2.84,5.12,1.1,9.67,4.55,12.85,8.7a21.12,21.12,0,0,1,3.86,8.07c6.7,15.07,7.74,32.32,10.77,48.8,2.41,13.12,6,25.8,15.07,36.48a49.8,49.8,0,0,0,8.24,7.83,53.4,53.4,0,0,0,25.34,10.06c20,2.49,41-3.73,60.7-1.22,6.94.88,12.69,6.78,19.56,10.21,7.55,6.51,15,14.73,22.48,23.07,22.59,25,45.84,50.1,78.93,36.37,21.58-9,44.25-20.68,64-36.06,8.37-6.49,16.32-13.49,24.07-20.72,1.33-1.24,2.71-2.41,4.12-3.55,13.3-7.58,24.59-15.87,32.81-28,7.28-10.7,12.25-22.81,16.05-35.61,12.85-24,14.07-75.29,38.48-68,71.19,21.37,116.66-29,139.46-87.25,4.78-12.21,9.27-24.59,11.59-37.29a216.81,216.81,0,0,0,3.39-35.51,193.09,193.09,0,0,0-2.47-35.63c-5-12.52-17.07-19.91-28.66-24.76-34.48-14.44-74.41-9.14-108.53-27.2-11.94-6.31-17.21-17.61-17.44-29.75a51.47,51.47,0,0,1,3.58-19.27,57.65,57.65,0,0,1,8.91-14.9c8.7-10.86,16.47-21.07,19.42-34.56,7.49-11.19,18.34-17.67,30.36-22.57a123.88,123.88,0,0,1,19.63-5.65c22.07-4.87,44.78-6,64.55-20,12.67-9,8.82-25.41,1.52-37.27-18.9-30.72-46.1-50.78-62.63-81.47-4.42-8.2-8.62-15.92-11.87-23.05A71.61,71.61,0,0,0,1128,113.65c-6.86-6.29-15.28-10.69-25.54-13.27-12.48-3.15-30.11-.54-36.36-9.43C1023,29.53,955.83,5.19,885.49,16.64a90.23,90.23,0,0,0-10.48,1,88.3,88.3,0,0,0-21.74,6.45c-3.89.37-7.87.79-11.89,1.33q-4.12.55-8.24,1.33a145.37,145.37,0,0,0-39.62,13.65q-5.58,2.89-10.83,6.28a188.27,188.27,0,0,0-24,30.06c-7.2,11-13.64,22.82-20.29,34.77Q734.28,119,730,126.41c-10.93,16.51-22.46,33.41-28.42,53.33-1.2,2.21-4.61,3.34-5.81,2.26C689.6,171.09,680.27,161.57,667.88,162Z"/><path class="cls-1" d="M670.84,167c-36.1,1.47-79.85,28.83-74.77,71.81,1.27,10.82,1.6,21.94,0,32.6-.73,4.87-1.53,10.75-3.5,15.6-13.63,33.54-39.89,69.63-18.57,106.47,11.35,19.61,26.18,39,26.56,61.22.34,19.81-13.66,28.37-29.75,33.32s-35.46,6.25-49.37,11.69c-9.63,3.76-16.7,11.71-23,21.14-1.63,11.64,1,24.61,8.86,32.62,9.57,9.74,18.63,19.87,28.54,30.62,23.71,25.73,43.17,53.3,52.64,91.23,3.89,15.59,31.74-7.14,51.81-2.84,5,1.07,9.5,4.45,12.63,8.54a20.71,20.71,0,0,1,3.8,7.93c6.59,14.8,7.61,31.75,10.58,47.94,2.37,12.9,5.86,25.35,14.79,35.86a49.62,49.62,0,0,0,8.09,7.69,52.6,52.6,0,0,0,24.91,9.88c19.62,2.39,40.27-3.69,59.63-1.21,6.82.88,12.47,6.66,19.22,10,7.43,6.4,14.71,14.46,22.11,22.65,22.21,24.58,45,49.12,77.57,35.77,21.4-8.79,43.79-20.44,63.25-35.75,8.25-6.46,16.11-13.42,23.75-20.59,1.32-1.22,2.68-2.38,4.09-3.5,13.13-7.42,24.42-15.41,32.6-27.41,7.15-10.48,12-22.35,15.75-34.88,12.6-23.5,13.83-73.74,37.71-66.62,69.66,20.75,114.13-28.65,136.38-85.7,4.67-12,9-24.1,11.3-36.54a212.24,212.24,0,0,0,3.27-34.79,190.32,190.32,0,0,0-2.47-34.88c-5-12.26-16.74-19.49-28.1-24.24-33.85-14.17-73.1-9-106.58-26.73-11.72-6.21-16.91-17.29-17.13-29.22a50.43,50.43,0,0,1,3.5-18.92,56.78,56.78,0,0,1,8.76-14.63c8.55-10.64,16.2-20.65,19.14-33.87,7.37-11,18-17.33,29.81-22.17a123.61,123.61,0,0,1,19.22-5.61c21.57-4.85,43.77-6.05,63.09-19.87,12.37-8.86,8.6-25,1.45-36.62-18.52-30.17-45.18-49.92-61.45-80-4.34-8-8.48-15.61-11.69-22.61a70.22,70.22,0,0,0-16.17-22.93c-6.75-6.17-15-10.5-25.08-13-12.26-3.11-29.55-.6-35.7-9.33C1019.86,36.8,954,12.77,884.85,24.07a89.27,89.27,0,0,0-10.3,1,86.81,86.81,0,0,0-21.38,6.33c-3.82.37-7.73.79-11.69,1.32q-4.05.56-8.09,1.33a142.79,142.79,0,0,0-38.92,13.49c-3.65,1.9-7.2,4-10.62,6.2a184.86,184.86,0,0,0-23.57,29.56c-7.07,10.85-13.39,22.46-19.92,34.2-2.71,4.87-5.46,9.75-8.29,14.62-10.79,16.09-22.19,32.59-28.12,52.06-1.19,2.17-4.53,3.27-5.72,2.22C692.16,175.75,683,166.49,670.84,167Z"/><path class="cls-1" d="M673.79,171.94c-35.34,1.59-78.13,28.41-73.2,70.52,1.25,10.61,1.57,21.51,0,32-.72,4.78-1.5,10.54-3.43,15.3-13.33,32.89-39,68.28-18.14,104.4,11.09,19.23,25.6,38.24,26,60,.33,19.41-13.34,27.82-29.06,32.71s-34.64,6.21-48.23,11.59c-9.4,3.73-16.39,11.55-22.62,20.8-1.68,11.4.81,24.1,8.41,32,9.26,9.57,18.07,19.54,27.86,30.16,23.35,25.33,42.57,52.43,52,89.69,3.86,15.31,31.17-7,50.89-2.83,4.93,1,9.33,4.36,12.41,8.38a20.46,20.46,0,0,1,3.74,7.78c6.48,14.54,7.48,31.18,10.4,47.09,2.32,12.67,5.77,24.89,14.51,35.23a49.09,49.09,0,0,0,7.94,7.56A51.6,51.6,0,0,0,717.66,784c19.3,2.31,39.57-3.63,58.58-1.18,6.69.86,12.25,6.53,18.87,9.84,7.31,6.28,14.47,14.19,21.74,22.22C838.68,839,861.09,863,893.05,850c21.24-8.62,43.35-20.2,62.55-35.44,8.15-6.42,15.9-13.34,23.45-20.45,1.29-1.22,2.65-2.36,4.05-3.45,13-7.28,24.25-15,32.39-26.87,7-10.26,11.79-21.89,15.45-34.16,12.35-23,13.58-72.17,37-65.27,68.13,20.13,111.6-28.27,133.3-84.16,4.55-11.71,8.82-23.6,11-35.78a207.77,207.77,0,0,0,3.15-34.06,185.79,185.79,0,0,0-2.48-34.14c-4.86-12-16.41-19.08-27.54-23.73-33.2-13.88-71.78-8.84-104.62-26.26-11.5-6.1-16.6-17-16.82-28.68a49.17,49.17,0,0,1,3.43-18.57,54.81,54.81,0,0,1,8.61-14.35c8.39-10.44,15.92-20.24,18.86-33.19,7.25-10.74,17.71-17,29.25-21.77a121.49,121.49,0,0,1,18.81-5.56c21.08-4.84,42.76-6.13,61.62-19.73,12.08-8.72,8.39-24.51,1.38-36-18.13-29.63-44.25-49.06-60.25-78.61-4.28-7.9-8.34-15.32-11.51-22.18a69.42,69.42,0,0,0-15.91-22.48,56.19,56.19,0,0,0-24.63-12.82c-12-3.07-29-.65-35-9.22C1016.74,44.06,952.08,20.35,884.22,31.5a88.67,88.67,0,0,0-10.14,1,85.5,85.5,0,0,0-21,6.21c-3.76.37-7.6.79-11.49,1.32-2.64.36-5.3.8-8,1.32a139.83,139.83,0,0,0-38.21,13.33q-5.37,2.82-10.42,6.11a182.07,182.07,0,0,0-23.14,29.08c-6.94,10.67-13.15,22.08-19.56,33.63q-4,7.19-8.13,14.37c-10.65,15.67-21.91,31.76-27.82,50.8-1.17,2.12-4.45,3.19-5.62,2.16C694.72,180.41,685.68,171.41,673.79,171.94Z"/><path class="cls-1" d="M676.74,176.9c-34.57,1.7-76.41,28-71.62,69.23,1.21,10.41,1.52,21.09,0,31.33-.71,4.68-1.47,10.32-3.35,15-13,32.25-38.09,66.93-17.72,102.34,10.85,18.85,25,37.49,25.4,58.85.33,19-13,27.28-28.36,32.11S547.23,491.9,534,497.23c-9.18,3.7-16.07,11.39-22.26,20.46-1.72,11.16.62,23.59,8,31.31,8.95,9.39,17.5,19.19,27.18,29.69,23,24.93,42,51.57,51.27,88.16,3.83,15,30.61-6.93,50-2.83a21.6,21.6,0,0,1,12.19,8.22,20.12,20.12,0,0,1,3.68,7.64c6.37,14.27,7.36,30.61,10.22,46.23,2.27,12.44,5.65,24.44,14.22,34.6a47.65,47.65,0,0,0,7.79,7.42,50.56,50.56,0,0,0,24,9.51c19,2.22,38.86-3.58,57.51-1.15,6.58.85,12,6.41,18.54,9.66,7.19,6.15,14.21,13.91,21.36,21.79,21.46,23.65,43.44,47.18,74.84,34.58,21.06-8.45,42.89-20,61.85-35.13,8-6.39,15.68-13.26,23.13-20.32a52,52,0,0,1,4-3.4c12.78-7.13,24.08-14.5,32.19-26.33,6.87-10,11.54-21.42,15.14-33.43,12.1-22.52,13.34-70.6,36.18-63.91,66.61,19.5,109.07-27.9,130.22-82.62,4.44-11.47,8.6-23.11,10.71-35a203.19,203.19,0,0,0,3-33.33,182.27,182.27,0,0,0-2.49-33.4c-4.77-11.72-16.07-18.66-27-23.22-32.57-13.6-70.48-8.69-102.67-25.78-11.28-6-16.29-16.65-16.52-28.15a48.43,48.43,0,0,1,3.37-18.23,53.73,53.73,0,0,1,8.45-14.07c8.24-10.23,15.66-19.82,18.58-32.5,7.13-10.52,17.4-16.66,28.7-21.37a120,120,0,0,1,18.41-5.52c20.57-4.82,41.74-6.19,60.15-19.58,11.78-8.58,8.16-24.05,1.3-35.3-17.75-29.09-43.33-48.21-59.06-77.19-4.2-7.74-8.2-15-11.32-21.74a68.21,68.21,0,0,0-15.65-22,55.67,55.67,0,0,0-24.18-12.6c-11.79-3-28.39-.7-34.36-9.11-41.08-57.9-104.5-81.3-171.12-70.31a90.17,90.17,0,0,0-10,1A83.71,83.71,0,0,0,853,46c-3.69.37-7.46.78-11.28,1.31-2.6.36-5.21.79-7.81,1.3a137.73,137.73,0,0,0-37.51,13.18q-5.26,2.77-10.22,6a179.28,179.28,0,0,0-22.71,28.6c-6.82,10.48-12.92,21.71-19.2,33.06q-3.9,7.05-8,14.13c-10.5,15.24-21.63,30.92-27.51,49.52-1.16,2.07-4.38,3.13-5.54,2.12C697.28,185.08,688.39,176.33,676.74,176.9Z"/><path class="cls-1" d="M679.69,181.86c-33.81,1.82-74.69,27.57-70,67.95a116.7,116.7,0,0,1,0,30.68c-.69,4.59-1.43,10.12-3.28,14.69-12.72,31.6-37.18,65.58-17.29,100.27,10.6,18.47,24.45,36.74,24.82,57.67.34,18.61-12.69,26.74-27.66,31.5s-33,6.11-46,11.39c-9,3.65-15.75,11.21-21.89,20.1-1.76,10.93.43,23.09,7.53,30.66,8.64,9.22,16.93,18.86,26.51,29.24C575,600.52,593.74,626.7,603,662.63c3.78,14.71,30-6.84,49-2.82a21.14,21.14,0,0,1,12,8.05,19.66,19.66,0,0,1,3.62,7.49c6.26,14,7.23,30,10,45.38,2.23,12.22,5.54,24,13.93,34a46.78,46.78,0,0,0,7.65,7.29,49.57,49.57,0,0,0,23.58,9.32c18.63,2.13,38.16-3.53,56.45-1.13,6.46.85,11.82,6.29,18.2,9.48,7.07,6,14,13.64,21,21.37,21.08,23.19,42.64,46.2,73.47,34,20.89-8.28,42.44-19.72,61.16-34.82C961,793.84,968.54,787,975.89,780a47.15,47.15,0,0,1,4-3.35c12.61-7,23.92-14,32-25.78,6.74-9.82,11.31-21,14.84-32.7,11.85-22,13.09-69,35.42-62.57,65.07,18.88,106.54-27.52,127.14-81.07,4.32-11.22,8.36-22.61,10.41-34.28a197.61,197.61,0,0,0,2.9-32.6,176.86,176.86,0,0,0-2.49-32.66c-4.68-11.46-15.74-18.25-26.41-22.7C1141.74,439,1104.51,443.74,1073,427c-11.06-5.88-16-16.33-16.21-27.6a47.4,47.4,0,0,1,3.29-17.89,52.19,52.19,0,0,1,8.31-13.8c8.08-10,15.38-19.4,18.29-31.81,7-10.29,17.08-16.32,28.15-21a121.42,121.42,0,0,1,18-5.48c20.07-4.8,40.72-6.25,58.68-19.43,11.49-8.44,8-23.6,1.24-34.64-17.37-28.54-42.41-47.36-57.87-75.77-4.13-7.58-8.07-14.7-11.15-21.3a66.82,66.82,0,0,0-15.38-21.57,55.06,55.06,0,0,0-23.72-12.38c-11.57-3-27.83-.76-33.7-9-40.39-56.72-102.56-79.81-168-69a86.89,86.89,0,0,0-9.78.94,82.35,82.35,0,0,0-20.29,6c-3.63.37-7.33.78-11.08,1.3-2.55.36-5.11.79-7.66,1.3a134.87,134.87,0,0,0-36.8,13q-5.18,2.75-10,5.94A176.94,176.94,0,0,0,765,102.92c-6.68,10.31-12.67,21.34-18.83,32.49q-3.82,6.94-7.81,13.89C728,164.12,717,179.39,711.16,197.56c-1.14,2-4.3,3.05-5.44,2.07C699.84,189.74,691.1,181.25,679.69,181.86Z"/><path class="cls-1" d="M682.65,186.82c-33,1.94-73,27.15-68.47,66.66a115.29,115.29,0,0,1-.06,30c-.68,4.5-1.41,9.91-3.21,14.39-12.43,30.95-36.28,64.23-16.86,98.2,10.34,18.1,23.86,36,24.24,56.49.33,18.21-12.37,26.2-27,30.9s-32.2,6.05-44.8,11.28c-8.74,3.62-15.45,11.05-21.54,19.76-1.8,10.69.25,22.58,7.09,30,8.34,9,16.37,18.51,25.83,28.77,22.24,24.11,40.75,49.82,49.91,85.08,3.75,14.43,29.47-6.73,48.12-2.81a20.77,20.77,0,0,1,11.75,7.88,19.57,19.57,0,0,1,3.56,7.36c6.15,13.74,7.11,29.48,9.85,44.52,2.19,12,5.43,23.55,13.66,33.34a45,45,0,0,0,7.5,7.16A48.53,48.53,0,0,0,725.39,765c18.29,2,37.45-3.47,55.38-1.1,6.34.84,11.61,6.16,17.87,9.29,6.94,5.92,13.72,13.37,20.61,20.94,20.7,22.73,41.84,45.24,72.11,33.39,20.71-8.11,42-19.48,60.45-34.51,7.82-6.32,15.25-13.1,22.51-20a43,43,0,0,1,3.95-3.31c12.44-6.82,23.75-13.58,31.77-25.24,6.6-9.59,11.08-20.48,14.54-32,11.6-21.56,12.85-67.48,34.65-61.22,63.55,18.26,104-27.15,124.06-79.52,4.21-11,8.14-22.12,10.12-33.52a193.35,193.35,0,0,0,2.78-31.88,174,174,0,0,0-2.49-31.91c-4.6-11.2-15.41-17.84-25.85-22.2-31.3-13.05-67.85-8.39-98.76-24.84-10.84-5.77-15.67-16-15.9-27.07a46.37,46.37,0,0,1,3.22-17.54,51.28,51.28,0,0,1,8.15-13.53c7.93-9.81,15.12-19,18-31.12,6.9-10.07,16.77-16,27.61-20.58a121.08,121.08,0,0,1,17.59-5.43c19.57-4.78,39.7-6.31,57.2-19.28,11.2-8.3,7.74-23.15,1.17-34-17-28-41.48-46.5-56.68-74.34-4-7.42-7.92-14.4-11-20.86a65.88,65.88,0,0,0-15.12-21.12,54.38,54.38,0,0,0-23.27-12.15c-11.33-2.95-27.25-.81-33-8.9-39.7-55.55-100.62-78.33-164.78-67.64a85.75,85.75,0,0,0-9.6.91,80.86,80.86,0,0,0-19.93,5.85c-3.56.37-7.2.78-10.87,1.3q-3.76.54-7.53,1.29A132.14,132.14,0,0,0,798.28,76c-3.37,1.8-6.66,3.75-9.83,5.85a173.59,173.59,0,0,0-21.86,27.62c-6.56,10.13-12.43,21-18.46,31.92-2.51,4.54-5,9.1-7.66,13.64-10.22,14.4-21.08,29.26-26.91,47-1.13,2-4.21,3-5.35,2C702.4,194.4,693.81,186.17,682.65,186.82Z"/><path class="cls-1" d="M685.6,191.78c-32.29,2.06-71.26,26.72-66.89,65.38a113,113,0,0,1-.08,29.4c-.66,4.4-1.37,9.69-3.13,14.08-12.13,30.31-35.38,62.88-16.44,96.13,10.1,17.72,23.29,35.25,23.66,55.31.33,17.81-12,25.65-26.27,30.29s-31.39,6-43.66,11.18c-8.51,3.59-15.13,10.88-21.17,19.41-1.84,10.46,0,22.08,6.64,29.36,8,8.87,15.81,18.18,25.16,28.31,21.87,23.71,40.13,49,49.22,83.55,3.72,14.13,28.91-6.64,47.2-2.81a20.37,20.37,0,0,1,11.53,7.72,19.18,19.18,0,0,1,3.5,7.21c6,13.48,7,28.92,9.67,43.67,2.14,11.76,5.32,23.1,13.37,32.71a44.41,44.41,0,0,0,7.35,7,47.64,47.64,0,0,0,22.71,9c18,1.94,36.74-3.43,54.32-1.08,6.21.82,11.38,6,17.52,9.1,6.82,5.8,13.48,13.1,20.25,20.52,20.31,22.27,41,44.27,70.73,32.79,20.55-7.94,41.54-19.24,59.76-34.2,7.7-6.28,15-13,22.19-19.92a38,38,0,0,1,3.92-3.25c12.27-6.68,23.58-13.13,31.56-24.7,6.47-9.37,10.85-20,14.24-31.25,11.35-21.07,12.6-65.91,33.88-59.86,62,17.63,101.49-26.78,121-78,4.09-10.74,7.91-21.63,9.82-32.77a188.77,188.77,0,0,0,2.66-31.15,169.5,169.5,0,0,0-2.5-31.17c-4.5-10.94-15.08-17.43-25.29-21.68-30.66-12.78-66.54-8.25-96.8-24.38-10.62-5.66-15.37-15.69-15.6-26.53a45.55,45.55,0,0,1,3.16-17.19,50.11,50.11,0,0,1,8-13.26c7.78-9.59,14.85-18.57,17.74-30.43,6.78-9.85,16.45-15.65,27-20.18a120.4,120.4,0,0,1,17.18-5.39c19.07-4.76,38.69-6.38,55.74-19.13,10.9-8.16,7.52-22.7,1.09-33.33-16.6-27.45-40.55-45.65-55.48-72.91-4-7.27-7.79-14.1-10.78-20.43a64.83,64.83,0,0,0-14.86-20.67,53.7,53.7,0,0,0-22.82-11.92c-11.1-2.91-26.68-.87-32.36-8.8-39-54.37-98.69-76.84-161.6-66.3a82.51,82.51,0,0,0-9.43.89,79,79,0,0,0-19.57,5.72c-3.5.37-7.06.78-10.67,1.29q-3.69.54-7.38,1.28A129.7,129.7,0,0,0,799.23,83.1c-3.3,1.78-6.52,3.7-9.63,5.77A170.27,170.27,0,0,0,768.17,116c-6.44,10-12.19,20.59-18.1,31.34q-3.69,6.71-7.5,13.41c-10.08,14-20.81,28.42-26.6,45.72-1.12,1.92-4.14,2.9-5.26,2C705,199.06,696.52,191.09,685.6,191.78Z"/><path class="cls-1" d="M688.55,196.74C657,198.91,619,223,623.24,260.83a111.62,111.62,0,0,1-.09,28.76c-.65,4.31-1.35,9.48-3.06,13.78-11.83,29.66-34.48,61.53-16,94.07,9.84,17.34,22.7,34.5,23.07,54.12.34,17.41-11.72,25.11-25.57,29.69S571,487.2,559.06,492.32c-8.29,3.55-14.81,10.72-20.8,19.07-1.89,10.22-.14,21.57,6.2,28.71,7.71,8.69,15.23,17.84,24.47,27.85,21.51,23.3,39.53,48.08,48.54,82,3.68,13.84,28.35-6.54,46.28-2.81a19.94,19.94,0,0,1,11.31,7.56,18.76,18.76,0,0,1,3.44,7.07c5.93,13.21,6.86,28.34,9.49,42.81,2.09,11.54,5.2,22.65,13.09,32.08a42.69,42.69,0,0,0,7.2,6.89,46.65,46.65,0,0,0,22.26,8.77c17.63,1.86,36-3.37,53.26-1.06,6.09.82,11.17,5.91,17.19,8.93,6.69,5.67,13.23,12.82,19.87,20.08,19.94,21.81,40.24,43.31,69.37,32.2,20.37-7.77,41.08-19,59-33.89,7.6-6.24,14.81-13,21.89-19.79a34,34,0,0,1,3.88-3.2c12.09-6.52,23.41-12.67,31.35-24.15,6.34-9.15,10.62-19.56,13.94-30.52,11.11-20.59,12.36-64.35,33.12-58.52,60.49,17,99-26.4,117.9-76.43,4-10.49,7.69-21.14,9.53-32a184.29,184.29,0,0,0,2.54-30.42,165,165,0,0,0-2.51-30.43c-4.41-10.67-14.74-17-24.73-21.17-30-12.49-65.22-8.1-94.84-23.9-10.4-5.55-15.06-15.37-15.29-26a44.59,44.59,0,0,1,3.08-16.85,48.68,48.68,0,0,1,7.85-13c7.63-9.38,14.58-18.15,17.45-29.74,6.66-9.62,16.14-15.31,26.5-19.78a120.73,120.73,0,0,1,16.77-5.35c18.58-4.74,37.67-6.44,54.27-19,10.61-8,7.3-22.25,1-32.67-16.21-26.91-39.62-44.8-54.29-71.49-3.91-7.11-7.65-13.8-10.59-20a63.47,63.47,0,0,0-14.6-20.21,52.89,52.89,0,0,0-22.36-11.7c-10.88-2.88-26.11-.93-31.71-8.7-38.31-53.19-96.74-75.36-158.42-65a82,82,0,0,0-9.26.87,77.33,77.33,0,0,0-19.2,5.61c-3.43.36-6.93.77-10.47,1.28-2.41.35-4.83.78-7.23,1.27a126.43,126.43,0,0,0-34.68,12.56c-3.24,1.74-6.39,3.64-9.44,5.67a167.4,167.4,0,0,0-21,26.64c-6.31,9.77-12,20.22-17.74,30.78-2.4,4.38-4.84,8.78-7.34,13.16-9.93,13.55-20.53,27.59-26.3,44.45-1.1,1.88-4.06,2.84-5.17,1.94C707.52,203.73,699.23,196,688.55,196.74Z"/><path class="cls-1" d="M691.51,201.7c-30.76,2.29-67.83,25.88-63.74,62.81a109.35,109.35,0,0,1-.11,28.12c-.63,4.21-1.31,9.27-3,13.47-11.53,29-33.58,60.18-15.59,92,9.59,17,22.13,33.76,22.5,52.95.33,17-11.4,24.56-24.88,29.08s-29.77,5.9-41.38,11c-8.06,3.52-14.49,10.55-20.44,18.72-1.92,10-.32,21.07,5.76,28.06,7.41,8.52,14.67,17.5,23.8,27.39,21.13,22.9,38.92,47.21,47.86,80.47,3.64,13.55,27.77-6.43,45.35-2.79a19.43,19.43,0,0,1,11.09,7.39,18.52,18.52,0,0,1,3.38,6.92c5.82,13,6.73,27.78,9.31,42,2,11.31,5.09,22.21,12.8,31.45a42.12,42.12,0,0,0,7,6.76A45.69,45.69,0,0,0,733.12,746c17.29,1.77,35.33-3.32,52.19-1,6,.81,11,5.78,16.85,8.74,6.57,5.56,13,12.55,19.5,19.66,19.56,21.35,39.44,42.35,68,31.6A203,203,0,0,0,948,771.39c7.48-6.21,14.59-12.89,21.57-19.65a31.39,31.39,0,0,1,3.85-3.16c11.92-6.37,23.24-12.21,31.15-23.61,6.19-8.92,10.37-19.09,13.63-29.79,10.86-20.1,12.11-62.79,32.35-57.17,59,16.39,96.43-26,114.83-74.88,3.85-10.25,7.45-20.64,9.24-31.27a180.8,180.8,0,0,0,2.41-29.69,161.39,161.39,0,0,0-2.52-29.69c-4.32-10.41-14.4-16.6-24.16-20.65-29.39-12.22-63.92-7.95-92.88-23.44-10.19-5.44-14.76-15.05-15-25.45a43.58,43.58,0,0,1,3-16.51,47.77,47.77,0,0,1,7.69-12.71c7.48-9.17,14.31-17.73,17.17-29.05,6.55-9.4,15.82-15,26-19.38a120,120,0,0,1,16.37-5.31c18.07-4.72,36.65-6.5,52.79-18.83,10.32-7.88,7.09-21.8,1-32-15.83-26.37-38.71-43.95-53.1-70.07-3.84-6.95-7.51-13.49-10.42-19.55a62.51,62.51,0,0,0-14.33-19.76,52.34,52.34,0,0,0-21.91-11.47c-10.65-2.84-25.54-1-31-8.59-37.62-52-94.81-73.88-155.25-63.64a81.09,81.09,0,0,0-9.08.84,75.84,75.84,0,0,0-18.84,5.49c-3.37.36-6.8.76-10.26,1.27q-3.56.54-7.1,1.27a123.82,123.82,0,0,0-34,12.4c-3.17,1.72-6.26,3.58-9.23,5.59a164.07,164.07,0,0,0-20.59,26.15c-6.18,9.59-11.7,19.84-17.37,30.2-2.35,4.31-4.74,8.63-7.18,12.92-9.79,13.13-20.26,26.76-26,43.18-1.09,1.83-4,2.77-5.08,1.89C710.08,208.39,701.94,200.93,691.51,201.7Z"/><path class="cls-1" d="M694.46,206.66c-30,2.41-66.11,25.46-62.16,61.52a107.53,107.53,0,0,1-.13,27.48c-.62,4.12-1.28,9.06-2.9,13.17C618,337.2,596.59,367.66,614.1,398.76c9.35,16.59,21.55,33,21.92,51.77.33,16.61-11.07,24-24.18,28.47s-29,5.85-40.23,10.86c-7.85,3.49-14.19,10.39-20.08,18.38-2,9.75-.51,20.55,5.31,27.41C563.94,544,571,552.81,580,562.57c20.77,22.49,38.32,46.34,47.18,78.94,3.6,13.25,27.21-6.34,44.43-2.79A19,19,0,0,1,682.44,646a18.18,18.18,0,0,1,3.32,6.78c5.71,12.68,6.61,27.21,9.12,41.1,2,11.08,5,21.76,12.52,30.83a40.77,40.77,0,0,0,6.91,6.61,44.62,44.62,0,0,0,21.38,8.4c17,1.68,34.62-3.26,51.13-1,5.86.8,10.74,5.66,16.51,8.55,6.45,5.44,12.74,12.28,19.13,19.24,19.18,20.88,38.65,41.38,66.64,31a196.19,196.19,0,0,0,57.66-33.27c7.36-6.19,14.37-12.81,21.25-19.52a30,30,0,0,1,3.82-3.11c11.75-6.22,23.07-11.75,30.94-23.06,6.06-8.71,10.14-18.62,13.33-29.07,10.61-19.62,11.87-61.22,31.58-55.81,57.45,15.76,93.9-25.65,111.75-73.35,3.74-10,7.23-20.14,9-30.51a175.13,175.13,0,0,0,2.28-29,156.13,156.13,0,0,0-2.51-28.95c-4.24-10.14-14.08-16.18-23.61-20.14-28.75-11.94-62.6-7.8-90.92-23-10-5.33-14.45-14.73-14.68-24.92a42.55,42.55,0,0,1,2.94-16.16,46.24,46.24,0,0,1,7.53-12.43c7.33-9,14-17.33,16.9-28.37,6.42-9.17,15.5-14.64,25.39-19a117.68,117.68,0,0,1,16-5.26c17.58-4.7,35.64-6.58,51.33-18.69,10-7.74,6.87-21.35.88-31.36-15.45-25.82-37.78-43.09-51.91-68.63-3.76-6.8-7.37-13.2-10.23-19.12a61.47,61.47,0,0,0-14.07-19.31,51.74,51.74,0,0,0-21.46-11.24c-10.41-2.8-25-1-30.37-8.49C994.9,94.94,939,73.4,879.75,83.49a77.89,77.89,0,0,0-8.9.82,74,74,0,0,0-18.48,5.36c-3.3.36-6.66.76-10.06,1.27q-3.48.53-6.95,1.25a121.38,121.38,0,0,0-33.27,12.25c-3.1,1.69-6.12,3.53-9,5.5A161.65,161.65,0,0,0,772.9,135.6c-6,9.42-11.46,19.48-17,29.64-2.31,4.22-4.64,8.46-7,12.68-9.65,12.69-20,25.92-25.69,41.91-1.07,1.78-3.91,2.69-5,1.84C712.64,213.05,704.65,205.84,694.46,206.66Z"/><path class="cls-1" d="M697.41,211.62c-29.23,2.52-64.39,25-60.58,60.23a105.71,105.71,0,0,1-.14,26.84c-.61,4-1.25,8.85-2.84,12.87-10.93,27.72-31.77,57.48-14.73,87.87,9.09,16.21,21,32.26,21.34,50.58.32,16.21-10.75,23.47-23.49,27.87s-28.14,5.8-39.09,10.76c-7.63,3.45-13.87,10.21-19.71,18-2,9.52-.71,20,4.87,26.75,6.79,8.17,13.53,16.83,22.44,26.47,20.4,22.08,37.7,45.46,46.49,77.39,3.57,13,26.64-6.23,43.51-2.78a18.69,18.69,0,0,1,10.66,7.07,17.84,17.84,0,0,1,3.25,6.63c5.61,12.42,6.48,26.65,8.94,40.25,2,10.86,4.87,21.31,12.24,30.2a39.83,39.83,0,0,0,6.76,6.48,43.62,43.62,0,0,0,20.94,8.21c16.63,1.59,33.91-3.21,50.07-1,5.73.79,10.52,5.54,16.17,8.38,6.32,5.31,12.49,12,18.75,18.8C842.07,780,861.12,800,888.53,790a188.82,188.82,0,0,0,57-33c7.25-6.15,14.16-12.73,21-19.39a27.19,27.19,0,0,1,3.78-3.06c11.58-6.06,22.9-11.29,30.73-22.51,5.92-8.49,9.91-18.16,13-28.34,10.36-19.14,11.62-59.66,30.82-54.47,55.91,15.13,91.37-25.27,108.67-71.8,3.62-9.75,7-19.65,8.65-29.76a170.65,170.65,0,0,0,2.16-28.23,152.29,152.29,0,0,0-2.52-28.2c-4.15-9.89-13.74-15.78-23-19.64-28.12-11.66-61.29-7.65-89-22.49-9.74-5.22-14.14-14.41-14.38-24.38a41.73,41.73,0,0,1,2.88-15.81,44.7,44.7,0,0,1,7.38-12.16c7.17-8.75,13.77-16.91,16.61-27.68,6.3-8.95,15.19-14.3,24.84-18.58a119,119,0,0,1,15.56-5.22c17.07-4.68,34.62-6.64,49.85-18.54,9.74-7.6,6.65-20.9.81-30.7-15.06-25.28-36.85-42.24-50.71-67.21-3.69-6.65-7.24-12.89-10-18.68a60.1,60.1,0,0,0-13.82-18.85,50.9,50.9,0,0,0-21-11c-10.19-2.77-24.39-1.1-29.71-8.38-36.24-49.68-90.93-70.91-148.9-61a76.92,76.92,0,0,0-8.73.79A72.66,72.66,0,0,0,852.27,97c-3.24.36-6.53.76-9.85,1.27-2.27.34-4.55.76-6.81,1.24A118.72,118.72,0,0,0,803,111.55q-4.54,2.51-8.83,5.41a158.87,158.87,0,0,0-19.73,25.18c-5.93,9.24-11.23,19.1-16.64,29.06q-3.37,6.23-6.88,12.44c-9.5,12.27-19.69,25.09-25.38,40.64-1.06,1.73-3.83,2.62-4.89,1.8C715.2,217.71,707.36,210.76,697.41,211.62Z"/><path class="cls-1" d="M700.36,216.58c-28.46,2.64-62.67,24.62-59,58.95a103.45,103.45,0,0,1-.16,26.2c-.59,3.93-1.22,8.64-2.76,12.56-10.63,27.08-30.87,56.13-14.31,85.8,8.84,15.83,20.39,31.51,20.76,49.4.33,15.81-10.42,22.93-22.79,27.26s-27.33,5.76-38,10.66c-7.4,3.41-13.55,10-19.35,17.68-2,9.29-.89,19.54,4.43,26.11,6.48,8,13,16.48,21.76,26,20,21.68,37.1,44.6,45.81,75.86,3.54,12.67,26.08-6.14,42.59-2.78a18.29,18.29,0,0,1,10.44,6.91,17.5,17.5,0,0,1,3.19,6.49c5.5,12.15,6.36,26.07,8.76,39.39,1.91,10.63,4.75,20.87,12,29.57a38.88,38.88,0,0,0,6.61,6.35,42.78,42.78,0,0,0,20.51,8c16.29,1.49,33.2-3.16,49-1,5.61.78,10.3,5.41,15.83,8.19,6.2,5.2,12.25,11.73,18.38,18.38,18.43,20,37.07,39.47,63.91,29.82a181.73,181.73,0,0,0,56.26-32.66c7.14-6.11,13.94-12.66,20.63-19.25a24.61,24.61,0,0,1,3.75-3c11.41-5.92,22.73-10.84,30.52-22,5.78-8.26,9.68-17.69,12.73-27.61,10.11-18.65,11.38-58.1,30.05-53.11,54.39,14.5,88.84-24.9,105.59-70.26,3.51-9.51,6.78-19.15,8.36-29a167.17,167.17,0,0,0,2-27.5,147.85,147.85,0,0,0-2.53-27.46c-4-9.62-13.41-15.37-22.48-19.12-27.48-11.38-60-7.5-87-22-9.52-5.12-13.84-14.09-14.07-23.85a40.77,40.77,0,0,1,2.8-15.47,43.91,43.91,0,0,1,7.23-11.88c7-8.54,13.51-16.49,16.33-27,6.19-8.72,14.88-14,24.29-18.18a118.42,118.42,0,0,1,15.15-5.18c16.57-4.66,33.6-6.7,48.38-18.39,9.45-7.46,6.44-20.45.75-30-14.68-24.74-35.93-41.39-49.53-65.79-3.61-6.49-7.09-12.58-9.87-18.24a59,59,0,0,0-13.55-18.4,50.25,50.25,0,0,0-20.54-10.79c-10-2.73-23.82-1.15-29-8.28-35.55-48.5-89-69.42-145.73-59.64a76.43,76.43,0,0,0-8.56.77,71.27,71.27,0,0,0-17.75,5.13c-3.17.35-6.39.75-9.65,1.25-2.22.35-4.45.76-6.67,1.24A116.14,116.14,0,0,0,804,118.66q-4.46,2.46-8.64,5.33a155.16,155.16,0,0,0-19.31,24.69c-5.8,9-11,18.73-16.27,28.49-2.2,4.06-4.43,8.14-6.72,12.19-9.35,11.85-19.42,24.26-25.07,39.38-1,1.68-3.76,2.54-4.8,1.75C717.76,222.38,710.08,215.68,700.36,216.58Z"/><path class="cls-1" d="M703.32,221.54c-27.71,2.75-61,24.2-57.43,57.66a101.19,101.19,0,0,1-.18,25.56c-.57,3.84-1.18,8.43-2.68,12.26-10.33,26.43-30,54.78-13.88,83.73,8.59,15.46,19.8,30.77,20.17,48.22.33,15.41-10.1,22.38-22.09,26.66s-26.52,5.7-36.81,10.55c-7.18,3.38-13.24,9.88-19,17.34-2.1,9.05-1.08,19,4,25.45,6.18,7.83,12.41,16.15,21.09,25.54,19.66,21.28,36.49,43.73,45.13,74.33,3.49,12.37,25.51-6,41.66-2.78a17.86,17.86,0,0,1,10.22,6.75,17.5,17.5,0,0,1,3.13,6.34c5.39,11.89,6.23,25.51,8.58,38.54,1.86,10.4,4.64,20.42,11.67,28.94a37.16,37.16,0,0,0,6.46,6.21,41.71,41.71,0,0,0,20.06,7.85c16,1.41,32.5-3.11,47.94-.93,5.49.77,10.09,5.28,15.5,8,6.07,5.08,12,11.46,18,18,18,19.5,36.28,38.52,62.54,29.23A174.84,174.84,0,0,0,943,742.59c7-6.08,13.72-12.58,20.31-19.12a24.06,24.06,0,0,1,3.72-3c11.23-5.76,22.56-10.38,30.31-21.43,5.65-8,9.45-17.23,12.43-26.89,9.86-18.16,11.13-56.53,29.28-51.76,52.86,13.88,86.32-24.52,102.52-68.71,3.39-9.26,6.54-18.66,8.06-28.26a162.69,162.69,0,0,0,1.92-26.77A144.26,144.26,0,0,0,1149,470c-4-9.35-13.07-15-21.91-18.61-26.85-11.1-58.67-7.35-85.06-21.55-9.3-5-13.53-13.77-13.76-23.31a39.74,39.74,0,0,1,2.73-15.12,42.6,42.6,0,0,1,7.07-11.61c6.87-8.33,13.24-16.07,16-26.3,6.07-8.5,14.56-13.62,23.75-17.78a117.4,117.4,0,0,1,14.74-5.14c16.07-4.64,32.58-6.76,46.91-18.24,9.15-7.32,6.22-20,.67-29.38-14.3-24.2-35-40.54-48.33-64.36-3.55-6.34-7-12.29-9.69-17.81a57.68,57.68,0,0,0-13.29-17.94,49.57,49.57,0,0,0-20.09-10.57c-9.73-2.69-23.24-1.21-28.37-8.18-34.85-47.32-87.06-67.93-142.56-58.3a75.56,75.56,0,0,0-8.38.75,69.45,69.45,0,0,0-17.39,5c-3.1.35-6.26.75-9.44,1.25q-3.27.51-6.53,1.22A113.39,113.39,0,0,0,805,125.77q-4.35,2.43-8.44,5.24a152.75,152.75,0,0,0-18.88,24.2c-5.67,8.88-10.74,18.36-15.91,27.92q-3.22,6-6.56,12C746,206.51,736,218.51,730.39,233.19c-1,1.63-3.68,2.48-4.71,1.71C720.32,227,712.79,220.6,703.32,221.54Z"/><path class="cls-1" d="M706.27,226.5c-26.94,2.87-59.24,23.77-55.85,56.38a99.87,99.87,0,0,1-.19,24.92c-.56,3.74-1.16,8.21-2.61,11.95-10,25.78-29.07,53.43-13.46,81.66,8.34,15.09,19.23,30,19.6,47,.32,15-9.78,21.84-21.4,26.05s-25.71,5.66-35.67,10.45c-7,3.35-12.92,9.72-18.61,17-2.14,8.82-1.28,18.54,3.54,24.81,5.86,7.65,11.83,15.8,20.41,25.07,19.29,20.88,35.87,42.86,44.44,72.79,3.46,12.09,24.94-5.93,40.74-2.76a17.46,17.46,0,0,1,10,6.57,16.94,16.94,0,0,1,3.06,6.21c5.29,11.62,6.12,24.94,8.4,37.68,1.83,10.18,4.54,20,11.39,28.31a36.21,36.21,0,0,0,6.31,6.08A40.84,40.84,0,0,0,746,714.36c15.63,1.32,31.79-3.05,46.87-.91,5.38.77,9.88,5.16,15.16,7.82,6,5,11.75,11.19,17.64,17.53,17.67,19,35.48,37.57,61.17,28.63a168.13,168.13,0,0,0,54.86-32c6.92-6,13.51-12.5,20-19a22,22,0,0,1,3.68-2.91c11.06-5.61,22.39-9.92,30.11-20.89,5.5-7.82,9.2-16.76,12.13-26.15,9.6-17.69,10.88-55,28.51-50.42,51.33,13.26,83.78-24.14,99.43-67.16,3.28-9,6.32-18.17,7.77-27.51a158.13,158.13,0,0,0,1.8-26,140.67,140.67,0,0,0-2.54-26c-3.88-9.09-12.75-14.54-21.36-18.09-26.21-10.83-57.35-7.21-83.1-21.08-9.08-4.9-13.22-13.45-13.46-22.77a38.93,38.93,0,0,1,2.67-14.78,41.23,41.23,0,0,1,6.92-11.34c6.71-8.12,13-15.66,15.77-25.61,6-8.28,14.24-13.29,23.19-17.39a122.2,122.2,0,0,1,14.33-5.09c15.57-4.62,31.57-6.83,45.44-18.09,8.86-7.18,6-19.55.6-28.73-13.91-23.64-34.08-39.67-47.14-62.93-3.47-6.18-6.82-12-9.5-17.37a56.77,56.77,0,0,0-13-17.49,49,49,0,0,0-19.63-10.34c-9.5-2.66-22.68-1.27-27.71-8.07-34.16-46.15-85.13-66.45-139.39-57a72.09,72.09,0,0,0-8.2.72,68.09,68.09,0,0,0-17,4.88c-3,.35-6.13.75-9.24,1.24-2.13.35-4.26.75-6.38,1.22a111.05,111.05,0,0,0-30.45,11.62q-4.24,2.38-8.24,5.16a149.88,149.88,0,0,0-18.45,23.71c-5.55,8.7-10.5,18-15.54,27.35-2.11,3.9-4.23,7.82-6.41,11.71-9.07,11-18.87,22.59-24.46,36.84-1,1.58-3.61,2.4-4.62,1.65C722.88,231.7,715.5,225.52,706.27,226.5Z"/><path class="cls-1" d="M709.22,231.46c-26.17,3-57.52,23.35-54.27,55.09a97.61,97.61,0,0,1-.21,24.28c-.54,3.65-1.12,8-2.53,11.65-9.74,25.14-28.17,52.08-13,79.6,8.08,14.7,18.64,29.27,19,45.85.33,14.61-9.45,21.3-20.7,25.45S612.59,479,603,483.72c-6.74,3.32-12.61,9.56-18.26,16.65-2.18,8.58-1.46,18,3.1,24.15,5.56,7.48,11.27,15.47,19.73,24.62,18.93,20.46,35.27,42,43.76,71.25,3.42,11.79,24.38-5.84,39.81-2.76A17,17,0,0,1,700.9,624a16.63,16.63,0,0,1,3,6.06c5.18,11.36,6,24.38,8.22,36.83,1.78,10,4.42,19.53,11.1,27.68a35.35,35.35,0,0,0,6.17,5.95A40,40,0,0,0,748.57,708c15.3,1.23,31.09-3,45.81-.88,5.26.75,9.66,5,14.82,7.64,5.83,4.83,11.51,10.91,17.27,17.1,17.29,18.57,34.69,36.62,59.8,28a161.75,161.75,0,0,0,54.17-31.73c6.8-6,13.29-12.42,19.69-18.85a20.25,20.25,0,0,1,3.65-2.87C974.67,701,986,697,993.68,686.13c5.37-7.6,9-16.3,11.83-25.43,9.35-17.2,10.63-53.41,27.74-49.06,49.8,12.63,81.26-23.78,96.36-65.62,3.16-8.77,6.09-17.68,7.47-26.76a152.6,152.6,0,0,0,1.67-25.32,135.27,135.27,0,0,0-2.54-25.23c-3.79-8.82-12.41-14.12-20.79-17.58-25.58-10.55-56.05-7.05-81.15-20.61-8.86-4.78-12.91-13.12-13.15-22.23a37.89,37.89,0,0,1,2.59-14.43,40.43,40.43,0,0,1,6.77-11.07c6.56-7.91,12.7-15.24,15.49-24.92,5.83-8.05,13.93-12.95,22.64-17a123,123,0,0,1,13.92-5.05c15.08-4.6,30.55-6.89,44-17.94,8.57-7,5.79-19.1.54-28.07-13.53-23.1-33.16-38.82-46-61.51-3.4-6-6.68-11.68-9.32-16.92a55.83,55.83,0,0,0-12.77-17,48.46,48.46,0,0,0-19.18-10.11c-9.27-2.62-22.1-1.32-27-8-33.46-45-83.18-65-136.2-55.63a73.54,73.54,0,0,0-8,.69,66.73,66.73,0,0,0-16.67,4.76c-3,.35-6,.75-9,1.24q-3.12.51-6.24,1.21A107.84,107.84,0,0,0,806.86,140q-4.15,2.35-8.05,5.07a147.11,147.11,0,0,0-18,23.23c-5.42,8.52-10.26,17.61-15.18,26.77q-3.08,5.74-6.25,11.47c-8.93,10.58-18.59,21.76-24.16,35.57-1,1.54-3.53,2.33-4.53,1.61C725.44,236.36,718.21,230.44,709.22,231.46Z"/><path class="cls-1" d="M712.18,236.42c-25.41,3.1-55.81,22.93-52.7,53.81a95.86,95.86,0,0,1-.23,23.64c-.53,3.55-1.09,7.79-2.46,11.34-9.43,24.49-27.26,50.73-12.6,77.53,7.83,14.33,18.07,28.53,18.44,44.68.32,14.2-9.13,20.75-20,24.83s-24.08,5.56-33.38,10.24c-6.52,3.28-12.3,9.39-17.89,16.3-2.23,8.35-1.65,17.53,2.65,23.51,5.26,7.3,10.71,15.13,19.06,24.15,18.56,20.06,34.66,41.11,43.07,69.72,3.39,11.5,23.82-5.74,38.89-2.76a16.65,16.65,0,0,1,9.57,6.25,16.36,16.36,0,0,1,2.94,5.92c5.07,11.09,5.87,23.8,8,36,1.73,9.72,4.31,19.08,10.82,27.05a34,34,0,0,0,6,5.81,39,39,0,0,0,18.74,7.3c15,1.13,30.38-3,44.75-.86,5.13.74,9.44,4.91,14.48,7.45,5.7,4.72,11.26,10.64,16.89,16.67,16.91,18.11,33.91,35.68,58.44,27.44A155.28,155.28,0,0,0,939.17,721c6.7-6,13.08-12.35,19.39-18.72a19.38,19.38,0,0,1,3.61-2.82c10.72-5.3,22.05-9,29.69-19.79,5.23-7.38,8.74-15.83,11.53-24.71,9.11-16.71,10.39-51.84,27-47.71,48.27,12,78.72-23.4,93.27-64.07,3-8.53,5.87-17.18,7.18-26a147.05,147.05,0,0,0,1.55-24.59,131.58,131.58,0,0,0-2.55-24.48c-3.7-8.57-12.08-13.72-20.23-17.07-24.94-10.28-54.73-6.91-79.19-20.14-8.64-4.68-12.61-12.81-12.84-21.7a36.86,36.86,0,0,1,2.52-14.08,38.83,38.83,0,0,1,6.62-10.8c6.4-7.69,12.42-14.82,15.2-24.23,5.72-7.83,13.62-12.61,22.09-16.59a120.64,120.64,0,0,1,13.52-5c14.57-4.59,29.53-7,42.5-17.8,8.27-6.9,5.57-18.64.46-27.41-13.15-22.56-32.23-38-44.76-60.09-3.32-5.86-6.54-11.37-9.14-16.48a54.42,54.42,0,0,0-12.5-16.59,47.83,47.83,0,0,0-18.73-9.9c-9-2.57-21.52-1.37-26.38-7.86-32.77-43.8-81.24-63.47-133-54.3a70.31,70.31,0,0,0-7.85.68,65,65,0,0,0-16.32,4.64c-2.9.34-5.85.74-8.82,1.22-2,.34-4.08.74-6.1,1.2a105.85,105.85,0,0,0-29,11.31q-4,2.31-7.84,5a143.23,143.23,0,0,0-17.61,22.73c-5.29,8.34-10,17.24-14.81,26.21-2,3.74-4,7.5-6.09,11.22-8.78,10.16-18.32,20.93-23.86,34.3-1,1.49-3.44,2.26-4.43,1.57C728,241,720.92,235.36,712.18,236.42Z"/><path class="cls-1" d="M715.13,241.38C690.49,244.59,661,263.89,664,293.9a94.1,94.1,0,0,1-.24,23,54.3,54.3,0,0,1-2.39,11c-9.13,23.85-26.36,49.39-12.18,75.47,7.59,14,17.49,27.78,17.86,43.5.32,13.8-8.82,20.18-19.31,24.23s-23.27,5.51-32.24,10.13c-6.29,3.25-12,9.23-17.52,16-2.27,8.11-1.84,17,2.2,22.85,4.95,7.13,10.14,14.79,18.38,23.69,18.19,19.66,34,40.24,42.4,68.18,3.34,11.21,23.24-5.64,38-2.75a16.2,16.2,0,0,1,9.35,6.09,16,16,0,0,1,2.88,5.77c5,10.83,5.74,23.24,7.86,35.12,1.68,9.5,4.19,18.63,10.53,26.42a33.43,33.43,0,0,0,5.87,5.68,38,38,0,0,0,18.31,7.11c14.63,1,29.67-2.9,43.68-.84,5,.74,9.22,4.79,14.14,7.27,5.58,4.6,11,10.37,16.52,16.25,16.54,17.65,33.12,34.73,57.07,26.84a149.23,149.23,0,0,0,52.77-31.11c6.59-5.94,12.86-12.27,19.07-18.59a18.09,18.09,0,0,1,3.58-2.76c10.54-5.16,21.88-8.56,29.48-19.26,5.09-7.16,8.51-15.36,11.23-24,8.86-16.23,10.14-50.28,26.21-46.37,46.74,11.39,76.2-23,90.2-62.53,2.93-8.28,5.63-16.68,6.88-25.25A142.5,142.5,0,0,0,1126,491.2a127.07,127.07,0,0,0-2.56-23.74c-3.6-8.3-11.74-13.3-19.67-16.56-24.3-10-53.41-6.76-77.23-19.67-8.42-4.56-12.3-12.48-12.53-21.16a35.88,35.88,0,0,1,2.45-13.74,37.77,37.77,0,0,1,6.46-10.52c6.25-7.48,12.16-14.4,14.92-23.54,5.6-7.6,13.3-12.28,21.54-16.19a124.87,124.87,0,0,1,13.11-5c14.08-4.57,28.51-7,41-17.65,8-6.76,5.36-18.19.39-26.76-12.76-22-31.3-37.11-43.56-58.65-3.25-5.71-6.4-11.08-9-16.05a53.28,53.28,0,0,0-12.24-16.14,47.26,47.26,0,0,0-18.27-9.67c-8.82-2.54-21-1.43-25.72-7.75-32.07-42.63-79.31-62-129.86-53a69.8,69.8,0,0,0-7.68.65,63.71,63.71,0,0,0-16,4.52c-2.83.34-5.72.73-8.62,1.22-2,.34-4,.73-5.95,1.19a102.64,102.64,0,0,0-28.33,11.15c-2.62,1.52-5.18,3.15-7.64,4.9a140.45,140.45,0,0,0-17.18,22.25c-5.17,8.16-9.77,16.86-14.45,25.64-2,3.66-3.92,7.33-5.93,11-8.64,9.73-18,20.09-23.55,33-1,1.44-3.37,2.18-4.34,1.52C730.56,245.69,723.63,240.27,715.13,241.38Z"/><path class="cls-1" d="M718.08,246.34c-23.87,3.32-52.37,22.09-49.54,51.23a92.36,92.36,0,0,1-.26,22.36A52.51,52.51,0,0,1,666,330.66c-8.83,23.21-25.46,48-11.75,73.41,7.33,13.57,16.91,27,17.27,42.31.32,13.4-8.49,19.64-18.61,23.63s-22.46,5.46-31.1,10c-6.07,3.21-11.66,9-17.16,15.61-2.31,7.87-2,16.51,1.77,22.2,4.64,7,9.57,14.45,17.7,23.23,17.82,19.25,33.44,39.37,41.71,66.64,3.31,10.91,22.68-5.54,37-2.74a16.4,16.4,0,0,1,11.95,11.55c4.85,10.56,5.62,22.67,7.67,34.26,1.65,9.27,4.09,18.19,10.26,25.8a32.11,32.11,0,0,0,5.72,5.54,37,37,0,0,0,17.86,6.92c14.3,1,29-2.85,42.62-.81,4.89.73,9,4.66,13.81,7.08a180.87,180.87,0,0,1,16.14,15.82c16.16,17.19,32.34,33.79,55.71,26.25,18.7-6,36.53-16.65,52.07-30.8,6.47-5.9,12.65-12.19,18.75-18.45a16.82,16.82,0,0,1,3.55-2.72c10.37-5,21.7-8.1,29.27-18.71,4.95-6.94,8.28-14.9,10.93-23.25,8.61-15.75,9.89-48.71,25.44-45,45.22,10.76,73.67-22.65,87.12-61,2.82-8,5.41-16.19,6.6-24.5a139.08,139.08,0,0,0,1.3-23.13,124.33,124.33,0,0,0-2.56-23c-3.52-8-11.42-12.89-19.11-16.05-23.67-9.71-52.11-6.6-75.28-19.19-8.19-4.46-12-12.17-12.23-20.63a35,35,0,0,1,2.38-13.39,36.54,36.54,0,0,1,6.31-10.24c6.1-7.28,11.89-14,14.65-22.86,5.48-7.38,13-11.94,21-15.79a125.19,125.19,0,0,1,12.71-4.92c13.57-4.55,27.49-7.08,39.56-17.49,7.68-6.63,5.13-17.75.32-26.11C1095,278.69,1077,263.9,1065,242.93c-3.17-5.55-6.26-10.77-8.77-15.61a52.26,52.26,0,0,0-12-15.69,46.89,46.89,0,0,0-17.82-9.44c-8.58-2.5-20.38-1.48-25.05-7.65C970,153.09,924,134,874.65,142.91a69,69,0,0,0-7.5.63,61.9,61.9,0,0,0-15.59,4.39c-2.77.34-5.58.73-8.41,1.22-1.95.33-3.89.73-5.82,1.18a99.88,99.88,0,0,0-27.61,11q-3.84,2.24-7.45,4.82a138,138,0,0,0-16.75,21.75c-5,8-9.53,16.5-14.08,25.07-1.91,3.58-3.82,7.17-5.78,10.74-8.5,9.31-17.76,19.26-23.25,31.76-1,1.39-3.29,2.12-4.25,1.48C733.12,250.35,726.34,245.19,718.08,246.34Z"/><path class="cls-1" d="M721,251.3c-23.1,3.43-50.65,21.67-48,49.95A91.17,91.17,0,0,1,672.8,323a52.32,52.32,0,0,1-2.24,10.42C662,356,646,380.08,659.23,404.73c7.08,13.19,16.33,26.28,16.7,41.13.32,13-8.17,19.09-17.92,23s-21.65,5.42-30,9.93c-5.86,3.18-11.35,8.89-16.8,15.26-2.35,7.64-2.22,16,1.32,21.55a146.31,146.31,0,0,0,17,22.77c17.46,18.85,32.83,38.5,41,65.11,3.27,10.62,22.12-5.44,36.12-2.74A16,16,0,0,1,718.42,612c4.74,10.3,5.49,22.11,7.49,33.41,1.6,9,4,17.74,10,25.17a31.47,31.47,0,0,0,5.57,5.4,36,36,0,0,0,17.43,6.74c14,.87,28.26-2.79,41.55-.79,4.78.73,8.8,4.54,13.47,6.91a174.26,174.26,0,0,1,15.77,15.39C845.45,721,861.23,737.08,884,729.88c18.54-5.86,36.08-16.41,51.37-30.49,6.37-5.86,12.44-12.12,18.45-18.32a15.81,15.81,0,0,1,3.51-2.67c10.2-4.85,21.53-7.64,29.07-18.16,4.8-6.73,8-14.44,10.62-22.53,8.36-15.26,9.65-47.15,24.68-43.66,43.68,10.14,71.14-22.27,84-59.44,2.7-7.79,5.18-15.7,6.3-23.74a134.71,134.71,0,0,0,1.18-22.41,119.82,119.82,0,0,0-2.57-22.26c-3.43-7.77-11.08-12.47-18.55-15.53-23-9.44-50.79-6.46-73.31-18.73-8-4.34-11.69-11.84-11.93-20.08a34,34,0,0,1,2.31-13.05,35.29,35.29,0,0,1,6.16-10c5.94-7.07,11.62-13.58,14.36-22.17,5.36-7.15,12.67-11.6,20.43-15.39a127.63,127.63,0,0,1,12.3-4.88c13.07-4.52,26.48-7.15,38.09-17.34,7.39-6.49,4.92-17.3.25-25.45-12-20.93-29.45-35.41-41.18-55.81-3.11-5.39-6.13-10.47-8.59-15.17a51.21,51.21,0,0,0-11.72-15.23,46.21,46.21,0,0,0-17.37-9.22c-8.35-2.46-19.81-1.54-24.38-7.55-30.69-40.27-75.44-59-123.52-50.29a65.63,65.63,0,0,0-7.32.6,60.43,60.43,0,0,0-15.23,4.27c-2.7.34-5.45.73-8.21,1.21q-2.85.51-5.67,1.17a97.76,97.76,0,0,0-26.91,10.84c-2.49,1.47-4.91,3-7.25,4.73a135.25,135.25,0,0,0-16.33,21.27c-4.91,7.81-9.29,16.12-13.71,24.5-1.85,3.5-3.72,7-5.62,10.49-8.36,8.89-17.49,18.43-22.94,30.5-1,1.34-3.22,2-4.16,1.43C735.68,255,729.06,250.11,721,251.3Z"/><path class="cls-1" d="M724,256.26c-22.34,3.54-48.94,21.25-46.39,48.66a89,89,0,0,1-.29,21.08,50.67,50.67,0,0,1-2.16,10.12c-8.24,21.91-23.66,45.34-10.9,69.27,6.83,12.82,15.74,25.54,16.11,39.95.32,12.6-7.84,18.55-17.22,22.42s-20.84,5.37-28.81,9.82c-5.64,3.15-11,8.72-16.43,14.92-2.4,7.4-2.41,15.5.87,20.9a126.82,126.82,0,0,0,16.35,22.3c17.08,18.45,32.22,37.63,40.34,63.57,3.24,10.33,21.55-5.34,35.2-2.73a15.63,15.63,0,0,1,11.39,10.93c4.63,10,5.37,21.55,7.31,32.56,1.55,8.81,3.86,17.29,9.68,24.54a30.6,30.6,0,0,0,5.43,5.27,35,35,0,0,0,17,6.55c13.64.78,27.56-2.74,40.5-.76,4.65.71,8.57,4.41,13.12,6.72a170.6,170.6,0,0,1,15.41,15c15.4,16.26,30.77,31.91,53,25,18.38-5.67,35.63-16.17,50.67-30.18,6.25-5.83,12.22-12,18.13-18.19a15.43,15.43,0,0,1,3.48-2.62c10-4.7,21.36-7.18,28.86-17.62,4.67-6.5,7.8-14,10.32-21.79,8.11-14.78,9.4-45.59,23.91-42.32,42.16,9.52,68.61-21.89,81-57.89,2.59-7.54,5-15.2,6-23a129.15,129.15,0,0,0,1-21.68,115.49,115.49,0,0,0-2.57-21.52c-3.34-7.51-10.75-12.06-18-15-22.4-9.16-49.48-6.31-71.36-18.25-7.76-4.24-11.38-11.53-11.62-19.55a33,33,0,0,1,2.24-12.7,33.78,33.78,0,0,1,6-9.7c5.8-6.85,11.35-13.16,14.08-21.48,5.24-6.93,12.36-11.26,19.88-15,4-2,8-3.36,11.89-4.84,12.58-4.5,25.46-7.21,36.62-17.19,7.1-6.35,4.71-16.85.18-24.79-11.61-20.39-28.53-34.56-40-54.38-3-5.25-6-10.16-8.41-14.74a50.14,50.14,0,0,0-11.45-14.78,45.55,45.55,0,0,0-16.91-9c-8.13-2.43-19.24-1.6-23.72-7.44-30-39.11-73.5-57.54-120.34-49a67.28,67.28,0,0,0-7.15.58,59.23,59.23,0,0,0-14.87,4.16c-2.64.33-5.31.72-8,1.2-1.84.33-3.69.72-5.52,1.16a94.82,94.82,0,0,0-26.21,10.68c-2.42,1.44-4.78,3-7,4.64A132,132,0,0,0,788.67,201c-4.78,7.63-9,15.75-13.35,23.92-1.8,3.43-3.61,6.85-5.46,10.26-8.21,8.46-17.21,17.59-22.64,29.22-.94,1.3-3.14,2-4.07,1.38C738.24,259.68,731.77,255,724,256.26Z"/><path class="cls-1" d="M726.94,261.22c-21.57,3.65-47.22,20.82-44.81,47.38a87.29,87.29,0,0,1-.31,20.44,49.78,49.78,0,0,1-2.08,9.81c-7.94,21.27-22.76,44-10.48,67.2,6.58,12.45,15.17,24.79,15.53,38.77.32,12.2-7.52,18-16.52,21.81s-20,5.33-27.67,9.72c-5.42,3.12-10.72,8.56-16.07,14.57-2.44,7.17-2.59,15,.44,20.25A110.25,110.25,0,0,0,640.63,533c16.72,18,31.61,36.75,39.67,62,3.19,10,21-5.24,34.27-2.73a14.52,14.52,0,0,1,8.48,5.44,14.74,14.74,0,0,1,2.63,5.19c4.52,9.77,5.24,21,7.13,31.7,1.5,8.59,3.74,16.85,9.4,23.91a29.34,29.34,0,0,0,5.28,5.14A34.13,34.13,0,0,0,764,670.07c13.3.68,26.85-2.69,39.43-.74,4.53.7,8.36,4.28,12.79,6.53a166.65,166.65,0,0,1,15,14.54c15,15.81,30,31,51.6,24.46,18.22-5.49,35.18-15.93,50-29.87,6.15-5.79,12-12,17.83-18a13.62,13.62,0,0,1,3.44-2.57c9.86-4.56,21.19-6.73,28.65-17.08,4.53-6.28,7.57-13.51,10-21.07,7.86-14.29,9.16-44,23.14-41,40.63,8.89,66.09-21.53,77.89-56.35,2.47-7.3,4.72-14.71,5.71-22.24a124.62,124.62,0,0,0,.93-20.95,110.78,110.78,0,0,0-2.58-20.77c-3.25-7.25-10.41-11.65-17.42-14.51-21.76-8.88-48.17-6.16-69.4-17.79-7.54-4.13-11.08-11.2-11.32-19a32.44,32.44,0,0,1,2.17-12.36,33,33,0,0,1,5.85-9.42c5.65-6.64,11.09-12.74,13.8-20.79,5.13-6.71,12-10.93,19.34-14.59,3.82-1.93,7.74-3.32,11.48-4.8,12.07-4.48,24.44-7.27,35.15-17,6.8-6.21,4.48-16.4.11-24.14-11.23-19.84-27.61-33.7-38.8-52.95-3-5.09-5.86-9.86-8.23-14.3a49.15,49.15,0,0,0-11.2-14.33,45,45,0,0,0-16.45-8.76c-7.9-2.39-18.66-1.65-23.05-7.34-29.3-37.93-71.56-56-117.17-47.63a63.92,63.92,0,0,0-7,.56,57.31,57.31,0,0,0-14.51,4c-2.57.33-5.18.72-7.8,1.19q-2.7.5-5.39,1.16a92,92,0,0,0-25.5,10.53c-2.35,1.41-4.64,2.93-6.85,4.55a129.09,129.09,0,0,0-15.47,20.29c-4.66,7.45-8.81,15.38-13,23.36-1.75,3.34-3.51,6.69-5.3,10-8.07,8-16.94,16.76-22.34,28-.92,1.24-3.06,1.89-4,1.33C740.8,264.34,734.48,259.94,726.94,261.22Z"/><path class="cls-1" d="M729.89,266.18c-20.79,3.76-45.5,20.4-43.23,46.09a85.08,85.08,0,0,1-.32,19.8,48.76,48.76,0,0,1-2,9.51c-7.63,20.62-21.85,42.64-10.05,65.14,6.33,12.06,14.59,24,15,37.58.32,11.8-7.2,17.46-15.83,21.21s-19.22,5.28-26.53,9.61c-5.19,3.09-10.4,8.39-15.7,14.23-2.48,6.93-2.78,14.5,0,19.6a96.13,96.13,0,0,0,15,21.38c16.35,17.64,31,35.88,39,60.49,3.16,9.75,20.42-5.13,33.35-2.71a14.08,14.08,0,0,1,8.26,5.26,14.57,14.57,0,0,1,2.57,5c4.41,9.51,5.12,20.41,6.94,30.85,1.47,8.36,3.64,16.4,9.12,23.28a28.41,28.41,0,0,0,5.13,5,33.17,33.17,0,0,0,16.11,6.18c13,.59,26.13-2.64,38.36-.72,4.41.7,8.14,4.17,12.45,6.35a160.28,160.28,0,0,1,14.66,14.12c14.64,15.34,29.21,30,50.24,23.86,18.06-5.31,34.72-15.69,49.27-29.56,6-5.76,11.79-11.88,17.51-17.92a13.06,13.06,0,0,1,3.41-2.52c9.68-4.4,21-6.27,28.44-16.54,4.39-6.06,7.34-13,9.72-20.34,7.61-13.81,8.91-42.46,22.38-39.61,39.09,8.27,63.55-21.15,74.8-54.8a113.37,113.37,0,0,0,5.42-21.49,120.09,120.09,0,0,0,.81-20.22,108,108,0,0,0-2.58-20c-3.16-7-10.09-11.24-16.86-14-21.13-8.6-46.86-6-67.45-17.31-7.32-4-10.77-10.89-11-18.48a31.22,31.22,0,0,1,2.1-12,31.87,31.87,0,0,1,5.7-9.15c5.49-6.43,10.81-12.32,13.52-20.1,5-6.48,11.72-10.59,18.78-14.19,3.7-1.9,7.47-3.28,11.07-4.76,11.58-4.46,23.42-7.33,33.68-16.89,6.51-6.07,4.27-15.95,0-23.48-10.85-19.3-26.68-32.85-37.61-51.53-2.88-4.93-5.71-9.56-8-13.86a48,48,0,0,0-10.94-13.87,44.49,44.49,0,0,0-16-8.54c-7.66-2.35-18.09-1.71-22.39-7.24-28.59-36.75-69.62-54.56-114-46.29a63.44,63.44,0,0,0-6.8.53,55.89,55.89,0,0,0-14.14,3.91c-2.51.33-5,.72-7.6,1.19q-2.62.5-5.24,1.14a89.25,89.25,0,0,0-24.79,10.38q-3.43,2.07-6.66,4.46a126.38,126.38,0,0,0-15,19.81c-4.53,7.27-8.56,15-12.61,22.78q-2.55,4.91-5.15,9.77c-7.93,7.62-16.66,15.94-22,26.69-.91,1.2-3,1.83-3.89,1.29C743.36,269,737.19,264.86,729.89,266.18Z"/><path class="cls-1" d="M732.84,271.14c-20,3.86-43.78,20-41.65,44.8a83.45,83.45,0,0,1-.34,19.16,47.85,47.85,0,0,1-1.94,9.21c-7.34,20-20.95,41.29-9.62,63.07,6.08,11.69,14,23.29,14.37,36.41.32,11.4-6.87,16.91-15.13,20.59s-18.42,5.24-25.38,9.51c-5,3.06-10.1,8.23-15.34,13.88-2.53,6.7-3,14-.46,19a83.83,83.83,0,0,0,14.32,20.92c16,17.23,30.38,35,38.29,59,3.12,9.45,19.85-5,32.43-2.71a13.65,13.65,0,0,1,8,5.1,14.23,14.23,0,0,1,2.51,4.91c4.3,9.24,5,19.84,6.76,30,1.42,8.13,3.52,16,8.84,22.65a26.8,26.8,0,0,0,5,4.87,32.1,32.1,0,0,0,15.66,6c12.64.5,25.43-2.58,37.3-.69,4.3.69,7.93,4,12.12,6.17a154.9,154.9,0,0,1,14.28,13.68c14.27,14.88,28.44,29.13,48.87,23.28,17.9-5.13,34.28-15.46,48.58-29.26,5.92-5.72,11.57-11.81,17.19-17.79a12.74,12.74,0,0,1,3.38-2.47c9.51-4.25,20.84-5.81,28.23-16,4.25-5.84,7.11-12.57,9.42-19.61,7.36-13.33,8.66-40.9,21.61-38.26,37.57,7.64,61-20.78,71.73-53.26a109.12,109.12,0,0,0,5.12-20.74,115.61,115.61,0,0,0,.69-19.49,103.63,103.63,0,0,0-2.59-19.29c-3.07-6.72-9.75-10.82-16.3-13.48-20.49-8.33-45.54-5.87-65.49-16.85-7.1-3.91-10.46-10.56-10.7-17.93a29.12,29.12,0,0,1,7.57-20.55c5.34-6.22,10.55-11.91,13.24-19.41,4.89-6.26,11.41-10.25,18.23-13.8,3.57-1.85,7.21-3.22,10.67-4.7,11.07-4.45,22.4-7.4,32.2-16.75,6.22-5.93,4.06-15.5,0-22.82-10.46-18.75-25.75-32-36.41-50.11-2.81-4.77-5.57-9.25-7.87-13.42a46.51,46.51,0,0,0-10.67-13.42,44.05,44.05,0,0,0-15.54-8.31c-7.44-2.32-17.52-1.77-21.73-7.13-27.9-35.58-67.68-53.08-110.82-45a59.88,59.88,0,0,0-6.62.5,54.65,54.65,0,0,0-13.78,3.79c-2.44.33-4.91.72-7.39,1.19q-2.56.48-5.1,1.13a86.81,86.81,0,0,0-24.09,10.22q-3.33,2-6.45,4.38a123.36,123.36,0,0,0-14.63,19.31c-4.4,7.1-8.32,14.64-12.25,22.22-1.65,3.18-3.31,6.37-5,9.53-7.79,7.19-16.39,15.1-21.73,25.41-.89,1.15-2.91,1.76-3.79,1.25C745.92,273.66,739.91,269.78,732.84,271.14Z"/><path class="cls-1" d="M735.8,276.1c-19.25,4-42.07,19.56-40.08,43.52a81.29,81.29,0,0,1-.36,18.52,46.26,46.26,0,0,1-1.86,8.9c-7,19.33-20,39.94-9.2,61,5.83,11.32,13.43,22.55,13.8,35.23.31,11-6.56,16.37-14.44,20s-17.61,5.19-24.24,9.41c-4.76,3-9.78,8.05-15,13.53-2.56,6.46-3.16,13.5-.9,18.3A73.91,73.91,0,0,0,657.18,525c15.61,16.82,29.77,34.13,37.61,57.42,3.09,9.15,19.29-4.94,31.51-2.71a13.21,13.21,0,0,1,7.82,4.94,13.84,13.84,0,0,1,2.45,4.76c4.2,9,4.86,19.28,6.58,29.14,1.37,7.91,3.41,15.51,8.55,22a26.19,26.19,0,0,0,4.83,4.74,31.14,31.14,0,0,0,15.23,5.81c12.3.42,24.72-2.53,36.23-.66,4.18.67,7.72,3.91,11.78,6a149.86,149.86,0,0,1,13.91,13.26c13.89,14.42,27.66,28.2,47.51,22.68,17.74-5,33.82-15.22,47.87-29,5.82-5.68,11.36-11.73,16.89-17.65a11.71,11.71,0,0,1,3.34-2.43c9.34-4.1,20.67-5.36,28-15.44,4.1-5.63,6.86-12.11,9.11-18.89,7.12-12.84,8.42-39.33,20.84-36.91,36,7,58.5-20.4,68.65-51.71a104.9,104.9,0,0,0,4.83-20,111.09,111.09,0,0,0,.57-18.76,99.24,99.24,0,0,0-2.6-18.55c-3-6.45-9.42-10.41-15.73-13-19.86-8-44.26-5.68-63.54-16.37-6.88-3.79-10.15-10.25-10.4-17.4a28,28,0,0,1,7.36-19.93c5.18-6,10.27-11.49,13-18.72,4.77-6,11.1-9.91,17.68-13.4,3.44-1.82,6.94-3.18,10.26-4.66,10.57-4.43,21.39-7.46,30.74-16.6,5.92-5.79,3.84-15.05-.1-22.16-10.08-18.21-24.83-31.14-35.23-48.68-2.74-4.62-5.43-9-7.68-13a45.49,45.49,0,0,0-10.41-13,43.38,43.38,0,0,0-15.09-8.09c-7.21-2.28-16.94-1.82-21.06-7-27.2-34.41-65.75-51.59-107.64-43.63a61.88,61.88,0,0,0-6.45.49A53.16,53.16,0,0,0,851,191.62c-2.38.34-4.78.72-7.19,1.18-1.66.33-3.31.7-5,1.13A84,84,0,0,0,815.43,204c-2.15,1.33-4.24,2.77-6.25,4.29A120.14,120.14,0,0,0,795,227.11c-4.28,6.92-8.08,14.26-11.89,21.64-1.6,3.11-3.2,6.21-4.83,9.29-7.64,6.77-16.11,14.27-21.42,24.15-.88,1.1-2.84,1.68-3.7,1.2C748.48,278.33,742.62,274.69,735.8,276.1Z"/><path class="cls-1" d="M738.75,281.06c-18.48,4.07-40.36,19.14-38.5,42.23a80.31,80.31,0,0,1-.37,17.88,46,46,0,0,1-1.79,8.6c-6.74,18.68-19.15,38.59-8.77,58.94,5.57,10.93,12.85,21.8,13.21,34,.31,10.6-6.23,15.82-13.74,19.39s-16.8,5.14-23.1,9.3c-4.54,3-9.46,7.89-14.61,13.19-2.61,6.23-3.35,13-1.34,17.64a64.25,64.25,0,0,0,13,20c15.24,16.42,29.16,33.26,36.93,55.88,3,8.87,18.72-4.84,30.58-2.7a12.84,12.84,0,0,1,7.6,4.78,13.59,13.59,0,0,1,2.39,4.62c4.09,8.71,4.74,18.7,6.4,28.28,1.32,7.68,3.29,15.06,8.26,21.39a25.34,25.34,0,0,0,4.69,4.61,30.27,30.27,0,0,0,14.78,5.63c12,.32,24-2.48,35.18-.65,4,.67,7.49,3.79,11.43,5.8a143.61,143.61,0,0,1,13.54,12.84c13.51,14,26.89,27.28,46.14,22.08,17.59-4.76,33.37-15,47.18-28.64,5.7-5.65,11.14-11.65,16.57-17.52a11.1,11.1,0,0,1,3.31-2.38c9.17-3.94,20.5-4.9,27.82-14.9,4-5.41,6.63-11.64,8.81-18.16,6.87-12.35,8.17-37.76,20.08-35.56,34.5,6.4,56-20,65.57-50.17a100.38,100.38,0,0,0,4.53-19.23,105.57,105.57,0,0,0,.44-18,94.71,94.71,0,0,0-2.59-17.81c-2.9-6.19-9.09-10-15.18-12.45-19.22-7.77-42.94-5.54-61.58-15.91-6.66-3.68-9.85-9.92-10.09-16.86a27,27,0,0,1,7.13-19.3c5-5.8,10-11.08,12.68-18,4.65-5.81,10.77-9.58,17.12-13,3.31-1.78,6.68-3.14,9.86-4.62,10.07-4.41,20.36-7.52,29.26-16.45,5.63-5.65,3.62-14.6-.17-21.51-9.7-17.66-23.9-30.28-34-47.25-2.67-4.46-5.29-8.65-7.5-12.55A44.36,44.36,0,0,0,1009.69,252a43.13,43.13,0,0,0-14.64-7.86c-7-2.24-16.37-1.88-20.39-6.92-26.5-33.24-63.81-50.11-104.47-42.3a58.41,58.41,0,0,0-6.27.46,51.42,51.42,0,0,0-13.06,3.55c-2.31.33-4.64.71-7,1.17-1.61.32-3.22.69-4.81,1.11a81.79,81.79,0,0,0-22.67,9.91q-3.14,2-6.06,4.21a115.6,115.6,0,0,0-13.77,18.34c-4.15,6.73-7.84,13.89-11.53,21.07q-2.32,4.53-4.67,9c-7.5,6.35-15.83,13.44-21.12,22.88-.87,1.05-2.75,1.61-3.61,1.16C751,283,745.34,279.61,738.75,281.06Z"/><path class="cls-1" d="M741.7,286c-17.7,4.17-38.64,18.72-36.93,41a77.58,77.58,0,0,1-.38,17.24,44.43,44.43,0,0,1-1.71,8.29c-6.44,18-18.25,37.24-8.35,56.87,5.33,10.56,12.27,21.05,12.63,32.86.32,10.2-5.9,15.28-13,18.78s-16,5.11-22,9.2c-4.32,3-9.15,7.72-14.24,12.84-2.66,6-3.54,12.5-1.79,17a56.33,56.33,0,0,0,12.28,19.53c14.87,16,28.55,32.39,36.25,54.35,3,8.57,18.15-4.74,29.66-2.7a12.44,12.44,0,0,1,7.38,4.62,13.3,13.3,0,0,1,2.33,4.47c4,8.45,4.61,18.14,6.21,27.43,1.28,7.45,3.19,14.61,8,20.77a23.74,23.74,0,0,0,4.54,4.46,29.19,29.19,0,0,0,14.34,5.45c11.64.23,23.31-2.43,34.11-.62,3.93.66,7.28,3.66,11.1,5.62a138.25,138.25,0,0,1,13.16,12.4c13.14,13.5,26.12,26.37,44.78,21.49,17.43-4.57,32.92-14.73,46.47-28.33,5.6-5.61,10.93-11.58,16.27-17.39a10.46,10.46,0,0,1,3.27-2.32c9-3.8,20.32-4.45,27.61-14.36a63,63,0,0,0,8.51-17.43c6.62-11.88,7.92-36.21,19.31-34.21,33,5.77,53.44-19.66,62.49-48.63a95.61,95.61,0,0,0,4.24-18.48,101.08,101.08,0,0,0,.32-17.3,90.24,90.24,0,0,0-2.6-17.06c-2.81-5.93-8.76-9.59-14.62-11.95-18.58-7.49-41.62-5.39-59.62-15.43a18.7,18.7,0,0,1-9.78-16.33,27.39,27.39,0,0,1,1.82-10.63,27.06,27.06,0,0,1,5.08-8.05c4.88-5.59,9.74-10.66,12.4-17.35,4.53-5.58,10.46-9.24,16.57-12.6,3.18-1.75,6.41-3.1,9.45-4.58,9.57-4.39,19.35-7.58,27.79-16.3,5.34-5.51,3.41-14.15-.24-20.85-9.31-17.12-23-29.43-32.84-45.83-2.59-4.3-5.15-8.35-7.31-12.11a43.41,43.41,0,0,0-9.89-12.06,42.81,42.81,0,0,0-14.18-7.63c-6.75-2.21-15.8-1.94-19.73-6.82-25.8-32.06-61.87-48.63-101.3-41a60.36,60.36,0,0,0-6.09.43,50.08,50.08,0,0,0-12.7,3.43c-2.25.33-4.51.7-6.78,1.16q-2.36.48-4.68,1.11a79,79,0,0,0-22,9.75c-2,1.28-4,2.66-5.86,4.12a113.88,113.88,0,0,0-13.35,17.85c-4,6.56-7.59,13.52-11.15,20.5q-2.25,4.43-4.52,8.81c-7.36,5.92-15.56,12.6-20.82,21.61-.85,1-2.67,1.53-3.51,1.1C753.6,287.65,748.05,284.52,741.7,286Z"/><path class="cls-1" d="M744.66,291c-16.94,4.27-36.93,18.29-35.36,39.66a76.07,76.07,0,0,1-.4,16.6,42.81,42.81,0,0,1-1.64,8c-6.13,17.39-17.34,35.89-7.91,54.8,5.07,10.18,11.68,20.31,12,31.68.31,9.8-5.59,14.74-12.35,18.18S683.87,465,678.23,469c-4.1,2.94-8.83,7.56-13.88,12.5-2.69,5.76-3.73,12-2.23,16.34,1.88,5.45,4.48,11.4,11.61,19.07,14.5,15.62,27.93,31.52,35.56,52.82,3,8.27,17.59-4.64,28.74-2.69a12,12,0,0,1,7.16,4.45,12.67,12.67,0,0,1,2.26,4.33c3.88,8.18,4.5,17.57,6,26.57,1.24,7.23,3.07,14.17,7.7,20.14a23.13,23.13,0,0,0,4.39,4.33,28.27,28.27,0,0,0,13.91,5.26c11.3.14,22.6-2.37,33-.59,3.81.65,7.06,3.53,10.76,5.43a134.61,134.61,0,0,1,12.8,12c12.75,13,25.34,25.46,43.4,20.89,17.28-4.37,32.47-14.49,45.78-28,5.48-5.58,10.71-11.5,16-17.25a9.8,9.8,0,0,1,3.24-2.28c8.82-3.65,20.15-4,27.4-13.81a60.76,60.76,0,0,0,8.21-16.71c6.37-11.39,7.68-34.64,18.54-32.86,31.44,5.15,50.92-19.28,59.42-47.08a92.33,92.33,0,0,0,4-17.73,97.61,97.61,0,0,0,.19-16.57,86.57,86.57,0,0,0-2.61-16.32c-2.71-5.67-8.42-9.17-14-11.44-18-7.21-40.31-5.24-57.67-15A18.12,18.12,0,0,1,978.37,419a26.53,26.53,0,0,1,1.74-10.28,25.68,25.68,0,0,1,4.94-7.78c4.72-5.38,9.46-10.25,12.11-16.66,4.42-5.36,10.15-8.9,16-12.2,3.06-1.72,6.15-3.06,9-4.54,9.08-4.36,18.32-7.65,26.33-16.15,5-5.37,3.19-13.7-.31-20.19-8.94-16.58-22.06-28.58-31.65-44.4-2.52-4.15-5-8.05-7.14-11.68a40.23,40.23,0,0,0-23.35-19c-6.52-2.17-15.22-2-19.06-6.72-25.1-30.89-59.94-47.14-98.13-39.62a54.55,54.55,0,0,0-5.92.41,48.33,48.33,0,0,0-12.33,3.3c-2.18.33-4.38.7-6.58,1.16-1.52.32-3,.68-4.53,1.1a76.41,76.41,0,0,0-21.26,9.59c-1.95,1.26-3.84,2.6-5.66,4a110.58,110.58,0,0,0-12.92,17.36c-3.9,6.38-7.35,13.14-10.79,19.93q-2.17,4.29-4.36,8.56c-7.22,5.5-15.28,11.77-20.51,20.34a3.51,3.51,0,0,1-3.43,1.06C756.16,292.31,750.77,289.44,744.66,291Z"/><path class="cls-1" d="M747.61,295.94c-16.16,4.37-35.21,17.87-33.78,38.38a74.65,74.65,0,0,1-.41,16,42.75,42.75,0,0,1-1.57,7.68c-5.84,16.75-16.44,34.54-7.49,52.73,4.82,9.81,11.11,19.56,11.47,30.5.31,9.4-5.26,14.19-11.65,17.57s-14.37,5-19.67,9c-3.89,2.91-8.52,7.4-13.52,12.15-2.74,5.53-3.92,11.51-2.67,15.7,1.57,5.28,3.91,11.06,10.92,18.61,14.14,15.21,27.32,30.64,34.88,51.27,2.93,8,17-4.54,27.82-2.68a11.55,11.55,0,0,1,6.94,4.29,12.46,12.46,0,0,1,2.2,4.18c3.77,7.92,4.37,17,5.86,25.72,1.19,7,3,13.72,7.42,19.51a21.65,21.65,0,0,0,4.24,4.2,27.25,27.25,0,0,0,13.46,5.07c11,.05,21.9-2.32,32-.57,3.7.64,6.85,3.42,10.43,5.25A130.71,130.71,0,0,1,836.89,642c12.37,12.58,24.57,24.56,42,20.3,17.12-4.17,32-14.25,45.08-27.71,5.37-5.54,10.49-11.42,15.63-17.12a9.41,9.41,0,0,1,3.21-2.23c8.65-3.49,20-3.54,27.19-13.27A58.16,58.16,0,0,0,978,586c6.12-10.9,7.43-33.07,17.78-31.51,29.9,4.53,48.38-18.9,56.33-45.53a88,88,0,0,0,3.66-17,93.12,93.12,0,0,0,.07-15.84,82.22,82.22,0,0,0-2.62-15.58c-2.62-5.4-8.09-8.76-13.49-10.92-17.31-6.94-39-5.1-55.71-14.49a17.61,17.61,0,0,1-9.17-15.25,25.53,25.53,0,0,1,1.68-9.94,24.46,24.46,0,0,1,4.78-7.51c4.57-5.17,9.2-9.83,11.83-16,4.3-5.14,9.84-8.56,15.48-11.8,2.92-1.68,5.87-3,8.63-4.5,8.57-4.34,17.31-7.69,24.85-16,4.75-5.22,3-13.25-.38-19.54-8.55-16-21.13-27.72-30.46-43-2.44-4-4.87-7.74-7-11.24a41.3,41.3,0,0,0-9.36-11.15,42.36,42.36,0,0,0-13.28-7.19c-6.29-2.12-14.65-2-18.39-6.6-24.4-29.72-58-45.66-95-38.3a56.47,56.47,0,0,0-5.75.39,47.4,47.4,0,0,0-12,3.18c-2.11.33-4.24.7-6.37,1.15-1.48.32-2.94.68-4.39,1.09a74,74,0,0,0-20.56,9.44c-1.87,1.23-3.7,2.55-5.46,3.95a107.83,107.83,0,0,0-12.49,16.88c-3.77,6.2-7.12,12.77-10.43,19.35-1.4,2.79-2.79,5.57-4.2,8.32-7.07,5.08-15,10.94-20.21,19.08a3.51,3.51,0,0,1-3.33,1C758.73,297,753.48,294.35,747.61,295.94Z"/><path class="cls-1" d="M750.56,300.9c-15.38,4.46-33.49,17.45-32.2,37.09a73.27,73.27,0,0,1-.43,15.32,42,42,0,0,1-1.49,7.38c-5.54,16.1-15.54,33.2-7.07,50.67,4.57,9.43,10.53,18.81,10.89,29.31.31,9-4.93,13.65-11,17s-13.57,5-18.53,8.88c-3.68,2.89-8.2,7.23-13.16,11.81-2.77,5.29-4.1,11-3.11,15,1.26,5.13,3.35,10.72,10.25,18.15,13.76,14.81,26.7,29.77,34.2,49.74,2.88,7.69,16.45-4.44,26.89-2.68a11.15,11.15,0,0,1,6.72,4.13,12,12,0,0,1,2.14,4c3.66,7.65,4.25,16.44,5.68,24.86,1.14,6.77,2.85,13.28,7.13,18.88a21,21,0,0,0,4.09,4.06,26.31,26.31,0,0,0,13,4.89c10.63,0,21.19-2.26,30.92-.54,3.57.63,6.63,3.29,10.08,5.06a125.73,125.73,0,0,1,12.05,11.13c12,12.11,23.8,23.65,40.67,19.7s31.57-14,44.38-27.4c5.27-5.5,10.28-11.34,15.33-17a8.81,8.81,0,0,1,3.17-2.18c8.48-3.34,19.8-3.08,27-12.72a56.56,56.56,0,0,0,7.61-15.25c5.86-10.42,7.17-31.52,17-30.16,28.37,3.9,45.86-18.53,53.26-44a83.92,83.92,0,0,0,3.36-16.23,87.74,87.74,0,0,0-.06-15.12,78.68,78.68,0,0,0-2.61-14.83c-2.54-5.14-7.76-8.34-12.93-10.41-16.68-6.65-37.69-4.95-53.75-14a17,17,0,0,1-8.87-14.71,24.51,24.51,0,0,1,1.61-9.59,23.54,23.54,0,0,1,4.62-7.24c4.42-5,8.93-9.41,11.56-15.28,4.18-4.91,9.52-8.22,14.92-11.4,2.79-1.65,5.61-3,8.22-4.45,8.08-4.33,16.3-7.75,23.38-15.86,4.46-5.07,2.76-12.79-.45-18.88-8.16-15.49-20.2-26.87-29.26-41.55-2.37-3.84-4.74-7.44-6.77-10.8A40.55,40.55,0,0,0,990,275a42.35,42.35,0,0,0-12.82-7c-6.06-2.09-14.08-2.1-17.74-6.5-23.69-28.55-56.06-44.17-91.77-37a55.75,55.75,0,0,0-5.57.36A45.57,45.57,0,0,0,850.46,228c-2.05.32-4.11.69-6.17,1.14-1.42.31-2.84.68-4.25,1.08a71.31,71.31,0,0,0-19.84,9.28c-1.81,1.21-3.57,2.5-5.26,3.86a104.93,104.93,0,0,0-12.08,16.39c-3.64,6-6.87,12.4-10.06,18.79q-2,4.05-4,8.08c-6.93,4.65-14.73,10.1-19.9,17.8a3.51,3.51,0,0,1-3.25,1C761.29,301.64,756.2,299.26,750.56,300.9Z"/><path class="cls-1" d="M753.51,305.86c-14.6,4.55-31.77,17-30.62,35.8a72.65,72.65,0,0,1-.44,14.68,41.3,41.3,0,0,1-1.42,7.08c-5.24,15.45-14.64,31.85-6.64,48.6,4.32,9.05,10,18.06,10.31,28.14.31,8.59-4.62,13.1-10.26,16.35s-12.76,5-17.39,8.79c-3.46,2.85-7.89,7.06-12.79,11.45-2.82,5.06-4.3,10.53-3.56,14.4.95,5,2.78,10.38,9.57,17.68,13.4,14.41,26.09,28.9,33.52,48.21,2.84,7.39,15.89-4.34,26-2.68a10.78,10.78,0,0,1,6.5,4,11.89,11.89,0,0,1,2.08,3.9c3.55,7.39,4.12,15.87,5.49,24,1.1,6.55,2.74,12.83,6.86,18.25a19.56,19.56,0,0,0,3.94,3.93,25.43,25.43,0,0,0,12.58,4.71c10.31-.13,20.49-2.22,29.86-.52,3.45.62,6.41,3.16,9.74,4.88a118.23,118.23,0,0,1,11.68,10.7c11.62,11.64,23,22.75,39.31,19.1,16.81-3.77,31.11-13.77,43.68-27.09,5.15-5.47,10.06-11.27,15-16.85a8.27,8.27,0,0,1,3.14-2.13c8.3-3.2,19.62-2.64,26.78-12.19a54,54,0,0,0,7.31-14.52c5.61-9.93,6.92-30,16.24-28.81,26.82,3.28,43.32-18.16,50.17-42.44a79.16,79.16,0,0,0,3.07-15.48,83.27,83.27,0,0,0-.18-14.39,74.37,74.37,0,0,0-2.62-14.09c-2.45-4.87-7.43-7.93-12.37-9.89-16-6.38-36.37-4.81-51.79-13.55a16.47,16.47,0,0,1-8.56-14.18,23.73,23.73,0,0,1,1.53-9.25,22.46,22.46,0,0,1,4.48-7c4.26-4.75,8.66-9,11.27-14.59,4.06-4.69,9.2-7.89,14.37-11,2.66-1.61,5.34-2.94,7.82-4.41,7.57-4.31,15.27-7.82,21.91-15.71,4.15-4.94,2.54-12.34-.53-18.22-7.78-14.95-19.27-26-28.07-40.13-2.29-3.68-4.59-7.13-6.58-10.36A39.28,39.28,0,0,0,985,280.8a42.05,42.05,0,0,0-12.37-6.74c-5.83-2.05-13.5-2.15-17.07-6.4C932.61,240.29,901.48,225,867,232a52.17,52.17,0,0,0-5.39.34,43.79,43.79,0,0,0-11.25,2.94c-2,.32-4,.69-6,1.14-1.37.31-2.74.67-4.1,1.07a68.61,68.61,0,0,0-19.14,9.12q-2.61,1.77-5.06,3.78a101.63,101.63,0,0,0-11.65,15.9c-3.51,5.84-6.63,12-9.69,18.22-1.3,2.62-2.59,5.24-3.89,7.83-6.79,4.23-14.46,9.27-19.6,16.53a3.52,3.52,0,0,1-3.15.93C763.85,306.3,758.91,304.18,753.51,305.86Z"/><path class="cls-1" d="M756.47,310.82c-13.83,4.64-30.06,16.61-29.05,34.52a70,70,0,0,1-.46,14,40.42,40.42,0,0,1-1.34,6.76c-4.94,14.82-13.74,30.51-6.22,46.54,4.07,8.68,9.37,17.32,9.73,27,.31,8.19-4.29,12.55-9.56,15.75s-12,4.92-16.25,8.68c-3.24,2.83-7.57,6.89-12.42,11.11-2.86,4.82-4.5,10-4,13.74.64,4.81,2.22,10,8.9,17.23,13,14,25.47,28,32.83,46.66,2.81,7.11,15.33-4.24,25-2.66a10.31,10.31,0,0,1,6.29,3.79,11.74,11.74,0,0,1,2,3.76c3.44,7.12,4,15.3,5.31,23.15,1.06,6.32,2.63,12.38,6.57,17.62a18.74,18.74,0,0,0,3.8,3.8,24.44,24.44,0,0,0,12.14,4.52c10-.22,19.77-2.16,28.79-.5,3.33.62,6.2,3,9.41,4.7a115.6,115.6,0,0,1,11.3,10.27c11.24,11.19,22.27,21.86,37.94,18.51,16.67-3.56,30.67-13.53,43-26.78,5-5.43,9.85-11.19,14.71-16.72a7.83,7.83,0,0,1,3.1-2.08c8.13-3,19.44-2.18,26.57-11.64a51.86,51.86,0,0,0,7-13.8c5.36-9.45,6.67-28.38,15.47-27.46,25.29,2.67,40.8-17.78,47.1-40.89a75,75,0,0,0,2.77-14.73,78.81,78.81,0,0,0-.3-13.66,69.67,69.67,0,0,0-2.63-13.34c-2.36-4.61-7.09-7.52-11.8-9.39-15.41-6.1-35.06-4.66-49.84-13.08a15.92,15.92,0,0,1-8.26-13.64,22.9,22.9,0,0,1,1.47-8.9A21.19,21.19,0,0,1,969.9,407c4.11-4.53,8.39-8.58,11-13.9,3.94-4.46,8.89-7.55,13.82-10.61,2.53-1.57,5.08-2.89,7.41-4.36,7.07-4.29,14.25-7.87,20.44-15.56,3.86-4.79,2.32-11.89-.59-17.56-7.4-14.41-18.35-25.17-26.88-38.7-2.23-3.53-4.46-6.84-6.41-9.93a38.39,38.39,0,0,0-8.57-9.79,42.29,42.29,0,0,0-11.92-6.51c-5.6-2-12.93-2.21-16.4-6.29-22.29-26.21-52.18-41.2-85.43-34.3a51.83,51.83,0,0,0-5.22.32,42.49,42.49,0,0,0-10.88,2.82c-1.92.32-3.84.69-5.76,1.13-1.33.31-2.65.67-4,1.06a66.23,66.23,0,0,0-18.44,9c-1.67,1.16-3.3,2.39-4.86,3.69A99.27,99.27,0,0,0,806,272.86c-3.39,5.67-6.39,11.66-9.33,17.65-1.25,2.54-2.49,5.08-3.73,7.59-6.65,3.81-14.18,8.44-19.3,15.27a3.45,3.45,0,0,1-3,.87C766.41,311,761.63,309.09,756.47,310.82Z"/><path class="cls-1" d="M759.42,315.78C746.37,320.5,731.07,332,732,349a68.89,68.89,0,0,1-.48,13.4,37.64,37.64,0,0,1-1.27,6.46c-4.64,14.17-12.83,29.16-5.78,44.48,3.81,8.3,8.78,16.57,9.15,25.77.3,7.79-4,12-8.87,15.14s-11.14,4.9-15.1,8.58c-3,2.81-7.26,6.73-12.07,10.77-2.9,4.58-4.69,9.53-4.44,13.09.32,4.65,1.65,9.7,8.21,16.76,12.66,13.6,24.86,27.14,32.15,45.13,2.77,6.81,14.76-4.14,24.12-2.66a9.91,9.91,0,0,1,6.08,3.63,11.65,11.65,0,0,1,2,3.61c3.33,6.86,3.87,14.74,5.13,22.31,1,6.08,2.51,11.93,6.28,17a17.57,17.57,0,0,0,3.65,3.66,23.53,23.53,0,0,0,11.71,4.34c9.63-.31,19.06-2.11,27.72-.47,3.21.61,6,2.91,9.07,4.51a109.57,109.57,0,0,1,10.93,9.85c10.86,10.72,21.51,21,36.58,17.91,16.51-3.34,30.21-13.29,42.28-26.47,4.94-5.39,9.63-11.11,14.39-16.59a7.52,7.52,0,0,1,3.07-2c8-2.89,19.27-1.73,26.36-11.09A49.48,49.48,0,0,0,969.48,563c5.12-9,6.42-26.81,14.7-26.1,23.75,2,38.28-17.42,44-39.36a70.63,70.63,0,0,0,2.48-14,74.48,74.48,0,0,0-.42-12.94,67.1,67.1,0,0,0-2.64-12.6c-2.26-4.35-6.76-7.11-11.24-8.87-14.78-5.82-33.74-4.52-47.88-12.61a15.37,15.37,0,0,1-8-13.1,21.7,21.7,0,0,1,1.4-8.56,20.13,20.13,0,0,1,4.16-6.41c4-4.33,8.13-8.17,10.71-13.22,3.83-4.24,8.58-7.21,13.27-10.21,2.41-1.54,4.81-2.84,7-4.32,6.58-4.27,13.24-7.93,19-15.41,3.56-4.65,2.1-11.44-.67-16.91-7-13.86-17.42-24.31-25.69-37.27-2.15-3.37-4.31-6.53-6.22-9.49a37.38,37.38,0,0,0-8.32-9.34A42.2,42.2,0,0,0,963.72,286c-5.37-2-12.36-2.27-15.74-6.19-21.58-25-50.25-39.71-82.26-33-1.65,0-3.34.1-5,.29a41.57,41.57,0,0,0-10.52,2.7c-1.85.32-3.71.69-5.56,1.13-1.28.31-2.55.66-3.82,1.05a63.84,63.84,0,0,0-17.72,8.81q-2.41,1.71-4.67,3.61a95.55,95.55,0,0,0-10.8,14.92c-3.25,5.49-6.14,11.28-9,17.08-1.2,2.46-2.38,4.91-3.57,7.35-6.5,3.38-13.9,7.6-19,14a3.47,3.47,0,0,1-3,.83C769,315.63,764.35,314,759.42,315.78Z"/><path class="cls-1" d="M762.37,320.74c-12.27,4.79-26.63,15.76-25.89,31.95a68,68,0,0,1-.49,12.76,38.16,38.16,0,0,1-1.2,6.15c-4.34,13.53-11.9,27.8-5.36,42.41,3.58,7.92,8.21,15.82,8.57,24.59.31,7.39-3.65,11.47-8.17,14.54s-10.33,4.86-14,8.47c-2.81,2.79-7,6.56-11.7,10.42-2.95,4.35-4.89,9.05-4.89,12.44,0,4.5,1.08,9.36,7.54,16.3C719.1,514,731.06,527,738.29,544.36c2.72,6.52,14.19-4,23.19-2.65a9.49,9.49,0,0,1,5.86,3.47,11.21,11.21,0,0,1,1.89,3.47c3.22,6.59,3.75,14.17,4.95,21.45,1,5.86,2.4,11.48,6,16.36a16.9,16.9,0,0,0,3.5,3.52,22.51,22.51,0,0,0,11.26,4.15c9.31-.4,18.36-2,26.67-.44,3.08.59,5.76,2.78,8.73,4.32a106.93,106.93,0,0,1,10.56,9.42c10.48,10.27,20.73,20.09,35.2,17.32,16.37-3.12,29.77-13,41.59-26.16,4.82-5.36,9.41-11,14.07-16.45a7.11,7.11,0,0,1,3-2c7.79-2.74,19.09-1.27,26.15-10.55a46.67,46.67,0,0,0,6.41-12.34c4.87-8.48,6.17-25.26,13.94-24.76,22.2,1.42,35.74-17,40.94-37.81a66.48,66.48,0,0,0,2.18-13.21,70,70,0,0,0-.54-12.21,63.6,63.6,0,0,0-2.64-11.86c-2.18-4.08-6.43-6.69-10.68-8.36-14.15-5.54-32.43-4.37-45.93-12.14A14.79,14.79,0,0,1,957,424.35a20.84,20.84,0,0,1,1.32-8.21,19,19,0,0,1,4-6.14c3.8-4.12,7.85-7.75,10.43-12.53,3.7-4,8.26-6.87,12.71-9.81,2.28-1.5,4.55-2.8,6.6-4.28,6.07-4.25,12.21-8,17.5-15.26,3.27-4.5,1.89-11-.74-16.25-6.63-13.31-16.49-23.46-24.49-35.85-2.08-3.21-4.18-6.23-6-9a36.35,36.35,0,0,0-8.06-8.88,42.22,42.22,0,0,0-11-6.06c-5.14-1.94-11.78-2.32-15.07-6.09-20.88-23.86-48.31-38.22-79.08-31.62-1.6,0-3.23.09-4.87.27a39.32,39.32,0,0,0-10.16,2.58c-1.79.31-3.58.67-5.35,1.11-1.24.31-2.47.66-3.68,1.05A61.33,61.33,0,0,0,824,268q-2.31,1.65-4.47,3.51a93.3,93.3,0,0,0-10.37,14.44c-3.13,5.3-5.9,10.91-8.6,16.5l-3.41,7.11c-6.36,3-13.63,6.77-18.69,12.73a3.53,3.53,0,0,1-2.87.78C771.53,320.29,767.07,318.9,762.37,320.74Z"/><path class="cls-1" d="M765.32,325.7C753.83,330.57,740.41,341,741,356.36a67.16,67.16,0,0,1-.51,12.12,37.68,37.68,0,0,1-1.12,5.85c-4,12.88-11,26.45-4.94,40.34,3.33,7.54,7.63,15.08,8,23.41.31,7-3.32,10.93-7.47,13.94s-9.52,4.84-12.82,8.36a104.88,104.88,0,0,1-11.33,10.08c-3,4.11-5.1,8.55-5.34,11.79-.32,4.34.52,9,6.87,15.84,11.91,12.79,23.61,25.39,30.78,42.05,2.68,6.23,13.63-3.94,22.27-2.65A9.09,9.09,0,0,1,771,540.8a11.06,11.06,0,0,1,1.83,3.32c3.11,6.33,3.62,13.6,4.76,20.6.92,5.63,2.29,11,5.72,15.73a16,16,0,0,0,3.35,3.39,21.55,21.55,0,0,0,10.83,4c9-.49,17.65-2,25.6-.42,3,.59,5.55,2.67,8.39,4.15a101.93,101.93,0,0,1,10.19,9c10.1,9.8,20,19.2,33.84,16.72,16.22-2.9,29.31-12.8,40.88-25.85,4.72-5.32,9.2-11,13.77-16.32a6.74,6.74,0,0,1,3-1.94c7.62-2.58,18.9-.82,25.95-10a45.18,45.18,0,0,0,6.1-11.62c4.62-8,5.92-23.69,13.17-23.4,20.66.8,33.22-16.67,37.86-36.27a61.77,61.77,0,0,0,1.89-12.46,64.67,64.67,0,0,0-.67-11.48,59.14,59.14,0,0,0-2.64-11.12c-2.09-3.82-6.1-6.28-10.12-7.85-13.51-5.26-31.12-4.22-44-11.67a14.22,14.22,0,0,1-7.33-12,19.89,19.89,0,0,1,1.25-7.87,17.89,17.89,0,0,1,3.86-5.86c3.65-3.91,7.59-7.33,10.15-11.83,3.59-3.8,7.95-6.54,12.16-9.42,2.15-1.47,4.28-2.76,6.19-4.24,5.58-4.23,11.2-8,16-15.11,3-4.36,1.67-10.54-.8-15.59C996,342.55,986.7,332.71,979,320.9c-2-3.06-4-5.93-5.86-8.62a35.33,35.33,0,0,0-7.79-8.43A42.69,42.69,0,0,0,954.76,298c-4.91-1.9-11.2-2.38-14.4-6-20.17-22.7-46.38-36.74-75.91-30.29-1.54,0-3.11.07-4.69.24a38,38,0,0,0-9.8,2.46c-1.72.31-3.44.67-5.15,1.11-1.19.3-2.37.65-3.53,1A58.69,58.69,0,0,0,825,275.1q-2.21,1.62-4.27,3.43a90.39,90.39,0,0,0-9.94,13.94c-3,5.13-5.66,10.54-8.23,15.94-1.1,2.3-2.18,4.59-3.26,6.86-6.22,2.54-13.35,5.94-18.38,11.46a3.59,3.59,0,0,1-2.79.74C774.09,325,769.78,323.81,765.32,325.7Z"/><path class="cls-1" d="M768.28,330.66c-10.72,4.93-23.21,14.92-22.74,29.37a66.57,66.57,0,0,1-.53,11.48,37.1,37.1,0,0,1-1,5.55c-3.74,12.23-10.12,25.11-4.51,38.28,3.07,7.16,7,14.32,7.41,22.22.3,6.6-3,10.38-6.78,13.33s-8.71,4.82-11.68,8.26a74,74,0,0,1-11,9.73c-3,3.88-5.3,8.07-5.77,11.14-.65,4.19,0,8.69,6.18,15.38,11.54,12.39,23,24.52,30.1,40.52,2.64,5.93,13.07-3.84,21.35-2.64a8.62,8.62,0,0,1,5.42,3.14,10.63,10.63,0,0,1,1.77,3.18c3,6.06,3.5,13,4.58,19.74.87,5.4,2.18,10.59,5.44,15.1a14.9,14.9,0,0,0,3.2,3.25,20.6,20.6,0,0,0,10.38,3.79c8.64-.58,16.95-2,24.54-.4,2.85.58,5.33,2.54,8,4a96,96,0,0,1,9.82,8.57c9.72,9.34,19.21,18.33,32.47,16.13,16.08-2.67,28.86-12.57,40.19-25.55,4.6-5.28,9-10.88,13.45-16.19a6.37,6.37,0,0,1,3-1.88c7.44-2.44,18.72-.38,25.74-9.47a42.59,42.59,0,0,0,5.8-10.89c4.37-7.51,5.69-22.63,12.4-22,19,1.64,30.69-16.3,34.79-34.72a57.67,57.67,0,0,0,1.59-11.71,60.25,60.25,0,0,0-.79-10.75,55.11,55.11,0,0,0-2.65-10.38c-2-3.55-5.76-5.86-9.56-7.33-12.87-5-29.8-4.08-42-11.2a13.67,13.67,0,0,1-7-11.49,18.87,18.87,0,0,1,1.19-7.52,16.47,16.47,0,0,1,3.71-5.59c3.49-3.7,7.31-6.92,9.86-11.14,3.47-3.57,7.64-6.2,11.61-9,2-1.43,4-2.72,5.79-4.2,5.07-4.21,10.17-8.09,14.56-15,2.68-4.21,1.45-10.09-.88-14.93-5.87-12.23-14.64-21.75-22.11-33-1.93-2.9-3.9-5.63-5.68-8.17a34.21,34.21,0,0,0-7.53-8A43.44,43.44,0,0,0,950.29,304c-4.69-1.87-10.63-2.44-13.74-5.88-19.46-21.53-44.44-35.26-72.74-29-1.48,0-3,.07-4.51.22a37.08,37.08,0,0,0-9.44,2.34c-1.66.31-3.31.67-5,1.1-1.14.31-2.27.65-3.39,1a56.13,56.13,0,0,0-15.61,8.35q-2.1,1.57-4.07,3.34A87,87,0,0,0,812.33,299c-2.88,4.95-5.42,10.16-7.87,15.36-1.05,2.22-2.08,4.44-3.1,6.62-6.08,2.12-13.08,5.11-18.08,10.2a3.69,3.69,0,0,1-2.69.69C776.65,329.61,772.5,328.71,768.28,330.66Z"/><path class="cls-1" d="M771.23,335.62c-10,5-21.49,14.49-21.16,28.09a66.47,66.47,0,0,1-.54,10.84,38.55,38.55,0,0,1-1,5.24c-3.44,11.59-9.22,23.76-4.09,36.21,2.82,6.79,6.47,13.58,6.83,21,.3,6.2-2.68,9.84-6.08,12.73s-7.9,4.8-10.54,8.15c-2.16,2.75-6,6.07-10.6,9.39-3.07,3.64-5.51,7.57-6.22,10.49-1,4-.61,8.34,5.51,14.91,11.17,12,22.37,23.64,29.41,39,2.59,5.64,12.5-3.73,20.43-2.63a8.22,8.22,0,0,1,5.2,3,10.39,10.39,0,0,1,1.71,3c2.9,5.8,3.37,12.47,4.4,18.89.83,5.18,2.06,10.14,5.15,14.47a13.89,13.89,0,0,0,3.06,3.12,19.61,19.61,0,0,0,9.94,3.6c8.31-.67,16.24-1.89,23.47-.37,2.73.57,5.12,2.41,7.72,3.77a93.48,93.48,0,0,1,9.44,8.14c9.35,8.88,18.45,17.46,31.11,15.54,15.93-2.43,28.41-12.33,39.48-25.24,4.5-5.25,8.77-10.8,13.15-16A6,6,0,0,1,930,559.1c7.26-2.29,18.53.07,25.52-8.92A40.67,40.67,0,0,0,961,540c4.12-7,5.42-21.07,11.64-20.71,17.53,1,28.16-15.93,31.7-33.17a54.42,54.42,0,0,0,1.31-11,56.76,56.76,0,0,0-.92-10,50.45,50.45,0,0,0-2.66-9.63c-1.91-3.3-5.43-5.46-9-6.83C980.84,444,964.59,444.77,953,438a13.12,13.12,0,0,1-6.72-11,18,18,0,0,1,1.11-7.17,15.75,15.75,0,0,1,3.56-5.32c3.34-3.49,7-6.5,9.58-10.45,3.36-3.35,7.33-5.86,11.07-8.62,1.89-1.4,3.74-2.68,5.37-4.15,4.57-4.19,9.16-8.15,13.09-14.81,2.4-4.07,1.23-9.65-1-14.29-5.49-11.68-13.71-20.89-20.92-31.57-1.85-2.74-3.75-5.32-5.49-7.73a33.53,33.53,0,0,0-7.27-7.53,44.57,44.57,0,0,0-9.64-5.38c-4.45-1.83-10.06-2.5-13.08-5.78-18.74-20.36-42.49-33.77-69.56-27.62-1.42,0-2.87,0-4.34.2a35.26,35.26,0,0,0-9.07,2.21c-1.59.31-3.17.67-4.74,1.1-1.1.3-2.18.64-3.25,1a53.3,53.3,0,0,0-14.9,8.19c-1.34,1-2.63,2.11-3.87,3.26a83.34,83.34,0,0,0-9.1,13c-2.75,4.77-5.17,9.79-7.5,14.79-1,2.14-2,4.27-2.94,6.38-5.93,1.69-12.8,4.27-17.78,8.92a3.71,3.71,0,0,1-2.6.65C779.21,334.28,775.22,333.62,771.23,335.62Z"/><path class="cls-1" d="M774.18,340.58c-9.17,5-19.77,14.07-19.58,26.8a66.67,66.67,0,0,1-.56,10.2,37.14,37.14,0,0,1-.89,4.94c-3.15,10.94-8.33,22.42-3.66,34.14,2.56,6.42,5.88,12.84,6.25,19.87.3,5.79-2.36,9.29-5.39,12.11s-7.08,4.79-9.39,8.06c-1.94,2.74-5.69,5.89-10.24,9-3.12,3.41-5.73,7.08-6.67,9.84-1.31,3.87-1.18,8,4.83,14.45,10.8,11.6,21.75,22.77,28.74,37.45,2.54,5.35,11.93-3.64,19.5-2.63a7.78,7.78,0,0,1,5,2.82,10.06,10.06,0,0,1,1.65,2.89c2.79,5.53,3.25,11.9,4.22,18,.78,4.95,1.95,9.7,4.86,13.84a13.47,13.47,0,0,0,2.91,3,18.69,18.69,0,0,0,9.51,3.41c8-.76,15.52-1.84,22.4-.35,2.61.57,4.9,2.29,7.38,3.6a86.3,86.3,0,0,1,9.07,7.71c9,8.41,17.69,16.6,29.74,14.94,15.79-2.18,28-12.09,38.79-24.93,4.39-5.21,8.55-10.73,12.83-15.92a5.72,5.72,0,0,1,2.91-1.79c7.09-2.13,18.34.51,25.31-8.37a38.35,38.35,0,0,0,5.2-9.44c3.87-6.54,5.16-19,10.87-19.35,16-1,25.63-15.56,28.63-31.63a50.36,50.36,0,0,0,1-10.21,52.44,52.44,0,0,0-1-9.29,47.75,47.75,0,0,0-2.66-8.89c-1.82-3-5.1-5-8.44-6.31-11.6-4.42-27.17-3.79-38.1-10.26a12.58,12.58,0,0,1-6.41-10.41,17,17,0,0,1,1-6.83,14.72,14.72,0,0,1,3.4-5c3.19-3.28,6.78-6.08,9.31-9.76,3.23-3.13,7-5.52,10.51-8.22a54,54,0,0,0,5-4.11c4.07-4.17,8.14-8.19,11.61-14.66,2.11-3.92,1-9.2-1-13.63-5.11-11.14-12.79-20-19.73-30.14-1.78-2.6-3.62-5-5.31-7.3a32.91,32.91,0,0,0-7-7.08,46.23,46.23,0,0,0-9.19-5.15c-4.22-1.8-9.48-2.55-12.41-5.67-18-19.2-40.56-32.29-66.38-26.29-1.37,0-2.76,0-4.17.17a33.83,33.83,0,0,0-8.72,2.1c-1.52.3-3,.66-4.53,1.09-1,.29-2.08.63-3.1,1a51.11,51.11,0,0,0-14.2,8c-1.26,1-2.49,2.06-3.67,3.17a81,81,0,0,0-8.67,12.48c-2.62,4.59-4.93,9.42-7.14,14.22-.94,2.06-1.87,4.12-2.78,6.14-5.79,1.26-12.53,3.44-17.47,7.65a3.81,3.81,0,0,1-2.51.6C781.77,338.94,777.94,338.52,774.18,340.58Z"/><path class="cls-1" d="M777.14,345.54c-8.41,5.08-18.07,13.64-18,25.52a69.31,69.31,0,0,1-.57,9.56,37.5,37.5,0,0,1-.83,4.63c-2.84,10.3-7.43,21.07-3.23,32.07,2.31,6.05,5.3,12.09,5.67,18.69.3,5.39-2,8.75-4.69,11.51s-6.26,4.78-8.25,8c-1.72,2.73-5.37,5.73-9.88,8.69-3.16,3.17-5.94,6.58-7.11,9.19-1.65,3.7-1.74,7.66,4.16,14,10.43,11.19,21.11,21.89,28.05,35.91,2.5,5,11.37-3.54,18.58-2.63a7.38,7.38,0,0,1,4.76,2.65,10,10,0,0,1,1.59,2.75c2.68,5.27,3.12,11.33,4,17.18.74,4.72,1.84,9.25,4.59,13.21a12,12,0,0,0,2.76,2.85,17.6,17.6,0,0,0,9.06,3.23c7.64-.85,14.82-1.78,21.35-.32,2.48.56,4.68,2.16,7,3.41a84.88,84.88,0,0,1,8.69,7.28c8.59,8,16.92,15.75,28.38,14.35,15.64-1.91,27.51-11.85,38.09-24.63,4.27-5.16,8.33-10.64,12.51-15.78a5.49,5.49,0,0,1,2.88-1.74c6.92-2,18.15,1,25.1-7.83a36.12,36.12,0,0,0,4.9-8.71c3.62-6,4.9-17.41,10.1-18,14.45-1.63,23.11-15.19,25.55-30.08a45.71,45.71,0,0,0,.72-9.46,48,48,0,0,0-1.16-8.56,43.64,43.64,0,0,0-2.67-8.15c-1.73-2.77-4.77-4.63-7.87-5.8-11-4.14-25.86-3.64-36.15-9.79a12,12,0,0,1-6.11-9.87,16,16,0,0,1,1-6.48,13.5,13.5,0,0,1,3.25-4.78c3-3.07,6.51-5.66,9-9.07,3.12-2.9,6.7-5.18,10-7.82a42.85,42.85,0,0,0,4.56-4.07c3.57-4.15,7.13-8.24,10.15-14.51,1.81-3.77.8-8.75-1.09-13-4.73-10.6-11.86-19.19-18.54-28.72-1.71-2.44-3.47-4.72-5.13-6.86a31.58,31.58,0,0,0-6.74-6.62,49.32,49.32,0,0,0-8.73-4.93c-4-1.76-8.91-2.61-11.75-5.57-17.31-18-38.62-30.8-63.21-25-1.31,0-2.64,0-4,.15a32,32,0,0,0-8.36,2c-1.45.3-2.9.66-4.32,1.08-1,.3-2,.63-3,1a48.6,48.6,0,0,0-13.49,7.88c-1.19,1-2.35,2-3.47,3.08a78.1,78.1,0,0,0-8.24,12c-2.5,4.41-4.69,9.05-6.77,13.65-.9,2-1.77,4-2.63,5.89-5.65.84-12.25,2.61-17.17,6.39a4,4,0,0,1-2.41.55C784.33,343.6,780.65,343.41,777.14,345.54Z"/><path class="cls-1" d="M780.09,350.5c-7.64,5.11-16.35,13.22-16.43,24.23a69.84,69.84,0,0,1-.59,8.92,36.33,36.33,0,0,1-.75,4.33c-2.54,9.65-6.54,19.72-2.8,30,2.05,5.67,4.72,11.34,5.08,17.5.3,5-1.71,8.21-4,10.9s-5.43,4.78-7.11,7.85c-1.49,2.73-5,5.57-9.51,8.35-3.2,2.94-6.16,6.07-7.55,8.53-2,3.53-2.31,7.33,3.47,13.53,10.06,10.79,20.49,21,27.37,34.37,2.45,4.76,10.81-3.43,17.66-2.62a7,7,0,0,1,4.54,2.49A9.76,9.76,0,0,1,791,521.5c2.57,5,3,10.76,3.85,16.32.69,4.5,1.73,8.81,4.3,12.58a11.36,11.36,0,0,0,2.61,2.72,16.75,16.75,0,0,0,8.63,3c7.31-.95,14.11-1.73,20.28-.3,2.36.54,4.47,2,6.7,3.22A79.13,79.13,0,0,1,845.7,566c8.22,7.49,16.16,14.89,27,13.75,15.5-1.63,27.09-11.58,37.39-24.32,4.18-5.12,8.12-10.56,12.21-15.64a5.19,5.19,0,0,1,2.84-1.7c6.74-1.83,18,1.4,24.9-7.28a34.81,34.81,0,0,0,4.59-8c3.37-5.58,4.64-15.85,9.34-16.66,12.88-2.22,20.57-14.82,22.47-28.53a41.75,41.75,0,0,0,.42-8.71,42.94,42.94,0,0,0-1.29-7.83,38.88,38.88,0,0,0-2.67-7.41,14.73,14.73,0,0,0-7.31-5.28c-10.33-3.86-24.54-3.5-34.18-9.32a11.46,11.46,0,0,1-5.81-9.34,15.19,15.19,0,0,1,.9-6.14,12.36,12.36,0,0,1,3.1-4.49c2.88-2.87,6.24-5.26,8.74-8.39,3-2.68,6.39-4.84,9.41-7.43a31.66,31.66,0,0,0,4.15-4,64.58,64.58,0,0,0,8.68-14.36c1.52-3.62.58-8.3-1.16-12.32-4.35-10.05-10.93-18.33-17.34-27.29-1.64-2.28-3.34-4.42-5-6.42a30.87,30.87,0,0,0-6.48-6.17,52,52,0,0,0-8.28-4.7c-3.76-1.72-8.33-2.67-11.08-5.47-16.59-16.86-36.69-29.31-60-23.62-1.25,0-2.52,0-3.81.13a31,31,0,0,0-8,1.85c-1.39.3-2.76.66-4.12,1.08q-1.43.44-2.82,1a45.82,45.82,0,0,0-12.78,7.72c-1.13,1-2.23,2-3.28,3a76,76,0,0,0-7.82,11.5c-2.37,4.24-4.45,8.68-6.4,13.08q-1.28,2.85-2.47,5.66c-5.51.41-12,1.77-16.87,5.11a4.22,4.22,0,0,1-2.32.51C786.89,348.26,783.36,348.3,780.09,350.5Z"/><path class="cls-1" d="M783,355.46c-6.88,5.14-14.64,12.79-14.85,23a71.56,71.56,0,0,1-.61,8.28,37.87,37.87,0,0,1-.67,4c-2.24,9-5.64,18.38-2.38,27.94,1.79,5.3,4.14,10.59,4.51,16.32a14.89,14.89,0,0,1-3.3,10.3c-2,2.68-4.6,4.78-6,7.74-1.26,2.73-4.74,5.4-9.14,8-3.25,2.71-6.38,5.57-8,7.89-2.35,3.35-2.87,7,2.8,13.06,9.68,10.39,19.85,20.15,26.68,32.84,2.41,4.47,10.24-3.34,16.74-2.61a6.51,6.51,0,0,1,4.32,2.32,9.24,9.24,0,0,1,1.46,2.46c2.47,4.74,2.88,10.2,3.68,15.47.65,4.27,1.61,8.36,4,11.95a10.2,10.2,0,0,0,2.46,2.59,15.77,15.77,0,0,0,8.18,2.86c7-1,13.41-1.68,19.22-.28,2.25.54,4.25,1.92,6.37,3a75.5,75.5,0,0,1,8,6.44c7.83,7,15.39,14,25.64,13.15,15.35-1.34,26.64-11.34,36.69-24,4.07-5.08,7.9-10.48,11.89-15.51a4.89,4.89,0,0,1,2.81-1.64c6.57-1.68,17.75,1.83,24.69-6.74a33.22,33.22,0,0,0,4.29-7.26c3.13-5.09,4.38-14.26,8.57-15.3,11.31-2.8,18-14.46,19.39-27a37.76,37.76,0,0,0,.13-8,39.49,39.49,0,0,0-1.41-7.1,34.71,34.71,0,0,0-2.68-6.67,14.08,14.08,0,0,0-6.74-4.77c-9.7-3.58-23.24-3.35-32.23-8.85a10.89,10.89,0,0,1-5.5-8.8,14.16,14.16,0,0,1,.83-5.79,11.42,11.42,0,0,1,2.94-4.22c2.73-2.66,6-4.84,8.47-7.7,2.87-2.45,6.07-4.5,8.85-7a26.54,26.54,0,0,0,3.75-4,69.06,69.06,0,0,0,7.2-14.21c1.24-3.47.37-7.85-1.22-11.66-4-9.51-10-17.48-16.16-25.87-1.56-2.12-3.19-4.11-4.76-6a30.82,30.82,0,0,0-6.22-5.72A59.48,59.48,0,0,0,927.9,334c-3.53-1.68-7.75-2.72-10.41-5.35-15.86-15.71-34.75-27.83-56.87-22.29-1.19,0-2.4,0-3.63.1a29.82,29.82,0,0,0-7.64,1.73c-1.32.3-2.63.66-3.92,1.07-.9.3-1.79.63-2.67,1a43.68,43.68,0,0,0-12.08,7.57c-1.06.92-2.09,1.9-3.08,2.91a72.82,72.82,0,0,0-7.39,11c-2.24,4.06-4.21,8.3-6,12.51-.79,1.82-1.56,3.63-2.31,5.41-5.36,0-11.7.94-16.56,3.85a4.66,4.66,0,0,1-2.23.46C789.45,352.93,786.08,353.19,783,355.46Z"/><path class="cls-1" d="M786,360.42c-6.13,5.15-12.93,12.37-13.27,21.66-.1,2.56-.28,5.12-.62,7.64-.17,1.2-.32,2.52-.6,3.72-2,8.36-4.75,17-2,25.87,1.54,4.92,3.56,9.85,3.93,15.14a15.67,15.67,0,0,1-2.6,9.7c-1.58,2.62-3.76,4.77-4.82,7.63s-4.43,5.24-8.79,7.66a57.68,57.68,0,0,0-8.44,7.23c-2.69,3.17-3.43,6.64,2.12,12.61,9.32,10,19.22,19.26,26,31.29,2.35,4.18,9.67-3.23,15.81-2.6a6.11,6.11,0,0,1,4.1,2.16,9,9,0,0,1,1.4,2.32c2.36,4.47,2.76,9.63,3.5,14.61.6,4,1.5,7.91,3.73,11.33a9.38,9.38,0,0,0,2.32,2.44,14.72,14.72,0,0,0,7.74,2.68c6.64-1.12,12.69-1.62,18.15-.25a27.2,27.2,0,0,1,6,2.86,70.91,70.91,0,0,1,7.58,6c7.45,6.57,14.62,13.21,24.27,12.56,15.21-1,26.19-11.1,36-23.7,4-5.05,7.69-10.41,11.59-15.38a4.64,4.64,0,0,1,2.77-1.59c6.4-1.53,17.55,2.26,24.48-6.2a30.78,30.78,0,0,0,4-6.53c2.88-4.6,4.12-12.68,7.81-13.95,9.74-3.36,15.51-14.1,16.31-25.45a33.94,33.94,0,0,0-.17-7.2,35.21,35.21,0,0,0-1.53-6.37,31.12,31.12,0,0,0-2.68-5.92,13.26,13.26,0,0,0-6.19-4.27c-9.07-3.29-21.92-3.2-30.27-8.37a10.37,10.37,0,0,1-5.19-8.26,13.15,13.15,0,0,1,.76-5.45,10.36,10.36,0,0,1,2.79-4c2.57-2.45,5.7-4.42,8.18-7,2.76-2.23,5.76-4.16,8.3-6.63a20.57,20.57,0,0,0,3.34-3.94,75.54,75.54,0,0,0,5.74-14.06c.95-3.31.14-7.4-1.3-11-3.59-9-9.07-16.63-15-24.44-1.49-2-3.05-3.82-4.59-5.55a30,30,0,0,0-6-5.26,72.22,72.22,0,0,0-7.37-4.26c-3.3-1.64-7.18-2.77-9.75-5.25-15.14-14.55-32.81-26.34-53.69-20.95-1.14,0-2.3,0-3.47.08a27.65,27.65,0,0,0-7.27,1.61c-1.25.29-2.49.65-3.71,1.06-.86.29-1.71.62-2.54,1a40.88,40.88,0,0,0-11.37,7.41c-1,.9-2,1.84-2.88,2.83a69.57,69.57,0,0,0-7,10.53c-2.12,3.87-4,7.93-5.68,11.93-.74,1.74-1.46,3.47-2.15,5.17-5.22-.43-11.42.11-16.26,2.58a5.17,5.17,0,0,1-2.14.42C792,357.59,788.78,358.07,786,360.42Z"/><path class="cls-1" d="M789,365.38c-5.4,5.16-11.22,11.94-11.7,20.37-.14,2.35-.33,4.69-.64,7-.15,1.11-.29,2.31-.52,3.42-1.65,7.72-3.86,15.69-1.53,23.81,1.28,4.54,3,9.1,3.34,13.95A17.08,17.08,0,0,1,776,443c-1.21,2.57-2.91,4.78-3.68,7.53s-4.11,5.07-8.42,7.31a68.53,68.53,0,0,0-8.88,6.59c-3,3-4,6.3,1.44,12.14,8.94,9.59,18.58,18.4,25.32,29.76,2.3,3.89,9.11-3.13,14.89-2.6a5.75,5.75,0,0,1,3.89,2,8.93,8.93,0,0,1,1.33,2.17c2.25,4.21,2.63,9.07,3.32,13.76.55,3.82,1.38,7.47,3.44,10.7a8.94,8.94,0,0,0,2.17,2.31,13.8,13.8,0,0,0,7.31,2.49c6.3-1.21,12-1.56,17.09-.22a26.42,26.42,0,0,1,5.68,2.67,64.5,64.5,0,0,1,7.21,5.58c7.08,6.1,13.85,11.54,22.91,12,15.05.7,25.73-10.86,35.29-23.39,3.85-5,7.48-10.33,11.27-15.24a4.39,4.39,0,0,1,2.74-1.55c6.23-1.38,17.33,2.68,24.27-5.65a29.4,29.4,0,0,0,3.69-5.8c2.63-4.12,3.86-11.09,7-12.61,8.17-3.89,13-13.73,13.23-23.9a29,29,0,0,0-2.11-12.09,28,28,0,0,0-2.69-5.18,12.64,12.64,0,0,0-5.63-3.75c-8.43-3-20.6-3.06-28.31-7.91a9.84,9.84,0,0,1-4.89-7.72,12.29,12.29,0,0,1,.69-5.1,9.55,9.55,0,0,1,2.64-3.68c2.42-2.24,5.43-4,7.9-6.32a62,62,0,0,0,7.75-6.23,17.85,17.85,0,0,0,2.94-3.89,88,88,0,0,0,4.26-13.92c.67-3.16-.07-6.95-1.37-10.34-3.21-8.43-8.15-15.77-13.77-23-1.41-1.81-2.9-3.51-4.4-5.11a29.82,29.82,0,0,0-5.69-4.81c-2.17-1.39-4.47-2.75-6.92-4-3.07-1.61-6.6-2.83-9.08-5.14-14.41-13.4-30.88-24.86-50.52-19.62-1.08,0-2.18,0-3.29.05a26.38,26.38,0,0,0-6.91,1.49c-1.19.29-2.36.65-3.51,1.05-.81.29-1.61.62-2.39,1A38.75,38.75,0,0,0,832.58,332c-.92.87-1.82,1.79-2.68,2.74a67.39,67.39,0,0,0-6.54,10c-2,3.7-3.72,7.56-5.31,11.37-.69,1.66-1.35,3.31-2,4.93-5.08-.86-11.15-.72-15.95,1.31a6.58,6.58,0,0,1-2.05.37A10.34,10.34,0,0,0,789,365.38Z"/><path class="cls-1" d="M791.9,370.34c-4.67,5.16-9.51,11.51-10.12,19.09-.17,2.13-.38,4.25-.66,6.36-.13,1-.25,2.09-.45,3.11-1.34,7.08-2.94,14.34-1.1,21.74,1,4.17,2.39,8.35,2.77,12.77a20.32,20.32,0,0,1-1.21,8.49c-.83,2.51-2,4.78-2.54,7.43s-3.8,4.9-8.05,7a81.56,81.56,0,0,0-9.33,5.93c-3.37,2.79-4.57,6,.77,11.68,8.56,9.19,17.93,17.53,24.63,28.23,2.25,3.59,8.55-3,14-2.6a5.35,5.35,0,0,1,3.67,1.84,8.84,8.84,0,0,1,1.27,2c2.14,3.94,2.51,8.49,3.13,12.9a25.4,25.4,0,0,0,3.17,10.07,7.86,7.86,0,0,0,2,2.18,12.79,12.79,0,0,0,6.86,2.3c6-1.3,11.28-1.51,16-.2a26.18,26.18,0,0,1,5.35,2.49,62,62,0,0,1,6.83,5.15c6.7,5.65,13.09,11,21.54,11.37,14.89.73,25.29-10.62,34.6-23.08,3.74-5,7.26-10.25,11-15.11a4.26,4.26,0,0,1,2.71-1.5c6.06-1.22,17.11,3.1,24.06-5.11a27.68,27.68,0,0,0,3.39-5.07c2.38-3.64,3.6-9.48,6.27-11.25,6.63-4.4,10.45-13.38,10.16-22.36a27.24,27.24,0,0,0-.76-5.7,26.27,26.27,0,0,0-1.77-4.92,24.77,24.77,0,0,0-2.7-4.43,12.14,12.14,0,0,0-5.06-3.24c-7.8-2.72-19.29-2.91-26.36-7.43a9.33,9.33,0,0,1-4.58-7.19,11.33,11.33,0,0,1,.62-4.76,8.35,8.35,0,0,1,2.49-3.4c2.26-2,5.16-3.58,7.61-5.63a38.93,38.93,0,0,0,7.21-5.83,15,15,0,0,0,2.52-3.85A105.39,105.39,0,0,0,944.6,396a21.78,21.78,0,0,0-1.43-9.69,75.21,75.21,0,0,0-12.58-21.59c-1.34-1.65-2.77-3.21-4.22-4.67a29.56,29.56,0,0,0-5.44-4.36c-2-1.27-4.2-2.55-6.46-3.8-2.84-1.57-6-2.89-8.42-5-13.68-12.23-28.93-23.37-47.34-18.29-1,0-2.06,0-3.11,0a25.12,25.12,0,0,0-6.55,1.37,30.89,30.89,0,0,0-3.3,1.05c-.77.29-1.52.61-2.25.95a36.13,36.13,0,0,0-10,7.1c-.86.85-1.69,1.73-2.48,2.66a63.92,63.92,0,0,0-6.12,9.55A117.26,117.26,0,0,0,820,362.1c-.64,1.57-1.25,3.14-1.84,4.68-4.94-1.28-10.87-1.55-15.65,0a8.1,8.1,0,0,1-2,.32A10.11,10.11,0,0,0,791.9,370.34Z"/><path class="cls-1" d="M794.85,375.3c-4,5.15-7.8,11.07-8.54,17.8q-.31,2.88-.67,5.72c-.12.92-.23,1.89-.38,2.81-1,6.43-2,13-.67,19.67a108.52,108.52,0,0,1,2.18,11.6,27.39,27.39,0,0,1-.51,7.87c-.45,2.46-1.18,4.77-1.4,7.33-.23,2.74-3.48,4.73-7.69,6.61A98.2,98.2,0,0,0,767.4,460c-3.7,2.59-5.13,5.62.09,11.22,8.2,8.78,17.28,16.65,24,26.68,2.2,3.31,8-2.93,13-2.58a4.87,4.87,0,0,1,3.45,1.67,9,9,0,0,1,1.21,1.88c2,3.68,2.38,7.93,3,12.05a24.45,24.45,0,0,0,2.88,9.44,7.25,7.25,0,0,0,1.87,2,12,12,0,0,0,6.43,2.12c5.64-1.4,10.56-1.46,15-.18a25.16,25.16,0,0,1,5,2.3,56.76,56.76,0,0,1,6.46,4.73c6.32,5.18,12.31,10.38,20.18,10.77,14.73.74,24.83-10.38,33.89-22.77,3.63-4.94,7.05-10.17,10.65-15A4,4,0,0,1,917.1,503c5.88-1.08,16.87,3.49,23.86-4.57A28,28,0,0,0,944,494c2.13-3.15,3.37-7.86,5.51-9.9,5.11-4.87,7.9-13,7.07-20.81a23.08,23.08,0,0,0-1-4.95,22.2,22.2,0,0,0-1.9-4.19,20.63,20.63,0,0,0-2.7-3.69,11.77,11.77,0,0,0-4.5-2.72c-7.17-2.44-18-2.77-24.4-7a8.73,8.73,0,0,1-4.27-6.65,10.3,10.3,0,0,1,.55-4.41,7.46,7.46,0,0,1,2.33-3.13c2.11-1.82,4.89-3.17,7.34-4.94a26.35,26.35,0,0,0,6.65-5.43,12.78,12.78,0,0,0,2.11-3.81,131.3,131.3,0,0,0,1.33-13.62,26.22,26.22,0,0,0-1.51-9,61.71,61.71,0,0,0-11.39-20.16,47.64,47.64,0,0,0-4-4.24,29.51,29.51,0,0,0-5.18-3.9l-6-3.58a52,52,0,0,1-7.76-4.94c-12.93-11.09-27-21.89-44.17-17-1,0-1.94,0-2.93,0a23.46,23.46,0,0,0-6.19,1.24,29.72,29.72,0,0,0-3.1,1.05c-.72.28-1.42.6-2.11.94a34.17,34.17,0,0,0-9.25,6.94c-.79.82-1.55,1.68-2.28,2.57a60.79,60.79,0,0,0-5.69,9.07,106.28,106.28,0,0,0-4.58,10.22c-.59,1.5-1.15,3-1.68,4.44-4.79-1.7-10.6-2.38-15.35-1.23a12.5,12.5,0,0,1-1.86.28A9.88,9.88,0,0,0,794.85,375.3Z"/><path class="cls-1" d="M797.8,380.26c-3.29,5.15-6.1,10.64-7,16.52-.25,1.7-.48,3.39-.69,5.08-.1.82-.2,1.67-.3,2.5a62.07,62.07,0,0,0-.25,17.6c.52,3.43,1.22,6.87,1.61,10.42a51.45,51.45,0,0,1,.18,7.27c-.07,2.4-.31,4.75-.26,7.22.06,2.73-3.16,4.57-7.32,6.27-3.46,1.53-7.42,3-10.21,4.63-4,2.39-5.7,5.28-.59,10.76,7.82,8.39,16.62,15.79,23.27,25.15,2.14,3,7.42-2.83,12.12-2.58a4.47,4.47,0,0,1,3.23,1.51,9.12,9.12,0,0,1,1.15,1.73c1.92,3.42,2.26,7.37,2.77,11.2a23.39,23.39,0,0,0,2.6,8.81,6.11,6.11,0,0,0,1.72,1.91,11,11,0,0,0,6,1.94,22.11,22.11,0,0,1,18.58,2,52.34,52.34,0,0,1,6.08,4.3c6,4.72,11.51,9.93,18.81,10.17,14.58.5,24.38-10.14,33.2-22.46,3.52-4.9,6.83-10.1,10.33-14.84a3.8,3.8,0,0,1,2.64-1.4c5.71-.93,16.61,3.86,23.65-4a30,30,0,0,0,2.79-3.62c1.87-2.67,3.15-6.24,4.73-8.55a25.92,25.92,0,0,0,4-19.27,20.07,20.07,0,0,0-1.34-4.19,19,19,0,0,0-4.73-6.42,12.23,12.23,0,0,0-3.94-2.21c-6.54-2.14-16.66-2.62-22.45-6.49a8.26,8.26,0,0,1-4-6.12,9.42,9.42,0,0,1,.48-4.06,6.72,6.72,0,0,1,2.18-2.86c2-1.61,4.63-2.75,7.06-4.25a18.3,18.3,0,0,0,6.1-5,11.06,11.06,0,0,0,1.71-3.77c.07-4,.13-8.53-.15-13.47a36,36,0,0,0-1.58-8.37,50.23,50.23,0,0,0-10.19-18.74,38.48,38.48,0,0,0-3.86-3.8,30.07,30.07,0,0,0-4.91-3.45c-1.82-1-3.67-2.16-5.55-3.35a70.37,70.37,0,0,1-7.09-4.83c-12.18-10-25.06-20.41-41-15.62-.9,0-1.82-.06-2.76,0a22.16,22.16,0,0,0-5.82,1.12,28.52,28.52,0,0,0-2.9,1c-.67.29-1.32.6-2,.94a31.45,31.45,0,0,0-8.55,6.78c-.72.8-1.41,1.63-2.08,2.48a57.77,57.77,0,0,0-5.26,8.58,100.65,100.65,0,0,0-4.22,9.66c-.54,1.42-1,2.82-1.53,4.2a27.92,27.92,0,0,0-15-2.5c-.59.08-1.21.17-1.77.23A9.65,9.65,0,0,0,797.8,380.26Z"/><path class="cls-1" d="M854.21,350.83c-16.84,1.1-25.08,18.89-29.76,33.12-8.31-4.71-20.16-5.85-23.69,1.27-10.6,20.17-5.79,39.11-3.35,60.42,1.21,8.29-32,7.22-18.89,20.2,7.14,8.27,15.45,15.35,22.59,23.62,2.38,3.54,9.46-6,14.21-1.24,4.76,5.91,2.42,14.21,6,20.12,1.19,2.37,4.75,3.54,7.12,3.53,18.93-6,26.11,14.13,40.33,15.26,20.14,1.12,30.73-20.24,42.52-36.86,3.53-4.75,17.78,4.68,26-4.83,10.62-10.69,12.92-32-2.5-37.89-9.48-2.34-27.25-3.47-23.74-15.32,2.35-5.93,14.2-4.79,15.65-14.51-1.49-14-2.79-35.29-20.59-44.7-15.43-8.24-29.71-28.33-49.34-22.14C856,350.85,855.09,350.83,854.21,350.83Z"/></svg>