<svg xmlns="http://www.w3.org/2000/svg" viewBox="0 0 630 350"><defs><style>.cls-1{fill:#f42525;}</style></defs><title>personal-website-design</title><g id="Layer_1" data-name="Layer 1"><path class="cls-1" d="M259.08,15.15,141.24,153.94l-7.86,9.25,8.05,9.08L279.78,328.64H210l-121.65-140L71.84,169.53l16.7-19.88L201.48,15.15h57.6m-195.26,0V328.64H14V15.15H63.82m225.51-14H195L77.82,140.64V1.15H0V342.64H77.82V197.77L203.65,342.64H310.86L151.91,163,289.33,1.15Z"/><path class="cls-1" d="M452.5,15.15v40.3H371.37V328.64H321.55V55.45H240.42V15.15H452.5m14-14H226.42v68.3h81.13V342.64h77.82V69.45H466.5V1.15Z"/><path class="cls-1" d="M548.87,138.09a75.57,75.57,0,0,1,27.7,5.43l-18,36.5a83,83,0,0,0-32-6.19c-47.71,0-57.46,45-57.46,57v97.76H423.79V144.3h45.27v30.63h22.56l4.11-6.55a75.57,75.57,0,0,1,13.95-15.13c12-10.06,25.22-15.16,39.19-15.16m0-14c-41.81,0-65,36.84-65,36.84h-.82V130.3H409.79V342.64h73.27V230.88c0-5.38,5.38-43,43.46-43,24.42,0,38.08,11.59,38.08,11.59l30.63-62.09s-19-13.24-46.36-13.24Z"/><path class="cls-1" d="M630,301.66a47.4,47.4,0,1,1-47.6-47.6A47.26,47.26,0,0,1,630,301.66Z"/></g></svg>