<svg xmlns="http://www.w3.org/2000/svg" viewBox="0 0 630 350"><defs><style>.cls-1{fill:#f42525;}</style></defs><title>personal-website-design</title><g id="Layer_1" data-name="Layer 1"><path d="M203.65,342.64,77.82,197.77V342.64H0V1.15H77.82V140.64L195,1.15h94.37L151.91,163l159,179.64Z"/><path d="M226.42,1.15H466.5v68.3H385.37V342.64H307.55V69.45H226.42Z"/><path d="M409.79,130.3h73.27v30.63h.82s23.19-36.84,65-36.84c27.32,0,46.36,13.24,46.36,13.24L564.6,199.42s-13.66-11.59-38.08-11.59c-38.08,0-43.46,37.67-43.46,43V342.64H409.79Z"/><path class="cls-1" d="M630,301.66a47.4,47.4,0,1,1-47.6-47.6A47.26,47.26,0,0,1,630,301.66Z"/></g></svg>