<svg xmlns="http://www.w3.org/2000/svg" viewBox="0 0 630 439.51"><defs><style>.cls-1{fill:#f42525;}</style></defs><title>personal-website-design</title><g id="main"><path class="cls-1" d="M449.5,74.87v34.3H368.37V382.36H324.55V109.17H223.48l-5.1,6L139,208.71,129.41,220l9.77,11L273.12,382.36H211.4l-120.75-139L75.78,226.22,90.84,208.3l112-133.43H449.5m-388.68,0V382.36H17V74.87H60.82m405.68-17H195L77.82,197.36V57.87H0V399.36H77.82V254.49L203.65,399.36H385.37V126.17H466.5V57.87ZM307.55,395.62,151.91,219.72l79.43-93.55h76.21V395.62Z"/><path class="cls-1" d="M548.87,197.81a71.91,71.91,0,0,1,23.54,4.08L557.09,233a86.67,86.67,0,0,0-30.57-5.4c-21.79,0-39.75,9.84-50.56,27.71-7.83,12.95-9.9,26.82-9.9,32.34v94.76H426.79V204h39.27v30.63h27.21l5-8c.18-.29,19.07-28.89,50.6-28.89m0-17c-41.8,0-65,36.84-65,36.84h-.82V187H409.79V399.36h73.27V287.6c0-5.38,5.38-43.05,43.46-43.05,24.42,0,38.08,11.59,38.08,11.59l30.63-62.09s-19-13.24-46.36-13.24Z"/><path class="cls-1" d="M630,352.17a47.4,47.4,0,1,1-47.6-47.6A47.26,47.26,0,0,1,630,352.17Z"/></g></svg>