<svg xmlns="http://www.w3.org/2000/svg" viewBox="0 0 482 482"><defs><style>.cls-1{fill:#fff;}</style></defs><title>personal-website-design</title><g id="main"><path class="cls-1" d="M172.42,346.16,94.93,256.93v89.23H47V135.84H94.93v85.91l72.14-85.91h58.12l-84.63,99.68,97.89,110.64Z"/><path class="cls-1" d="M186.45,135.84H334.3v42.07h-50V346.16H236.41V177.91h-50Z"/><path class="cls-1" d="M299.38,215.38H344.5v18.86H345s14.28-22.68,40-22.68a54.23,54.23,0,0,1,28.55,8.15L394.72,258s-8.41-7.14-23.45-7.14c-23.45,0-26.77,23.2-26.77,26.52v68.83H299.38Z"/><path class="cls-1" d="M435,317.1a29.19,29.19,0,1,1-29.32-29.32A29.1,29.1,0,0,1,435,317.1Z"/></g></svg>