<svg xmlns="http://www.w3.org/2000/svg" viewBox="0 0 630 439.51"><defs><style>.cls-1{fill:#dbdbdb;}.cls-2{fill:#f42525;}</style></defs><title>personal-website-design</title><g id="main"><path class="cls-1" d="M630,387.66a47.4,47.4,0,1,1-47.6-47.6A47.26,47.26,0,0,1,630,387.66Z"/><path class="cls-1" d="M203.65,434.85,77.82,290V434.85H0V93.36H77.82V232.85L195,93.36h94.37L151.91,255.21l159,179.64Z"/><path class="cls-1" d="M226.42,93.36H466.5v68.3H385.37V434.85H307.55V161.66H226.42Z"/><path class="cls-1" d="M409.79,222.51h73.27v30.63h.82s23.19-36.84,65-36.84c27.32,0,46.36,13.24,46.36,13.24L564.6,291.63S550.94,280,526.52,280c-38.08,0-43.46,37.67-43.46,43V434.85H409.79Z"/><path class="cls-2" d="M259.08,70.36,141.24,209.14l-7.86,9.25,8.05,9.09L279.78,383.85H210L88.39,243.79l-16.55-19,16.7-19.88L201.48,70.36h57.6m-195.26,0V383.85H14V70.36H63.82m225.51-14H195L77.82,195.85V56.36H0V397.85H77.82V253L203.65,397.85H310.86l-159-179.64L289.33,56.36Z"/><path class="cls-2" d="M452.5,70.36v40.3H371.37V383.85H321.55V110.66H240.42V70.36H452.5m14-14H226.42v68.3h81.13V397.85h77.82V124.66H466.5V56.36Z"/><path class="cls-2" d="M548.87,193.3a75.57,75.57,0,0,1,27.7,5.43l-18,36.5a83,83,0,0,0-32-6.19c-47.71,0-57.46,45-57.46,57v97.76H423.79V199.51h45.27v30.63h22.56l4.11-6.55a75.57,75.57,0,0,1,13.95-15.13c12-10.06,25.22-15.16,39.19-15.16m0-14c-41.81,0-65,36.84-65,36.84h-.82V185.51H409.79V397.85h73.27V286.09c0-5.38,5.38-43,43.46-43,24.42,0,38.08,11.59,38.08,11.59l30.63-62.09s-19-13.24-46.36-13.24Z"/><path class="cls-2" d="M630,350.66a47.4,47.4,0,1,1-47.6-47.6A47.26,47.26,0,0,1,630,350.66Z"/></g></svg>