<svg xmlns="http://www.w3.org/2000/svg" viewBox="0 0 630 439.51"><defs><style>.cls-1{fill:#f42525;}</style></defs><title>personal-website-design</title><g id="main"><path class="cls-1" d="M259.08,71.87,141.24,210.66l-7.86,9.25,8.05,9.08L279.78,385.36H210l-121.65-140L71.84,226.25l16.7-19.88L201.48,71.87h57.6m-195.26,0V385.36H14V71.87H63.82m225.51-14H195L77.82,197.37V57.87H0V399.36H77.82V254.49L203.65,399.36H310.86l-159-179.64L289.33,57.87Z"/><path class="cls-1" d="M452.5,71.87v40.3H371.37V385.36H321.55V112.17H240.42V71.87H452.5m14-14H226.42v68.3h81.13V399.36h77.82V126.17H466.5V57.87Z"/><path class="cls-1" d="M548.87,194.81a75.57,75.57,0,0,1,27.7,5.43l-18,36.5a83,83,0,0,0-32-6.19c-47.71,0-57.46,45-57.46,57.05v97.76H423.79V201h45.27v30.63h22.56l4.11-6.55A75.57,75.57,0,0,1,509.68,210c12-10.06,25.22-15.16,39.19-15.16m0-14c-41.81,0-65,36.84-65,36.84h-.82V187H409.79V399.36h73.27V287.6c0-5.38,5.38-43.05,43.46-43.05,24.42,0,38.08,11.59,38.08,11.59l30.63-62.09s-19-13.24-46.36-13.24Z"/><path class="cls-1" d="M630,352.17a47.4,47.4,0,1,1-47.6-47.6A47.26,47.26,0,0,1,630,352.17Z"/></g></svg>