<svg xmlns="http://www.w3.org/2000/svg" xmlns:xlink="http://www.w3.org/1999/xlink" viewBox="0 0 482 482"><defs><style>.cls-1{fill:url(#linear-gradient);}.cls-2{fill:#fff;}</style><linearGradient id="linear-gradient" x1="57.59" y1="57.59" x2="300.79" y2="300.79" gradientUnits="userSpaceOnUse"><stop offset="0" stop-color="#f42525"/><stop offset="1" stop-color="#e99900"/></linearGradient></defs><title>personal-website-design</title><g id="main"><rect class="cls-1" width="482" height="482" rx="84" ry="84"/><path class="cls-2" d="M334.16,136h-167l-72,85.78V136H47.29V346H95.15V256.91L172.53,346H284.27V178h49.89ZM140.71,235.53,189.56,178h46.86V343.7Z"/><path class="cls-2" d="M413.33,219.75a54.08,54.08,0,0,0-28.51-8.15c-25.71,0-40,22.65-40,22.65h-.51V215.42H299.29V346h45.06V277.27c0-3.31,3.31-26.47,26.72-26.47,15,0,23.42,7.13,23.42,7.13Z"/><path class="cls-2" d="M405.44,287.71A29.15,29.15,0,1,0,434.71,317,29.06,29.06,0,0,0,405.44,287.71Z"/></g></svg>