<svg xmlns="http://www.w3.org/2000/svg" viewBox="0 0 482 482"><defs><style>.cls-1{fill:#fff;}.cls-2{fill:#f42525;}</style></defs><title>personal-website-design</title><g id="main"><path class="cls-1" d="M175.85,340.9l-73.62-84.76V340.9H56.7V141.1h45.53v81.61l68.54-81.61H226l-80.4,94.69,93,105.11Z"/><path class="cls-1" d="M189.17,141.1H329.64v40H282.17V340.9H236.64V181.06H189.17Z"/><path class="cls-1" d="M296.46,216.66h42.87v17.92h.48s13.57-21.55,38-21.55A51.46,51.46,0,0,1,405,220.78L387,257.11s-8-6.79-22.28-6.79c-22.28,0-25.43,22-25.43,25.19V340.9H296.46Z"/><path class="cls-2" d="M425.3,313.29a27.73,27.73,0,1,1-27.85-27.85A27.65,27.65,0,0,1,425.3,313.29Z"/></g></svg>