<svg version="1" xmlns="http://www.w3.org/2000/svg" width="2678.667" height="2678.667" viewBox="0 0 2009.000000 2009.000000"><path d="M195.9 568.5c0 1.1-.1 198.3-.2 438.2l-.2 436.3h200.2l-.1-185.5c-.1-102 .2-185.5.7-185.5.4 0 .7.3.7.7 0 .5 2 2.9 4.3 5.4 2.3 2.5 5.3 5.9 6.7 7.5 9.1 10.5 28 32.4 30 34.8 1.4 1.6 3.2 3.6 4 4.5.9.9 4.3 4.7 7.5 8.6 3.3 3.8 6.5 7.5 7 8.1 3.4 3.8 12.7 14.5 15.1 17.4 1.6 1.9 3.4 3.9 4 4.5.6.5 5.3 5.9 10.4 12 5.2 6 11.3 13 13.5 15.5 2.2 2.5 6.3 7.2 9.1 10.5s9.8 11.4 15.6 18c5.7 6.6 11.5 13.3 12.9 14.9 1.3 1.6 2.9 3.4 3.5 4 .5.6 7.5 8.5 15.3 17.6 22.2 25.6 24.5 28.3 25.6 29.4.6.6 5.3 6.1 10.5 12.1 8.4 9.8 13.3 15.4 16.5 18.9.6.6 5 5.8 10 11.6 4.9 5.8 9.2 10.7 9.5 11 .6.6 12.1 13.8 29 33.4 1.9 2.3 3.7 4.3 4 4.6.3.3 3.4 3.9 6.9 8 3.6 4.1 7 7.9 7.5 8.5.6.5 3.4 3.7 6.1 7 2.8 3.3 5.7 6.7 6.5 7.5.8.9 8 9.1 15.9 18.3l14.5 16.7 233-.2 233.1-.3.2-348.5c.1-191.7.2-349.3.2-350.3.1-1.6 5.7-1.7 104.1-1.7h104V566.5H696l-5.1 6c-2.8 3.3-5.8 6.9-6.7 8-1 1.1-6.5 7.6-12.3 14.5-5.8 6.9-12.8 15.2-15.4 18.5-2.7 3.3-5.4 6.5-6 7.1-.6.6-2.7 3.1-4.6 5.4-1.8 2.3-3.9 4.7-4.4 5.4-.6.6-6.9 8.1-14 16.6-7.2 8.5-19.3 22.9-27 32.1-7.7 9.1-26.4 31.3-41.5 49.4-15.1 18-28.2 33.5-29 34.5-.8 1-3.3 3.9-5.5 6.6-2.2 2.6-15.2 18.1-28.9 34.4-13.6 16.2-26.2 31.2-28 33.4-1.7 2.1-3.5 4.3-4.1 5-.5.6-3.5 4-6.5 7.6-3 3.5-6.5 7.6-7.6 9-1.2 1.4-12 14.2-24 28.6-29.4 35-29.4 35-29.5 33.3 0-.8-.1-81-.2-178.4l-.2-177h-99.7c-99.1 0-99.8 0-99.9 2zM985 1087.2l-.1 345.3-4.2-4.6c-2.3-2.5-6.7-7.4-9.7-10.9-3-3.5-6.6-7.5-8-9-1.4-1.5-4-4.5-5.9-6.6-1.9-2.2-5.1-5.7-7-7.9-2-2.2-6.3-7.1-9.6-10.9-3.3-3.8-6.9-7.8-8-9.1-1.1-1.2-4.7-5.2-8-9-3.3-3.7-7.8-8.8-10.1-11.4-2.3-2.5-9.9-11.1-16.9-19.1-10.9-12.4-23.4-26.5-27-30.4-.5-.6-4.1-4.7-8-9.1-3.8-4.4-7.6-8.7-8.5-9.6-1.3-1.3-8.1-9-14.3-16.3-1-1.2-4.4-5-7.6-8.6-3.2-3.6-10-11.2-15.1-17-5.1-5.8-12.3-13.9-15.9-17.9-3.6-4.1-8.6-9.8-11.1-12.6-2.5-2.8-7.5-8.4-11.1-12.5-3.7-4.1-14.2-16.1-23.4-26.5-9.3-10.5-19.6-22.2-23-26-16.1-18.1-40.6-45.8-46-52-3.3-3.7-6.4-7.3-7-7.9-.5-.6-4.4-4.9-8.5-9.6-4.1-4.7-7.9-9-8.5-9.6-.5-.6-3.5-3.9-6.5-7.4-3-3.5-7-7.9-8.7-9.8-1.8-1.8-4.2-4.5-5.4-6-1.1-1.5-3.7-4.5-5.8-6.7-2-2.2-8.6-9.6-14.6-16.5-6.1-6.9-12.6-14.3-14.6-16.5-11-12.1-19.3-21.5-20.1-23-.4-.6.5-2.5 2-4.2 1.5-1.6 3.6-4.1 4.7-5.4 10.6-12.6 14.6-17.3 19.4-22.9 3.1-3.6 6.1-7 6.6-7.6.6-.6 2.8-3.3 5-6 3.7-4.4 20.6-24.4 23-27 .5-.7 2.6-3.1 4.4-5.4 1.9-2.3 4-4.8 4.5-5.4.6-.6 3.6-4 6.6-7.6 3-3.6 6-7 6.5-7.6.6-.6 3-3.5 5.4-6.4 2.5-2.9 5-5.8 5.5-6.4.6-.6 2.8-3.1 4.8-5.6 2-2.5 4.7-5.7 6-7.1 1.3-1.5 4.1-4.8 6.3-7.5 2.2-2.6 5.8-6.9 8-9.4 4.4-5.2 5.5-6.4 16.9-20 4.4-5.2 8.5-10 9.1-10.6.5-.6 2.8-3.2 5-5.9 2.2-2.6 9.6-11.4 16.5-19.5 6.9-8 17.9-21 24.5-28.8l11.9-14.2H985v345.2z"/><path d="M1603.8 881.4c-.1.2-5.4.6-11.7 1-6.2.3-11.6.8-12 1-.3.2-2.8.7-5.6 1-18.7 2.5-43.4 11.6-64.5 24-24.2 14.1-52.3 39.8-69.4 63.4-2.1 2.9-4.1 5-4.5 4.7-.3-.4-.6-18.1-.7-39.3-.1-21.3-.2-38.9-.3-39.2-.1-.4-180.9-.4-186.8-.1-.8.1-1.1 67.8-1.1 272.6V1443h188.3v-144.7c0-160.1-.2-153.8 6.4-174.1 12.2-37 35-61.7 67.2-72.5 6.7-2.3 9-2.9 15.4-4.1 9.8-1.8 29.7-2.4 39.6-1.1 3 .4 6.1.8 6.9.8 2.1-.1 20.9 3.6 24.5 4.7 18.8 6 32.1 11.9 42.8 19.1 5.1 3.5 6 3.8 7.2 2.5.8-.8 1.5-1.7 1.5-2 0-.3 8.2-17.1 18.1-37.3 46.2-93.6 57.9-117.5 57.9-118.3 0-1.2-15.2-9.4-26.9-14.5-9.9-4.4-24.2-9.5-32.1-11.5-4.3-1.2-5.6-1.5-10.1-2.5-1.1-.2-2.8-.6-3.7-.9-4-1.2-22.9-3.6-32.9-4.2-5.9-.3-11.3-.7-12-.9-.6-.2-1.3-.2-1.5-.1zM1680.5 1199.8c-39.3 3.8-72.8 24.4-93.3 57.4-6.8 11-13.7 28.7-15.8 40.8-.3 1.4-.7 3.6-1 5-1 4.6-1.2 28.4-.3 34.5 6.5 45.4 35.8 82 78.4 98 5.5 2.1 14.2 4.5 22 6.1 6.6 1.3 32.1 1.2 40-.2 26.6-4.8 47.7-15.7 66.6-34.4 19.4-19.4 31.5-43.8 34.5-70 4.9-42-11-82.5-43.1-109.8-15.5-13.3-42-24.6-62.5-26.7-7.9-.9-20.4-1.2-25.5-.7z"/></svg>