<svg version="1" xmlns="http://www.w3.org/2000/svg" width="1340" height="1340" viewBox="0 0 1005.000000 1005.000000"><path d="M.2 502.4l.3 272.1 61.7.2c57.5.2 61.8.1 61.9-1.5 0-.9.1-52.7.1-115 .1-62.2.5-113.2 1-113.2.4 0 .8.3.8.7 0 .5 1.9 2.8 4.1 5.3 2.2 2.5 4.8 5.4 5.7 6.5 7.3 8.4 14.9 17.1 16.2 18.5.8.9 2.6 3 4 4.6 7.8 9.1 21.5 25 22 25.4.3.3 6.2 7 13 15 6.9 8 13.9 16.1 15.6 18 1.7 1.9 11.1 12.7 20.9 24 9.7 11.3 18.9 21.8 20.4 23.5 2.3 2.6 26.5 30.5 41.2 47.5 2.6 3 6.1 7.1 7.8 9 1.7 1.9 8.6 9.9 15.4 17.7l12.2 14.1 145-.1 145-.2V557.3c0-144.1.3-217.3 1-217.4.6-.1 29.6-.2 64.5-.3l63.5-.1v-109l-216.2-.1-216.3-.1-8.6 10.1c-4.7 5.5-9.3 11-10.3 12.1-.9 1.1-8.6 10.3-17.1 20.4-8.5 10.1-18.3 21.8-21.8 26-3.5 4.2-7.1 8.5-8 9.6-1 1.1-5.5 6.5-10.1 12s-9.3 11.1-10.5 12.5c-1.2 1.4-13.8 16.4-28.1 33.4s-32.5 38.6-40.4 48c-7.8 9.4-16.2 19.3-18.5 22-6.3 7.5-11.7 14-12.6 14.9-.4.4-.6-48.3-.6-108.3.1-60-.2-109.9-.6-110.9-.6-1.8-3.6-1.9-62.2-1.8H0l.2 272.1zm489.9-161.9c.3 4.6.1 426.6-.2 426.9-.2.2-6.4-6.5-13.6-14.8-7.3-8.3-14.3-16.2-15.5-17.6-2.8-3-25.8-29-30.1-34-1.7-1.9-4.9-5.5-7.1-8-2.3-2.5-6.8-7.6-10.1-11.4-3.3-3.8-6.9-7.9-8-9-1.1-1.2-8.5-9.6-16.5-18.6-7.9-9.1-16-18.3-18-20.4-5.4-6.1-7.3-8.2-9.7-10.9-1.2-1.4-7.6-8.7-14.4-16.4-6.7-7.6-15.2-17.2-18.8-21.3-3.6-4.1-7.9-9-9.6-10.7-1.6-1.8-3.5-3.8-4-4.5-.6-.7-10.2-11.7-21.4-24.3-11.2-12.7-23.1-26.1-26.5-29.9-3.3-3.9-10-11.4-14.8-16.7-4.9-5.3-8.8-10-8.8-10.3 0-.4 2.8-3.9 6.1-7.9 3.4-4 7.1-8.3 8.3-9.7 1.1-1.4 6.1-7.2 11-13s10.8-12.8 13.1-15.5c2.4-2.8 8.7-10.2 14-16.5 5.4-6.3 11.7-13.8 14-16.5 2.4-2.8 9.8-11.5 16.5-19.5 6.7-8 13.4-15.9 14.9-17.5 1.5-1.7 6.5-7.5 11.1-13 12.2-14.4 13.3-15.7 15.5-18 2-2 2.7-2 62.2-2 39.5 0 60.3.3 60.4 1z"/><path d="M865.8 426.5c-.2.1-3.1.6-6.5.9-15.5 1.6-36.7 10.4-52.6 21.7-10.1 7.1-25.3 21.9-31.2 30.2-2.2 3.1-4.3 5.6-4.6 5.7-.3 0-.6-10.9-.6-24.3v-24.2l-58.5-.1-58.5-.1-.1 169.3v169.3H770.5v-92.7c0-84.8.2-93.2 1.8-99.1 4.3-15.8 10.2-26.5 20.3-36.7 12.8-13 28.5-18.5 50.7-17.9 18.4.5 35.3 5.1 49.7 13.5 3.9 2.3 7.3 4 7.5 3.8.2-.1 9.5-19 20.8-41.8 11.2-22.8 22.1-44.9 24.1-49 4.4-8.8 5-7.8-8.9-14.5-13.6-6.5-23.8-9.6-42.5-13-3.6-.7-27.6-1.5-28.2-1zM913.4 625.1c-9.4 1.9-23 7.9-29.8 13.1-33.2 25.7-40.2 73-15.6 106.3 9.2 12.5 26.5 24.2 41.5 28.1 13.3 3.4 33.3 2.3 46-2.6 28.4-10.9 47.4-36.9 48.8-66.5 2.4-49.8-42.2-88.2-90.9-78.4z"/></svg>