<svg xmlns="http://www.w3.org/2000/svg" xmlns:xlink="http://www.w3.org/1999/xlink" viewBox="0 0 896 1366"><defs><style>.cls-1,.cls-10,.cls-11,.cls-12,.cls-13,.cls-14,.cls-15,.cls-3,.cls-4,.cls-5,.cls-6,.cls-7,.cls-8{fill:none;}.cls-2{clip-path:url(#clip-path);}.cls-10,.cls-11,.cls-12,.cls-13,.cls-14,.cls-15,.cls-3,.cls-4,.cls-5,.cls-6,.cls-7,.cls-8{stroke-linecap:round;stroke-linejoin:round;stroke-width:17px;}.cls-3{stroke:url(#linear-gradient);}.cls-4{stroke:url(#linear-gradient-2);}.cls-5{stroke:url(#linear-gradient-3);}.cls-6{stroke:url(#linear-gradient-4);}.cls-7{stroke:url(#linear-gradient-5);}.cls-8{stroke:url(#linear-gradient-6);}.cls-9{clip-path:url(#clip-path-2);}.cls-10{stroke:url(#linear-gradient-7);}.cls-11{stroke:url(#linear-gradient-8);}.cls-12{stroke:url(#linear-gradient-9);}.cls-13{stroke:url(#linear-gradient-10);}.cls-14{stroke:url(#linear-gradient-11);}.cls-15{stroke:url(#linear-gradient-12);}</style><clipPath id="clip-path"><polygon class="cls-1" points="350.27 91.95 108.72 177.67 303.73 344 350.27 91.95"/></clipPath><linearGradient id="linear-gradient" x1="526.69" y1="-103.02" x2="70.86" y2="352.81" gradientUnits="userSpaceOnUse"><stop offset="0" stop-color="#fff"/><stop offset="0.9"/></linearGradient><linearGradient id="linear-gradient-2" x1="546.21" y1="-67.48" x2="90.39" y2="388.35" xlink:href="#linear-gradient"/><linearGradient id="linear-gradient-3" x1="565.74" y1="-31.93" x2="109.91" y2="423.89" xlink:href="#linear-gradient"/><linearGradient id="linear-gradient-4" x1="585.26" y1="3.61" x2="129.43" y2="459.44" xlink:href="#linear-gradient"/><linearGradient id="linear-gradient-5" x1="604.78" y1="39.15" x2="148.96" y2="494.98" xlink:href="#linear-gradient"/><linearGradient id="linear-gradient-6" x1="624.31" y1="74.69" x2="168.48" y2="530.52" xlink:href="#linear-gradient"/><clipPath id="clip-path-2"><circle class="cls-1" cx="752.4" cy="1004.28" r="76.5"/></clipPath><linearGradient id="linear-gradient-7" x1="567.27" y1="879.6" x2="999.4" y2="879.6" xlink:href="#linear-gradient"/><linearGradient id="linear-gradient-8" x1="538.93" y1="908.6" x2="971.06" y2="908.6" xlink:href="#linear-gradient"/><linearGradient id="linear-gradient-9" x1="510.59" y1="937.61" x2="942.72" y2="937.61" xlink:href="#linear-gradient"/><linearGradient id="linear-gradient-10" x1="482.25" y1="966.61" x2="914.38" y2="966.61" xlink:href="#linear-gradient"/><linearGradient id="linear-gradient-11" x1="453.9" y1="995.61" x2="886.04" y2="995.61" xlink:href="#linear-gradient"/><linearGradient id="linear-gradient-12" x1="425.56" y1="1024.62" x2="857.7" y2="1024.62" xlink:href="#linear-gradient"/></defs><title>personal-website-design</title><g id="Hi-bg-stroked-2"><g class="cls-2"><line class="cls-3" x1="-26.99" y1="242.94" x2="624.54" y2="6.85"/><line class="cls-4" x1="-7.46" y1="278.48" x2="644.06" y2="42.39"/><line class="cls-5" x1="12.06" y1="314.02" x2="663.59" y2="77.94"/><line class="cls-6" x1="31.58" y1="349.56" x2="683.11" y2="113.48"/><line class="cls-7" x1="51.11" y1="385.11" x2="702.63" y2="149.02"/><line class="cls-8" x1="70.63" y1="420.65" x2="722.15" y2="184.56"/></g><g class="cls-9"><line class="cls-10" x1="575.77" y1="602.16" x2="990.9" y2="1157.03"/><line class="cls-11" x1="547.43" y1="631.16" x2="962.56" y2="1186.04"/><line class="cls-12" x1="519.09" y1="660.17" x2="934.22" y2="1215.04"/><line class="cls-13" x1="490.75" y1="689.17" x2="905.88" y2="1244.05"/><line class="cls-14" x1="462.4" y1="718.18" x2="877.54" y2="1273.05"/><line class="cls-15" x1="434.06" y1="747.18" x2="849.2" y2="1302.06"/></g></g></svg>