<svg xmlns="http://www.w3.org/2000/svg" viewBox="0 0 896 1366"><defs><style>.cls-1{fill:#f42525;}.cls-2{fill:#dbdbdb;}</style></defs><title>personal-website-design</title><g id="Hi-bg-top"><path class="cls-1" d="M475.17,1225.31c-8,15.54-10.93,37,2.23,48.55,8.05,7,19.86,8,30.39,6.18s20.48-6.13,30.93-8.43a84.89,84.89,0,0,1,59.15,8.77c6.63,3.72,12.78,8.35,19.83,11.2s15.47,3.67,22-.23c10.39-6.23,11.33-20.75,10.21-32.8-1.5-16.07-4.75-32.58-14.13-45.71-10.91-15.26-29-24.14-47.39-27.77C540.42,1175.62,500,1177.22,475.17,1225.31Z"/><path class="cls-2" d="M257.23,941.36a201.78,201.78,0,0,0,143.11,59.28c111.77,0,202.38-90.61,202.38-202.38a201.74,201.74,0,0,0-59.28-143.11Z"/><path class="cls-1" d="M782.65,288.42c-10.2,5.71-18.47,16.42-17.78,28.09.66,11.3,9.09,20.35,14.94,30s8.54,23.95-.28,31.05c-5.48,4.4-14.08,4.69-17.95,10.56-2.71,4.11-2,9.78.56,14s6.59,7.28,10.63,10.09a219.75,219.75,0,0,0,34.84,19.8c9.37,4.25,20.06,7.87,29.74,4.39,10.09-3.62,16.3-14.38,17.36-25.05s-2.14-21.28-6-31.3c-4.54-11.94-10.09-24.83-6.22-37,2.65-8.34,9.35-14.78,12.89-22.79,5.92-13.41,1.29-30.66-10.56-39.3C830.34,270.4,796.73,280.54,782.65,288.42Z"/><polygon class="cls-1" points="73.14 375.3 84.5 483.51 172.53 419.57 73.14 375.3"/></g></svg>