<svg id="Hi-bg-solid" xmlns="http://www.w3.org/2000/svg" viewBox="0 0 1366 896"><defs><style>.cls-1{fill:#f42525;}.cls-2{fill:#dbdbdb;}</style></defs><title>personal-website-design</title><path class="cls-1" d="M850.94,786c-9.93,19.22-13.53,45.82,2.76,60.06,9.95,8.71,24.56,9.94,37.59,7.65s25.35-7.58,38.27-10.43a105,105,0,0,1,73.18,10.85c8.2,4.6,15.82,10.33,24.54,13.85s19.14,4.55,27.21-.28c12.84-7.7,14-25.67,12.62-40.59-1.85-19.88-5.87-40.3-17.48-56.54-13.49-18.88-35.86-29.87-58.63-34.36C931.66,724.54,881.67,726.51,850.94,786Z"/><path class="cls-2" d="M465.34,658.66A205.32,205.32,0,0,0,611,719c113.77,0,206-92.23,206-206a205.32,205.32,0,0,0-60.34-145.66Z"/><path class="cls-1" d="M1122.48,209.61c-12.61,7.06-22.84,20.31-22,34.74.82,14,11.25,25.18,18.49,37.17s10.57,29.63-.35,38.41c-6.78,5.46-17.42,5.81-22.21,13.07-3.35,5.09-2.45,12.1.69,17.32s8.16,9,13.16,12.49a271.61,271.61,0,0,0,43.1,24.5c11.59,5.25,24.83,9.73,36.8,5.43,12.49-4.49,20.17-17.8,21.48-31s-2.65-26.34-7.36-38.73c-5.62-14.77-12.49-30.73-7.7-45.78,3.27-10.32,11.57-18.29,15.94-28.19,7.34-16.6,1.61-37.94-13-48.63C1181.49,187.3,1139.9,199.85,1122.48,209.61Z"/><polygon class="cls-1" points="165.47 378.95 179.52 512.83 288.45 433.73 165.47 378.95"/></svg>