<svg xmlns="http://www.w3.org/2000/svg" viewBox="0 0 1366 896"><defs><style>.cls-1,.cls-2,.cls-3,.cls-4{fill:none;stroke:#000;stroke-miterlimit:10;}.cls-1,.cls-2,.cls-4{stroke-linecap:round;}.cls-1,.cls-2,.cls-3{stroke-width:10px;}.cls-2{stroke-dasharray:30 40;}.cls-4{stroke-width:9.43px;stroke-dasharray:28.28 37.71;}</style></defs><title>personal-website-design</title><g id="Hi-bg-stroked"><circle class="cls-1" cx="611" cy="462" r="206"/><line class="cls-2" x1="344" y1="729" x2="878" y2="195"/><path class="cls-3" d="M1077.48,158.61c-12.61,7.06-22.84,20.31-22,34.74.82,14,11.25,25.18,18.49,37.17s10.57,29.63-.35,38.41c-6.78,5.46-17.42,5.81-22.21,13.07-3.35,5.09-2.45,12.1.69,17.32s8.16,9,13.16,12.49a271.61,271.61,0,0,0,43.1,24.5c11.59,5.25,24.83,9.73,36.8,5.43,12.49-4.49,20.17-17.8,21.48-31s-2.65-26.34-7.36-38.73c-5.62-14.77-12.49-30.73-7.7-45.78,3.27-10.32,11.57-18.29,15.94-28.19,7.34-16.6,1.61-37.94-13-48.63C1136.49,136.3,1094.9,148.85,1077.48,158.61Z"/><path class="cls-4" d="M782.13,754c-9.93,19.22-13.53,45.82,2.76,60.06,10,8.71,24.56,9.94,37.59,7.65s25.35-7.58,38.27-10.43a105,105,0,0,1,73.18,10.85c8.2,4.6,15.82,10.33,24.54,13.85s19.14,4.55,27.2-.28c12.85-7.7,14-25.67,12.63-40.58-1.85-19.89-5.87-40.31-17.48-56.55-13.49-18.88-35.87-29.87-58.63-34.36C862.85,692.49,812.86,694.46,782.13,754Z"/></g></svg>