<svg xmlns="http://www.w3.org/2000/svg" xmlns:xlink="http://www.w3.org/1999/xlink" viewBox="0 0 1366 896"><defs><style>.cls-1,.cls-10,.cls-11,.cls-12,.cls-13,.cls-14,.cls-15,.cls-3,.cls-4,.cls-5,.cls-6,.cls-7,.cls-8{fill:none;}.cls-2{clip-path:url(#clip-path);}.cls-10,.cls-11,.cls-12,.cls-13,.cls-14,.cls-15,.cls-3,.cls-4,.cls-5,.cls-6,.cls-7,.cls-8{stroke-linecap:round;stroke-linejoin:round;stroke-width:17px;}.cls-3{stroke:url(#linear-gradient);}.cls-4{stroke:url(#linear-gradient-2);}.cls-5{stroke:url(#linear-gradient-3);}.cls-6{stroke:url(#linear-gradient-4);}.cls-7{stroke:url(#linear-gradient-5);}.cls-8{stroke:url(#linear-gradient-6);}.cls-9{clip-path:url(#clip-path-2);}.cls-10{stroke:url(#linear-gradient-7);}.cls-11{stroke:url(#linear-gradient-8);}.cls-12{stroke:url(#linear-gradient-9);}.cls-13{stroke:url(#linear-gradient-10);}.cls-14{stroke:url(#linear-gradient-11);}.cls-15{stroke:url(#linear-gradient-12);}</style><clipPath id="clip-path"><polygon class="cls-1" points="332.27 117.95 90.72 203.67 285.73 370 332.27 117.95"/></clipPath><linearGradient id="linear-gradient" x1="508.69" y1="-77.02" x2="52.86" y2="378.81" gradientUnits="userSpaceOnUse"><stop offset="0" stop-color="#fff"/><stop offset="0.9"/></linearGradient><linearGradient id="linear-gradient-2" x1="528.21" y1="-41.48" x2="72.39" y2="414.35" xlink:href="#linear-gradient"/><linearGradient id="linear-gradient-3" x1="547.74" y1="-5.93" x2="91.91" y2="449.89" xlink:href="#linear-gradient"/><linearGradient id="linear-gradient-4" x1="567.26" y1="29.61" x2="111.43" y2="485.44" xlink:href="#linear-gradient"/><linearGradient id="linear-gradient-5" x1="586.78" y1="65.15" x2="130.96" y2="520.98" xlink:href="#linear-gradient"/><linearGradient id="linear-gradient-6" x1="606.31" y1="100.69" x2="150.48" y2="556.52" xlink:href="#linear-gradient"/><clipPath id="clip-path-2"><circle class="cls-1" cx="1129.79" cy="591.95" r="76.5"/></clipPath><linearGradient id="linear-gradient-7" x1="944.66" y1="467.27" x2="1376.79" y2="467.27" xlink:href="#linear-gradient"/><linearGradient id="linear-gradient-8" x1="916.32" y1="496.27" x2="1348.45" y2="496.27" xlink:href="#linear-gradient"/><linearGradient id="linear-gradient-9" x1="887.98" y1="525.28" x2="1320.11" y2="525.28" xlink:href="#linear-gradient"/><linearGradient id="linear-gradient-10" x1="859.64" y1="554.28" x2="1291.77" y2="554.28" xlink:href="#linear-gradient"/><linearGradient id="linear-gradient-11" x1="831.3" y1="583.29" x2="1263.43" y2="583.29" xlink:href="#linear-gradient"/><linearGradient id="linear-gradient-12" x1="802.96" y1="612.29" x2="1235.09" y2="612.29" xlink:href="#linear-gradient"/></defs><title>personal-website-design</title><g id="Hi-bg-stroked-2"><g class="cls-2"><line class="cls-3" x1="-44.99" y1="268.94" x2="606.54" y2="32.85"/><line class="cls-4" x1="-25.46" y1="304.48" x2="626.06" y2="68.39"/><line class="cls-5" x1="-5.94" y1="340.02" x2="645.59" y2="103.94"/><line class="cls-6" x1="13.58" y1="375.56" x2="665.11" y2="139.48"/><line class="cls-7" x1="33.11" y1="411.11" x2="684.63" y2="175.02"/><line class="cls-8" x1="52.63" y1="446.65" x2="704.15" y2="210.56"/></g><g class="cls-9"><line class="cls-10" x1="953.16" y1="189.83" x2="1368.29" y2="744.71"/><line class="cls-11" x1="924.82" y1="218.84" x2="1339.95" y2="773.71"/><line class="cls-12" x1="896.48" y1="247.84" x2="1311.61" y2="802.72"/><line class="cls-13" x1="868.14" y1="276.85" x2="1283.27" y2="831.72"/><line class="cls-14" x1="839.8" y1="305.85" x2="1254.93" y2="860.72"/><line class="cls-15" x1="811.46" y1="334.86" x2="1226.59" y2="889.73"/></g></g></svg>