<svg xmlns="http://www.w3.org/2000/svg" viewBox="0 0 896 1366"><defs><style>.cls-1{fill:#dbdbdb;}.cls-2,.cls-3,.cls-4,.cls-5{fill:none;stroke:#000;stroke-miterlimit:10;}.cls-2,.cls-3,.cls-5{stroke-linecap:round;}.cls-2,.cls-3,.cls-4{stroke-width:10px;}.cls-3{stroke-dasharray:30 40;}.cls-5{stroke-width:9.43px;stroke-dasharray:28.28 37.71;}</style></defs><title>personal-website-design</title><g id="Hi-bg-top"><path class="cls-1" d="M257.23,941.36a201.78,201.78,0,0,0,143.11,59.28c111.77,0,202.38-90.61,202.38-202.38a201.74,201.74,0,0,0-59.28-143.11Z"/><circle class="cls-2" cx="400.34" cy="748.15" r="202.38"/><line class="cls-3" x1="138.03" y1="1010.46" x2="662.65" y2="485.85"/><path class="cls-4" d="M746.28,247.2c-10.2,5.71-18.47,16.42-17.78,28.09.66,11.3,9.09,20.34,14.94,30s8.54,23.95-.28,31c-5.48,4.41-14.08,4.7-17.95,10.57-2.72,4.11-2,9.78.55,14s6.6,7.29,10.64,10.1a220.1,220.1,0,0,0,34.83,19.8c9.37,4.25,20.07,7.87,29.75,4.39,10.09-3.62,16.3-14.38,17.36-25.05s-2.14-21.28-6-31.3c-4.54-11.94-10.09-24.83-6.23-37,2.65-8.34,9.36-14.78,12.89-22.79,5.93-13.41,1.3-30.66-10.55-39.31C794,229.17,760.35,239.32,746.28,247.2Z"/><path class="cls-5" d="M419.56,1199.41c-8,15.54-10.94,37,2.22,48.54,8.05,7,19.86,8,30.39,6.19s20.49-6.13,30.93-8.43a84.89,84.89,0,0,1,59.15,8.77c6.63,3.71,12.79,8.35,19.83,11.19s15.47,3.68,22-.23c10.39-6.22,11.33-20.74,10.21-32.8-1.5-16.07-4.75-32.57-14.13-45.7-10.91-15.26-29-24.15-47.39-27.77C484.8,1149.72,444.39,1151.31,419.56,1199.41Z"/></g></svg>