<svg xmlns="http://www.w3.org/2000/svg" xmlns:xlink="http://www.w3.org/1999/xlink" viewBox="0 0 896 1366"><defs><style>.cls-1,.cls-2{fill:none;stroke-linecap:round;stroke-miterlimit:10;stroke-width:10px;}.cls-1{stroke:url(#linear-gradient);}.cls-2{stroke-dasharray:30 40;stroke:url(#linear-gradient-2);}</style><linearGradient id="linear-gradient" x1="617.28" y1="358.62" x2="748.71" y2="358.62" gradientUnits="userSpaceOnUse"><stop offset="0" stop-color="#e99900" stop-opacity="0"/><stop offset="0.55" stop-color="#e99900"/><stop offset="1" stop-color="#f42525"/></linearGradient><linearGradient id="linear-gradient-2" x1="363.68" y1="1159.74" x2="598.75" y2="1159.74" xlink:href="#linear-gradient"/></defs><title>personal-website-design</title><g id="Hi-bg-stroked"><path class="cls-1" d="M650.48,273.61c-12.61,7.06-22.84,20.31-22,34.74.82,14,11.25,25.18,18.49,37.17s10.57,29.63-.35,38.41c-6.78,5.46-17.42,5.81-22.21,13.07-3.35,5.09-2.45,12.1.69,17.32s8.16,9,13.16,12.49a271.61,271.61,0,0,0,43.1,24.5c11.59,5.25,24.83,9.73,36.8,5.43,12.49-4.49,20.17-17.8,21.48-31S737,399.41,732.28,387c-5.62-14.77-12.49-30.73-7.7-45.78,3.27-10.32,11.57-18.29,15.94-28.19,7.34-16.6,1.61-37.94-13-48.63C709.49,251.3,667.9,263.85,650.48,273.61Z"/><path class="cls-2" d="M377.13,1145c-9.93,19.22-13.53,45.82,2.76,60.06,9.95,8.71,24.56,9.94,37.59,7.65s25.35-7.58,38.27-10.43a105,105,0,0,1,73.18,10.85c8.2,4.6,15.82,10.33,24.54,13.85s19.14,4.55,27.2-.28c12.85-7.7,14-25.67,12.63-40.58-1.85-19.89-5.87-40.31-17.48-56.55-13.49-18.88-35.87-29.87-58.63-34.36C457.85,1083.49,407.86,1085.46,377.13,1145Z"/></g></svg>