<svg xmlns="http://www.w3.org/2000/svg" xmlns:xlink="http://www.w3.org/1999/xlink" viewBox="0 0 1366 896"><defs><style>.cls-1,.cls-10,.cls-2,.cls-3,.cls-4,.cls-6,.cls-7,.cls-8,.cls-9{fill:none;}.cls-10,.cls-2,.cls-3,.cls-4,.cls-6,.cls-7,.cls-8,.cls-9{stroke-linecap:round;stroke-linejoin:round;}.cls-2,.cls-3,.cls-4{stroke-width:10px;}.cls-2{stroke:url(#linear-gradient);}.cls-3{stroke:url(#linear-gradient-2);}.cls-4{stroke:url(#linear-gradient-3);}.cls-5{clip-path:url(#clip-path);}.cls-10,.cls-6,.cls-7,.cls-8,.cls-9{stroke-width:17.88px;}.cls-6{stroke:url(#linear-gradient-4);}.cls-7{stroke:url(#linear-gradient-5);}.cls-8{stroke:url(#linear-gradient-6);}.cls-9{stroke:url(#linear-gradient-7);}.cls-10{stroke:url(#linear-gradient-8);}</style><linearGradient id="linear-gradient" x1="1071.19" y1="649.55" x2="1168.1" y2="649.55" gradientUnits="userSpaceOnUse"><stop offset="0" stop-color="#fff"/><stop offset="1" stop-opacity="0"/></linearGradient><linearGradient id="linear-gradient-2" x1="444" y1="784" x2="502" y2="784" xlink:href="#linear-gradient"/><linearGradient id="linear-gradient-3" x1="1042.84" y1="565.48" x2="1094.08" y2="565.48" xlink:href="#linear-gradient"/><clipPath id="clip-path"><rect class="cls-1" x="-334" y="367" width="162" height="162" transform="translate(195 701) rotate(90)"/></clipPath><linearGradient id="linear-gradient-4" x1="-1216.67" y1="-828.65" x2="-762.08" y2="-828.65" gradientTransform="translate(-982 1496) rotate(90)" gradientUnits="userSpaceOnUse"><stop offset="0" stop-color="#fff"/><stop offset="0.9"/></linearGradient><linearGradient id="linear-gradient-5" x1="-1246.48" y1="-798.14" x2="-791.89" y2="-798.14" xlink:href="#linear-gradient-4"/><linearGradient id="linear-gradient-6" x1="-1276.29" y1="-767.63" x2="-821.71" y2="-767.63" xlink:href="#linear-gradient-4"/><linearGradient id="linear-gradient-7" x1="-1306.1" y1="-737.12" x2="-851.52" y2="-737.12" xlink:href="#linear-gradient-4"/><linearGradient id="linear-gradient-8" x1="-1335.92" y1="-706.61" x2="-881.33" y2="-706.61" xlink:href="#linear-gradient-4"/></defs><title>personal-website-design</title><g id="Hi-bg-stroked-2"><circle class="cls-2" cx="1119.65" cy="649.55" r="43.45"/><circle class="cls-3" cx="473" cy="784" r="24"/><circle class="cls-4" cx="1068.46" cy="565.48" r="20.62"/><g class="cls-5"><line class="cls-6" x1="138.5" y1="288.28" x2="-445.2" y2="724.98"/><line class="cls-7" x1="107.99" y1="258.46" x2="-475.71" y2="695.16"/><line class="cls-8" x1="77.48" y1="228.65" x2="-506.22" y2="665.35"/><line class="cls-9" x1="46.97" y1="198.84" x2="-536.73" y2="635.54"/><line class="cls-10" x1="16.45" y1="169.03" x2="-567.24" y2="605.73"/></g></g></svg>