<svg xmlns="http://www.w3.org/2000/svg" xmlns:xlink="http://www.w3.org/1999/xlink" viewBox="0 0 162 162"><defs><style>.cls-1,.cls-4,.cls-5,.cls-6,.cls-7,.cls-8,.cls-9{fill:none;}.cls-2{fill:url(#linear-gradient);}.cls-3{clip-path:url(#clip-path);}.cls-4,.cls-5,.cls-6,.cls-7,.cls-8,.cls-9{stroke-linecap:round;stroke-linejoin:round;stroke-width:17.88px;}.cls-4{stroke:url(#linear-gradient-2);}.cls-5{stroke:url(#linear-gradient-3);}.cls-6{stroke:url(#linear-gradient-4);}.cls-7{stroke:url(#linear-gradient-5);}.cls-8{stroke:url(#linear-gradient-6);}.cls-9{stroke:url(#linear-gradient-7);}</style><linearGradient id="linear-gradient" x1="74.74" y1="74.48" x2="143.94" y2="141.02" gradientUnits="userSpaceOnUse"><stop offset="0" stop-color="#e99900" stop-opacity="0"/><stop offset="1" stop-color="#f42525"/></linearGradient><clipPath id="clip-path"><rect class="cls-1" x="-312" width="162" height="162" transform="translate(-150 312) rotate(90)"/></clipPath><linearGradient id="linear-gradient-2" x1="-2037.67" y1="-2000.65" x2="-1583.08" y2="-2000.65" gradientTransform="translate(-2132 1950) rotate(90)" gradientUnits="userSpaceOnUse"><stop offset="0" stop-color="#fff"/><stop offset="0.9"/></linearGradient><linearGradient id="linear-gradient-3" x1="-2067.48" y1="-1970.14" x2="-1612.89" y2="-1970.14" xlink:href="#linear-gradient-2"/><linearGradient id="linear-gradient-4" x1="-2097.29" y1="-1939.63" x2="-1642.71" y2="-1939.63" xlink:href="#linear-gradient-2"/><linearGradient id="linear-gradient-5" x1="-2127.1" y1="-1909.12" x2="-1672.52" y2="-1909.12" xlink:href="#linear-gradient-2"/><linearGradient id="linear-gradient-6" x1="-2156.92" y1="-1878.61" x2="-1702.33" y2="-1878.61" xlink:href="#linear-gradient-2"/><linearGradient id="linear-gradient-7" x1="-2186.73" y1="-1848.09" x2="-1732.14" y2="-1848.09" xlink:href="#linear-gradient-2"/></defs><title>personal-website-design</title><g id="Hi-bg-solid"><path class="cls-2" d="M3,132.23A91.38,91.38,0,1,0,132.23,3Z"/></g><g id="Hi-bg-stroked-2"><g class="cls-3"><line class="cls-4" x1="160.5" y1="-78.72" x2="-423.2" y2="357.98"/><line class="cls-5" x1="129.99" y1="-108.54" x2="-453.71" y2="328.16"/><line class="cls-6" x1="99.48" y1="-138.35" x2="-484.22" y2="298.35"/><line class="cls-7" x1="68.97" y1="-168.16" x2="-514.73" y2="268.54"/><line class="cls-8" x1="38.45" y1="-197.97" x2="-545.24" y2="238.73"/><line class="cls-9" x1="7.94" y1="-227.79" x2="-575.75" y2="208.91"/></g></g></svg>